# This file uses meters as units for non-parametric coordinates.

g default
v 2710.691329 289.089818 -8510.222970
v 3065.587673 289.089818 -8510.222970
v 2710.691329 527.368126 -8510.222970
v 3065.587673 527.368126 -8510.222970
v 2710.691329 527.368126 -9075.221376
v 3065.587673 527.368126 -9075.221376
v 2710.691329 289.089818 -9075.221376
v 3065.587673 289.089818 -9075.221376
v 2710.691329 527.368126 -8726.031150
v 3065.587673 527.368126 -8726.031150
v 3065.587673 289.089818 -8726.031150
v 2710.691329 289.089818 -8726.031150
v 3065.587673 355.722557 -8708.435349
v 3065.587673 355.722557 -8527.818776
v 3065.587673 512.825432 -8708.435349
v 3065.587673 512.825432 -8527.818776
v 3079.686187 355.722557 -8708.435349
v 3079.686187 355.722557 -8527.818776
v 3079.686187 512.825432 -8708.435349
v 3079.686187 512.825432 -8527.818776
v 2710.691329 527.368126 -8615.285702
v 3065.587673 527.368126 -8615.285702
v 3065.587673 512.825432 -8615.749043
v 3079.686187 512.825432 -8615.749043
v 3079.686187 355.722557 -8615.749043
v 3065.587673 355.722557 -8615.749043
v 3065.587673 289.089818 -8615.285702
v 2710.691329 289.089818 -8615.285702
v 3079.686187 365.425001 -8608.475973
v 3079.686187 365.425001 -8535.091847
v 3079.686187 503.123017 -8608.475973
v 3079.686187 503.123017 -8535.091847
v 3079.686187 504.785729 -8622.101751
v 3079.686187 363.762317 -8622.101751
v 3079.686187 363.762317 -8702.082677
v 3079.686187 504.785729 -8702.082677
v 3069.253696 504.785729 -8622.101751
v 3069.253696 363.762317 -8622.101751
v 3069.253696 363.762317 -8702.082677
v 3069.253696 504.785729 -8702.082677
v 3069.253696 365.425001 -8608.475973
v 3069.253696 365.425001 -8535.091847
v 3069.253696 503.123017 -8608.475973
v 3069.253696 503.123017 -8535.091847
v 2710.691329 289.089818 -8773.512707
v 3065.587673 289.089818 -8773.512707
v 3065.587673 527.368126 -8773.512707
v 2710.691329 527.368126 -8773.512707
v 2710.691329 289.089818 -8928.835372
v 3065.587673 289.089818 -8928.835372
v 3065.587673 527.368126 -8928.835372
v 2710.691329 527.368126 -8928.835372
v 3048.276412 311.958919 -8788.906032
v 3048.276412 517.354546 -8788.906032
v 3048.276412 311.958919 -8913.442043
v 3048.276412 517.354546 -8913.442043
v 3065.587673 306.939168 -8783.886266
v 3060.567912 311.958919 -8788.906032
v 3065.587673 522.374325 -8783.886266
v 3060.567912 517.354546 -8788.906032
v 3065.587673 306.939168 -8918.461810
v 3060.567912 311.958919 -8913.442043
v 3065.587673 522.374325 -8918.461810
v 3060.567912 517.354546 -8913.442043
v 2710.691329 565.274864 -8726.031150
v 3065.587673 565.274864 -8726.031150
v 3065.587673 565.274864 -8773.512707
v 2710.691329 565.274864 -8773.512707
v 2710.691329 565.274864 -8615.285702
v 3065.587673 565.274864 -8615.285702
v 2710.691329 565.274864 -8510.222970
v 3065.587673 565.274864 -8510.222970
v 3065.587673 565.274864 -8928.835372
v 2710.691329 565.274864 -8928.835372
v 3065.587673 565.274864 -9075.221376
v 2710.691329 565.274864 -9075.221376
v 2735.974932 565.274864 -8728.851985
v 3040.304070 565.274864 -8728.851985
v 3040.304070 565.274864 -8774.325211
v 2735.974932 565.274864 -8774.325211
v 2735.974932 565.274864 -8622.790759
v 3040.304070 565.274864 -8622.790759
v 2735.974932 565.274864 -8522.171865
v 3040.304070 565.274864 -8522.171865
v 3040.304070 565.274864 -8923.078184
v 2735.974932 565.274864 -8923.078184
v 3040.304070 565.274864 -9063.272481
v 2735.974932 565.274864 -9063.272481
v 3065.587673 583.716660 -8726.031150
v 3065.587673 583.716660 -8773.512707
v 3040.304070 583.716660 -8774.325211
v 3040.304070 583.716660 -8728.851985
v 2710.691329 583.716660 -8726.031150
v 2710.691329 583.716660 -8773.512707
v 2735.974932 583.716660 -8728.851985
v 2735.974932 583.716660 -8774.325211
v 3065.587673 583.716660 -8615.285702
v 3040.304070 583.716660 -8622.790759
v 2710.691329 583.716660 -8615.285702
v 2735.974932 583.716660 -8622.790759
v 2710.691329 583.716660 -8510.222970
v 3065.587673 583.716660 -8510.222970
v 3040.304070 583.716660 -8522.171865
v 2735.974932 583.716660 -8522.171865
v 3065.587673 583.716660 -8928.835372
v 3040.304070 583.716660 -8923.078184
v 2710.691329 583.716660 -8928.835372
v 2735.974932 583.716660 -8923.078184
v 3065.587673 583.716660 -9075.221376
v 3040.304070 583.716660 -9063.272481
v 2710.691329 583.716660 -9075.221376
v 2735.974932 583.716660 -9063.272481
vt 0.375000 0.000000
vt 0.625000 0.000000
vt 0.375000 0.250000
vt 0.625000 0.250000
vt 0.375000 0.500000
vt 0.625000 0.500000
vt 0.375000 0.750000
vt 0.625000 0.750000
vt 0.375000 1.000000
vt 0.625000 1.000000
vt 0.875000 0.000000
vt 0.875000 0.250000
vt 0.125000 0.000000
vt 0.125000 0.250000
vt 0.286072 0.250000
vt 0.375000 0.338928
vt 0.625000 0.338928
vt 0.713928 0.250000
vt 0.625000 0.911072
vt 0.713928 0.000000
vt 0.286072 0.000000
vt 0.375000 0.911072
vt 0.625000 0.000000
vt 0.713928 0.000000
vt 0.713928 0.250000
vt 0.625000 0.250000
vt 0.625000 0.000000
vt 0.713928 0.000000
vt 0.713928 0.250000
vt 0.625000 0.250000
vt 0.331707 0.250000
vt 0.375000 0.293293
vt 0.625000 0.293293
vt 0.668293 0.250000
vt 0.668293 0.250000
vt 0.668293 0.250000
vt 0.668293 0.000000
vt 0.668293 0.000000
vt 0.625000 0.956707
vt 0.668293 0.000000
vt 0.331707 0.000000
vt 0.375000 0.956707
vt 0.625000 0.000000
vt 0.668293 0.000000
vt 0.668293 0.250000
vt 0.625000 0.250000
vt 0.668293 0.250000
vt 0.668293 0.000000
vt 0.713928 0.000000
vt 0.713928 0.250000
vt 0.668293 0.250000
vt 0.668293 0.000000
vt 0.713928 0.000000
vt 0.713928 0.250000
vt 0.625000 0.000000
vt 0.668293 0.000000
vt 0.668293 0.250000
vt 0.625000 0.250000
vt 0.231014 0.000000
vt 0.375000 0.856014
vt 0.625000 0.856014
vt 0.625000 0.393986
vt 0.231014 0.250000
vt 0.375000 0.393986
vt 0.181838 0.000000
vt 0.375000 0.806838
vt 0.625000 0.806838
vt 0.625000 0.443162
vt 0.181838 0.250000
vt 0.375000 0.443162
vt 0.768986 0.000000
vt 0.770051 0.250000
vt 0.818162 0.000000
vt 0.768986 0.003114
vt 0.818162 0.250000
vt 0.818162 0.003071
vt 0.768986 0.250000
vt 0.817308 0.250000
vt 0.768986 0.000000
vt 0.768986 0.250000
vt 0.818162 0.000000
vt 0.768986 0.000000
vt 0.818162 0.250000
vt 0.818162 0.000000
vt 0.768986 0.250000
vt 0.818162 0.250000
vt 0.625000 0.338928
vt 0.625000 0.393986
vt 0.375000 0.393986
vt 0.375000 0.338928
vt 0.625000 0.293293
vt 0.375000 0.293293
vt 0.375000 0.250000
vt 0.625000 0.250000
vt 0.625000 0.443162
vt 0.375000 0.443162
vt 0.625000 0.500000
vt 0.375000 0.500000
vt 0.625000 0.338928
vt 0.625000 0.393986
vt 0.375000 0.393986
vt 0.375000 0.338928
vt 0.625000 0.293293
vt 0.375000 0.293293
vt 0.375000 0.250000
vt 0.625000 0.250000
vt 0.625000 0.443162
vt 0.375000 0.443162
vt 0.625000 0.500000
vt 0.375000 0.500000
vt 0.625000 0.338928
vt 0.625000 0.393986
vt 0.625000 0.393986
vt 0.625000 0.338928
vt 0.375000 0.393986
vt 0.375000 0.338928
vt 0.375000 0.338928
vt 0.375000 0.393986
vt 0.625000 0.293293
vt 0.625000 0.293293
vt 0.375000 0.293293
vt 0.375000 0.293293
vt 0.375000 0.250000
vt 0.625000 0.250000
vt 0.625000 0.250000
vt 0.375000 0.250000
vt 0.625000 0.443162
vt 0.625000 0.443162
vt 0.375000 0.443162
vt 0.375000 0.443162
vt 0.625000 0.500000
vt 0.625000 0.500000
vt 0.375000 0.500000
vt 0.375000 0.500000
vn 0.000000 0.000000 1.000000
vn 0.000000 0.000000 1.000000
vn 0.000000 0.000000 1.000000
vn 0.000000 0.000000 1.000000
vn 0.000000 1.000000 0.000000
vn 0.000000 1.000000 0.000000
vn 0.000000 1.000000 0.000000
vn 0.000000 1.000000 0.000000
vn 0.000000 0.000000 -1.000000
vn 0.000000 0.000000 -1.000000
vn 0.000000 0.000000 -1.000000
vn 0.000000 0.000000 -1.000000
vn 0.000000 -1.000000 0.000000
vn 0.000000 -1.000000 0.000000
vn 0.000000 -1.000000 0.000000
vn 0.000000 -1.000000 0.000000
vn 1.000000 0.000000 0.000000
vn 1.000000 0.000000 0.000000
vn 1.000000 -0.000000 0.000000
vn 1.000000 0.000000 0.000000
vn -1.000000 0.000000 0.000000
vn -1.000000 0.000000 0.000000
vn -1.000000 0.000000 0.000000
vn -1.000000 0.000000 0.000000
vn 0.000000 1.000000 0.000000
vn 0.000000 1.000000 0.000000
vn 1.000000 0.000000 0.000000
vn 1.000000 0.000000 0.000000
vn 1.000000 0.000000 0.000000
vn 1.000000 0.000000 0.000000
vn 0.000000 -1.000000 0.000000
vn 0.000000 -1.000000 0.000000
vn -1.000000 0.000000 0.000000
vn -1.000000 0.000000 0.000000
vn 1.000000 -0.000000 0.000000
vn 1.000000 -0.000000 0.000000
vn 1.000000 -0.000000 0.000000
vn 1.000000 -0.000000 0.000000
vn 1.000000 0.000000 0.000000
vn 1.000000 0.000000 0.000000
vn 1.000000 0.000000 0.000000
vn 1.000000 0.000000 0.000000
vn 1.000000 0.000001 0.000000
vn 1.000000 0.000000 0.000000
vn 1.000000 0.000000 0.000000
vn 1.000000 0.000001 0.000000
vn 1.000000 0.000000 0.000000
vn 1.000000 0.000000 0.000000
vn 1.000000 0.000000 0.000000
vn 1.000000 0.000000 0.000000
vn 0.000000 -1.000000 0.000000
vn 0.000000 -1.000000 0.000000
vn 0.000000 -1.000000 0.000000
vn 0.000000 -1.000000 0.000000
vn 0.000000 0.000000 -1.000000
vn 0.000000 0.000000 -1.000000
vn 0.000000 0.000000 -1.000000
vn 0.000000 0.000000 -1.000000
vn 0.000000 1.000000 0.000000
vn 0.000000 1.000000 0.000000
vn 0.000000 1.000000 0.000000
vn 0.000000 1.000000 0.000000
vn 0.000000 0.000000 1.000000
vn 0.000000 0.000000 1.000000
vn 0.000000 0.000000 1.000000
vn 0.000000 0.000000 1.000000
vn 0.000000 1.000000 0.000000
vn 0.000000 1.000000 0.000000
vn 1.000000 0.000000 0.000000
vn 1.000000 0.000000 0.000000
vn 0.000000 1.000000 0.000000
vn 0.000000 1.000000 0.000000
vn 1.000000 0.000000 0.000000
vn 1.000000 0.000000 0.000000
vn 1.000000 0.000000 0.000000
vn 1.000000 0.000000 0.000000
vn 0.000000 -1.000000 0.000000
vn 0.000000 -1.000000 0.000000
vn 1.000000 0.000000 0.000000
vn 1.000000 0.000000 0.000000
vn 0.000000 -1.000000 0.000000
vn 0.000000 -1.000000 0.000000
vn -1.000000 0.000000 0.000000
vn -1.000000 0.000000 0.000000
vn 1.000000 0.000000 0.000000
vn 1.000000 0.000000 0.000000
vn 1.000000 0.000000 0.000000
vn 1.000000 0.000000 0.000000
vn 1.000000 0.000000 0.000000
vn 1.000000 0.000000 0.000000
vn 1.000000 0.000000 0.000000
vn 1.000000 0.000000 0.000000
vn 1.000000 0.000000 0.000000
vn 1.000000 0.000000 0.000000
vn 1.000000 0.000000 0.000000
vn 1.000000 0.000000 0.000000
vn 1.000000 0.000000 0.000000
vn 1.000000 0.000000 0.000000
vn 1.000000 0.000000 0.000000
vn 1.000000 0.000000 0.000000
vn 1.000000 0.000000 0.000000
vn 1.000000 0.000000 0.000000
vn 1.000000 0.000000 0.000000
vn 1.000000 0.000000 0.000000
vn 1.000000 0.000001 0.000000
vn 1.000000 0.000001 0.000000
vn 1.000000 0.000001 0.000000
vn 1.000000 0.000001 0.000000
vn 1.000000 0.000000 0.000000
vn 1.000000 0.000000 0.000000
vn 1.000000 0.000000 0.000000
vn 1.000000 0.000000 0.000000
vn 1.000000 -0.000002 0.000000
vn 1.000000 -0.000002 0.000000
vn 1.000000 -0.000002 0.000000
vn 1.000000 -0.000002 0.000000
vn 0.000000 0.000000 -1.000000
vn 0.000000 0.000000 -1.000000
vn 0.000000 0.000000 -1.000000
vn 0.000000 0.000000 -1.000000
vn 0.000000 1.000000 0.000000
vn 0.000000 1.000000 0.000000
vn 0.000000 1.000000 0.000000
vn 0.000000 1.000000 0.000000
vn 0.000000 0.000000 1.000000
vn 0.000000 0.000000 1.000000
vn 0.000000 0.000000 1.000000
vn 0.000000 0.000000 1.000000
vn 0.000000 -1.000000 0.000000
vn 0.000000 -1.000000 0.000000
vn 0.000000 -1.000000 0.000000
vn 0.000000 -1.000000 0.000000
vn 0.000000 1.000000 0.000000
vn 0.000000 1.000000 0.000000
vn 0.000000 1.000000 0.000000
vn 0.000000 1.000000 0.000000
vn 0.000000 0.000000 1.000000
vn 0.000000 0.000000 1.000000
vn 0.000000 0.000000 1.000000
vn 0.000000 0.000000 1.000000
vn 0.000000 -1.000000 0.000000
vn 0.000000 -1.000000 0.000000
vn 0.000000 -1.000000 0.000000
vn 0.000000 -1.000000 0.000000
vn 0.000000 0.000000 -1.000000
vn 0.000000 0.000000 -1.000000
vn 0.000000 0.000000 -1.000000
vn 0.000000 0.000000 -1.000000
vn 0.000000 -1.000000 0.000000
vn 0.000000 -1.000000 0.000000
vn 1.000000 0.000000 0.000000
vn 1.000000 0.000000 0.000000
vn 1.000000 0.000000 0.000000
vn 1.000000 0.000000 0.000000
vn 0.000000 1.000000 0.000000
vn 0.000000 1.000000 0.000000
vn -1.000000 0.000000 0.000000
vn -1.000000 0.000000 0.000000
vn 0.000000 -1.000000 0.000000
vn 0.000000 -1.000000 0.000000
vn 1.000000 0.000000 0.000000
vn 1.000000 -0.000000 0.000000
vn 1.000000 0.000000 0.000000
vn 1.000000 0.000000 0.000000
vn 0.000000 1.000000 0.000000
vn 0.000000 1.000000 0.000000
vn -1.000000 0.000000 0.000000
vn -1.000000 0.000000 0.000000
vn 0.707107 0.000000 -0.707107
vn 0.707107 0.000000 -0.707107
vn 0.707107 0.000000 -0.707107
vn 0.707107 0.000000 -0.707107
vn 0.707105 0.707108 0.000000
vn 0.707105 0.707108 0.000000
vn 0.707105 0.707108 0.000000
vn 0.707105 0.707108 0.000000
vn 0.707107 -0.707106 0.000000
vn 0.707107 -0.707106 0.000000
vn 0.707107 -0.707106 0.000000
vn 0.707107 -0.707106 0.000000
vn 0.707107 0.000000 0.707107
vn 0.707107 0.000000 0.707107
vn 0.707107 0.000000 0.707107
vn 0.707107 0.000000 0.707107
vn 1.000000 -0.000000 0.000000
vn 1.000000 0.000000 0.000000
vn 1.000000 -0.000000 0.000000
vn 1.000000 0.000000 0.000000
vn 0.000000 0.000000 -1.000000
vn 0.000000 0.000000 -1.000000
vn 0.000000 0.000000 -1.000000
vn 0.000000 0.000000 -1.000000
vn 0.000000 1.000000 0.000000
vn 0.000000 1.000000 0.000000
vn 0.000000 1.000000 0.000000
vn 0.000000 1.000000 0.000000
vn 0.000000 0.000000 1.000000
vn 0.000000 0.000000 1.000000
vn 0.000000 0.000000 1.000000
vn 0.000000 0.000000 1.000000
vn 0.000000 -1.000000 0.000000
vn 0.000000 -1.000000 0.000000
vn 0.000000 -1.000000 0.000000
vn 0.000000 -1.000000 0.000000
vn 1.000000 0.000000 0.000000
vn 1.000000 0.000000 0.000000
vn 1.000000 0.000000 0.000000
vn 1.000000 0.000000 0.000000
vn -1.000000 0.000000 0.000000
vn -1.000000 0.000000 0.000000
vn -1.000000 0.000000 0.000000
vn -1.000000 0.000000 0.000000
vn 1.000000 0.000000 0.000000
vn 1.000000 0.000000 0.000000
vn 1.000000 0.000000 0.000000
vn 1.000000 0.000000 0.000000
vn -1.000000 0.000000 0.000000
vn -1.000000 0.000000 0.000000
vn -1.000000 0.000000 0.000000
vn -1.000000 0.000000 0.000000
vn 0.000000 0.000000 1.000000
vn 0.000000 0.000000 1.000000
vn 0.000000 0.000000 1.000000
vn 0.000000 0.000000 1.000000
vn 1.000000 0.000000 0.000000
vn 1.000000 0.000000 0.000000
vn 1.000000 0.000000 0.000000
vn 1.000000 0.000000 0.000000
vn -1.000000 0.000000 0.000000
vn -1.000000 0.000000 0.000000
vn -1.000000 0.000000 0.000000
vn -1.000000 0.000000 0.000000
vn 1.000000 0.000000 0.000000
vn 1.000000 0.000000 0.000000
vn 1.000000 0.000000 0.000000
vn 1.000000 0.000000 0.000000
vn -1.000000 0.000000 0.000000
vn -1.000000 0.000000 0.000000
vn -1.000000 0.000000 0.000000
vn -1.000000 0.000000 0.000000
vn 1.000000 0.000000 0.000000
vn 1.000000 0.000000 0.000000
vn 1.000000 0.000000 0.000000
vn 1.000000 0.000000 0.000000
vn 0.000000 0.000000 -1.000000
vn 0.000000 0.000000 -1.000000
vn 0.000000 0.000000 -1.000000
vn 0.000000 0.000000 -1.000000
vn -1.000000 0.000000 0.000000
vn -1.000000 0.000000 0.000000
vn -1.000000 0.000000 0.000000
vn -1.000000 0.000000 0.000000
vn 0.000000 1.000000 0.000000
vn 0.000000 1.000000 0.000000
vn 0.000000 1.000000 0.000000
vn 0.000000 1.000000 0.000000
vn 0.000000 1.000000 0.000000
vn 0.000000 1.000000 0.000000
vn 0.000000 1.000000 0.000000
vn 0.000000 1.000000 0.000000
vn 0.000000 1.000000 0.000000
vn 0.000000 1.000000 0.000000
vn 0.000000 1.000000 0.000000
vn 0.000000 1.000000 0.000000
vn 0.000000 1.000000 0.000000
vn 0.000000 1.000000 0.000000
vn 0.000000 1.000000 0.000000
vn 0.000000 1.000000 0.000000
vn 0.000000 1.000000 0.000000
vn 0.000000 1.000000 0.000000
vn 0.000000 1.000000 0.000000
vn 0.000000 1.000000 0.000000
vn 0.000000 1.000000 0.000000
vn 0.000000 1.000000 0.000000
vn 0.000000 1.000000 0.000000
vn 0.000000 1.000000 0.000000
vn 0.000000 1.000000 0.000000
vn 0.000000 1.000000 0.000000
vn 0.000000 1.000000 0.000000
vn 0.000000 1.000000 0.000000
vn 0.000000 1.000000 0.000000
vn 0.000000 1.000000 0.000000
vn 0.000000 1.000000 0.000000
vn 0.000000 1.000000 0.000000
vn 0.000000 1.000000 0.000000
vn 0.000000 1.000000 0.000000
vn 0.000000 1.000000 0.000000
vn 0.000000 1.000000 0.000000
vn 0.000000 1.000000 0.000000
vn 0.000000 1.000000 0.000000
vn 0.000000 1.000000 0.000000
vn 0.000000 1.000000 0.000000
vn 0.000000 1.000000 0.000000
vn 0.000000 1.000000 0.000000
vn 0.000000 1.000000 0.000000
vn 0.000000 1.000000 0.000000
vn 0.000000 1.000000 0.000000
vn 0.000000 1.000000 0.000000
vn 0.000000 1.000000 0.000000
vn 0.000000 1.000000 0.000000
vn 1.000000 0.000000 0.000000
vn 1.000000 0.000000 0.000000
vn 1.000000 0.000000 0.000000
vn 1.000000 0.000000 0.000000
vn -1.000000 0.000000 0.000000
vn -1.000000 0.000000 0.000000
vn -1.000000 0.000000 0.000000
vn -1.000000 0.000000 0.000000
vn -1.000000 0.000000 0.000000
vn -1.000000 0.000000 0.000000
vn -1.000000 0.000000 0.000000
vn -1.000000 0.000000 0.000000
vn 1.000000 0.000000 0.000000
vn 1.000000 0.000000 0.000000
vn 1.000000 0.000000 0.000000
vn 1.000000 0.000000 0.000000
vn 1.000000 0.000000 0.000000
vn 1.000000 0.000000 0.000000
vn 1.000000 0.000000 0.000000
vn 1.000000 0.000000 0.000000
vn -1.000000 0.000000 0.000000
vn -1.000000 0.000000 0.000000
vn -1.000000 0.000000 0.000000
vn -1.000000 0.000000 0.000000
vn -1.000000 0.000000 0.000000
vn -1.000000 0.000000 0.000000
vn -1.000000 0.000000 0.000000
vn -1.000000 0.000000 0.000000
vn 1.000000 0.000000 0.000000
vn 1.000000 0.000000 0.000000
vn 1.000000 0.000000 0.000000
vn 1.000000 0.000000 0.000000
vn 0.000000 0.000000 1.000000
vn 0.000000 0.000000 1.000000
vn 0.000000 0.000000 1.000000
vn 0.000000 0.000000 1.000000
vn 0.000000 0.000000 -1.000000
vn 0.000000 0.000000 -1.000000
vn 0.000000 0.000000 -1.000000
vn 0.000000 0.000000 -1.000000
vn 1.000000 0.000000 0.000000
vn 1.000000 0.000000 0.000000
vn 1.000000 0.000000 0.000000
vn 1.000000 0.000000 0.000000
vn -1.000000 0.000000 0.000000
vn -1.000000 0.000000 0.000000
vn -1.000000 0.000000 0.000000
vn -1.000000 0.000000 0.000000
vn -1.000000 0.000000 0.000000
vn -1.000000 0.000000 0.000000
vn -1.000000 0.000000 0.000000
vn -1.000000 0.000000 0.000000
vn 1.000000 0.000000 0.000000
vn 1.000000 0.000000 0.000000
vn 1.000000 0.000000 0.000000
vn 1.000000 0.000000 0.000000
vn 1.000000 0.000000 0.000000
vn 1.000000 0.000000 0.000000
vn 1.000000 0.000000 0.000000
vn 1.000000 0.000000 0.000000
vn -1.000000 0.000000 0.000000
vn -1.000000 0.000000 0.000000
vn -1.000000 0.000000 0.000000
vn -1.000000 0.000000 0.000000
vn -1.000000 0.000000 0.000000
vn -1.000000 0.000000 0.000000
vn -1.000000 0.000000 0.000000
vn -1.000000 0.000000 0.000000
vn 1.000000 0.000000 0.000000
vn 1.000000 0.000000 0.000000
vn 1.000000 0.000000 0.000000
vn 1.000000 0.000000 0.000000
vn 1.000000 0.000000 0.000000
vn 1.000000 0.000000 0.000000
vn 1.000000 0.000000 0.000000
vn 1.000000 0.000000 0.000000
vn -1.000000 0.000000 0.000000
vn -1.000000 0.000000 0.000000
vn -1.000000 0.000000 0.000000
vn -1.000000 0.000000 0.000000
vn 0.000000 0.000000 -1.000000
vn 0.000000 0.000000 -1.000000
vn 0.000000 0.000000 -1.000000
vn 0.000000 0.000000 -1.000000
vn 0.000000 0.000000 1.000000
vn 0.000000 0.000000 1.000000
vn 0.000000 0.000000 1.000000
vn 0.000000 0.000000 1.000000
vn -1.000000 0.000000 0.000000
vn -1.000000 0.000000 0.000000
vn -1.000000 0.000000 0.000000
vn -1.000000 0.000000 0.000000
vn 1.000000 0.000000 0.000000
vn 1.000000 0.000000 0.000000
vn 1.000000 0.000000 0.000000
vn 1.000000 0.000000 0.000000
s off
g pasted__pCube2 group26
f 1/1/1 2/2/2 4/4/3 3/3/4
s 1
f 77/102/5 78/99/6 79/100/7 80/101/8
s off
f 5/5/9 6/6/10 8/8/11 7/7/12
s 2
f 45/60/13 46/61/14 11/19/15 12/22/16
s 3
f 10/18/17 11/20/18 46/71/19 47/77/20
s 4
f 48/63/21 45/59/22 12/21/23 9/15/24
s 1
f 81/104/25 82/103/26 78/99/6 77/102/5
s off
f 37/51/27 38/52/28 39/53/29 40/54/30
s 2
f 12/22/16 11/19/15 27/39/31 28/42/32
s 4
f 9/15/24 12/21/23 28/41/33 21/31/34
s 5
f 26/38/35 27/40/36 11/20/37 13/24/38
s off
f 11/20/39 10/18/40 15/25/41 13/24/42
s 6
f 10/18/43 22/34/44 23/35/45 15/25/46
s off
f 4/4/47 2/2/48 14/23/49 16/26/50
s 7
f 25/37/51 26/38/52 13/24/53 17/28/54
s off
f 13/24/55 15/25/56 19/29/57 17/28/58
s 8
f 15/25/59 23/35/60 24/36/61 19/29/62
s off
f 16/26/63 14/23/64 18/27/65 20/30/66
s 1
f 83/105/67 84/106/68 82/103/26 81/104/25
s 6
f 23/35/45 22/34/44 4/4/69 16/26/70
s 8
f 24/36/61 23/35/60 16/26/71 20/30/72
s off
f 42/55/73 41/56/74 43/57/75 44/58/76
s 7
f 14/23/77 26/38/52 25/37/51 18/27/78
s 5
f 2/2/79 27/40/36 26/38/35 14/23/80
s 2
f 28/42/32 27/39/31 2/10/81 1/9/82
s 4
f 21/31/34 28/41/33 1/1/83 3/3/84
s off
f 18/27/85 25/37/86 29/44/87 30/43/88
f 25/37/89 24/36/90 31/45/91 29/44/92
f 24/36/93 20/30/94 32/46/95 31/45/96
f 20/30/97 18/27/98 30/43/99 32/46/100
f 24/36/101 25/37/102 34/48/103 33/47/104
f 25/37/105 17/28/106 35/49/107 34/48/108
f 17/28/109 19/29/110 36/50/111 35/49/112
f 19/29/113 24/36/114 33/47/115 36/50/116
f 33/47/117 34/48/118 38/52/119 37/51/120
f 34/48/121 35/49/122 39/53/123 38/52/124
f 35/49/125 36/50/126 40/54/127 39/53/128
f 36/50/129 33/47/130 37/51/131 40/54/132
f 30/43/133 29/44/134 41/56/135 42/55/136
f 29/44/137 31/45/138 43/57/139 41/56/140
f 31/45/141 32/46/142 44/58/143 43/57/144
f 32/46/145 30/43/146 42/55/147 44/58/148
s 2
f 49/66/149 50/67/150 46/61/14 45/60/13
s off
f 54/80/151 53/82/152 55/84/153 56/86/154
s 1
f 80/101/8 79/100/7 85/107/155 86/108/156
s 4
f 52/69/157 49/65/158 45/59/22 48/63/21
s 2
f 7/7/159 8/8/160 50/67/150 49/66/149
s 3
f 51/75/161 50/73/162 8/11/163 6/12/164
s 1
f 86/108/156 85/107/155 87/109/165 88/110/166
s 4
f 7/13/167 49/65/158 52/69/157 5/14/168
s off
f 57/74/169 58/79/170 60/85/171 59/72/172
f 58/79/173 57/74/174 61/76/175 62/81/176
f 59/72/177 60/85/178 64/83/179 63/78/180
f 62/81/181 61/76/182 63/78/183 64/83/184
s 3
f 47/77/20 46/71/19 57/74/185 59/72/186
f 46/71/19 50/73/162 61/76/187 57/74/185
f 50/73/162 51/75/161 63/78/188 61/76/187
f 51/75/161 47/77/20 59/72/186 63/78/188
s off
f 60/85/189 58/79/190 53/82/191 54/80/192
f 58/79/193 62/81/194 55/84/195 53/82/196
f 62/81/197 64/83/198 56/86/199 55/84/200
f 64/83/201 60/85/202 54/80/203 56/86/204
f 10/17/205 47/62/206 67/88/207 66/87/208
f 48/64/209 9/16/210 65/90/211 68/89/212
f 22/33/213 10/17/214 66/87/215 70/91/216
f 9/16/217 21/32/218 69/92/219 65/90/220
f 3/3/221 4/4/222 72/94/223 71/93/224
f 4/4/225 22/33/226 70/91/227 72/94/228
f 21/32/229 3/3/230 71/93/231 69/92/232
f 47/62/233 51/68/234 73/95/235 67/88/236
f 52/70/237 48/64/238 68/89/239 74/96/240
f 51/68/241 6/6/242 75/97/243 73/95/244
f 6/6/245 5/5/246 76/98/247 75/97/248
f 5/5/249 52/70/250 74/96/251 76/98/252
f 89/111/253 90/112/254 91/113/255 92/114/256
f 94/115/257 93/116/258 95/117/259 96/118/260
f 97/119/261 89/111/262 92/114/263 98/120/264
f 93/116/265 99/121/266 100/122/267 95/117/268
f 101/123/269 102/124/270 103/125/271 104/126/272
f 102/124/273 97/119/274 98/120/275 103/125/276
f 99/121/277 101/123/278 104/126/279 100/122/280
f 90/112/281 105/127/282 106/128/283 91/113/284
f 107/129/285 94/115/286 96/118/287 108/130/288
f 105/127/289 109/131/290 110/132/291 106/128/292
f 109/131/293 111/133/294 112/134/295 110/132/296
f 111/133/297 107/129/298 108/130/299 112/134/300
f 66/87/301 67/88/302 90/112/303 89/111/304
f 79/100/305 78/99/306 92/114/307 91/113/308
f 68/89/309 65/90/310 93/116/311 94/115/312
f 77/102/313 80/101/314 96/118/315 95/117/316
f 70/91/317 66/87/318 89/111/319 97/119/320
f 78/99/321 82/103/322 98/120/323 92/114/324
f 65/90/325 69/92/326 99/121/327 93/116/328
f 81/104/329 77/102/330 95/117/331 100/122/332
f 71/93/333 72/94/334 102/124/335 101/123/336
f 84/106/337 83/105/338 104/126/339 103/125/340
f 72/94/341 70/91/342 97/119/343 102/124/344
f 82/103/345 84/106/346 103/125/347 98/120/348
f 69/92/349 71/93/350 101/123/351 99/121/352
f 83/105/353 81/104/354 100/122/355 104/126/356
f 67/88/357 73/95/358 105/127/359 90/112/360
f 85/107/361 79/100/362 91/113/363 106/128/364
f 74/96/365 68/89/366 94/115/367 107/129/368
f 80/101/369 86/108/370 108/130/371 96/118/372
f 73/95/373 75/97/374 109/131/375 105/127/376
f 87/109/377 85/107/378 106/128/379 110/132/380
f 75/97/381 76/98/382 111/133/383 109/131/384
f 88/110/385 87/109/386 110/132/387 112/134/388
f 76/98/389 74/96/390 107/129/391 111/133/392
f 86/108/393 88/110/394 112/134/395 108/130/396
