# This file uses meters as units for non-parametric coordinates.

g default
v 3556.434336 410.707431 -9054.724761
v 3556.434336 410.707431 -9114.998617
v 3556.434336 470.411444 -9054.724761
v 3556.434336 470.411444 -9114.998617
v 3388.858416 470.411444 -9054.724761
v 3388.858416 470.411444 -9114.998617
v 3388.858416 410.707431 -9054.724761
v 3388.858416 410.707431 -9114.998617
vt 0.375000 0.000000
vt 0.625000 0.000000
vt 0.375000 0.250000
vt 0.625000 0.250000
vt 0.375000 0.500000
vt 0.625000 0.500000
vt 0.375000 0.750000
vt 0.625000 0.750000
vt 0.375000 1.000000
vt 0.625000 1.000000
vt 0.875000 0.000000
vt 0.875000 0.250000
vt 0.125000 0.000000
vt 0.125000 0.250000
vn 1.000000 0.000000 0.000000
vn 1.000000 0.000000 0.000000
vn 1.000000 0.000000 0.000000
vn 1.000000 0.000000 0.000000
vn 0.000000 1.000000 0.000000
vn 0.000000 1.000000 0.000000
vn 0.000000 1.000000 0.000000
vn 0.000000 1.000000 0.000000
vn -1.000000 0.000000 -0.000000
vn -1.000000 0.000000 -0.000000
vn -1.000000 0.000000 -0.000000
vn -1.000000 0.000000 -0.000000
vn 0.000000 -1.000000 0.000000
vn 0.000000 -1.000000 0.000000
vn 0.000000 -1.000000 0.000000
vn 0.000000 -1.000000 0.000000
vn 0.000000 0.000000 -1.000000
vn 0.000000 0.000000 -1.000000
vn 0.000000 0.000000 -1.000000
vn 0.000000 0.000000 -1.000000
vn 0.000000 0.000000 1.000000
vn 0.000000 0.000000 1.000000
vn 0.000000 0.000000 1.000000
vn 0.000000 0.000000 1.000000
s off
g pCube56 group26
f 1/1/1 2/2/2 4/4/3 3/3/4
f 3/3/5 4/4/6 6/6/7 5/5/8
f 5/5/9 6/6/10 8/8/11 7/7/12
f 7/7/13 8/8/14 2/10/15 1/9/16
f 2/2/17 8/11/18 6/12/19 4/4/20
f 7/13/21 1/1/22 3/3/23 5/14/24
g default
v 3374.141470 401.435519 -9089.960803
v 3374.141470 403.054189 -9091.441186
v 3387.815275 401.435519 -9089.960803
v 3387.815275 403.054189 -9091.441186
v 3374.141470 401.435519 -9095.882810
v 3374.141470 403.054189 -9094.402449
v 3387.815275 401.435519 -9095.882810
v 3387.815275 403.054189 -9094.402449
v 3374.141470 396.578913 -9094.402449
v 3374.141470 398.197535 -9095.882810
v 3387.815275 396.578913 -9094.402449
v 3387.815275 398.197535 -9095.882810
v 3374.141470 398.197535 -9089.960803
v 3374.141470 396.578913 -9091.441186
v 3387.815275 398.197535 -9089.960803
v 3387.815275 396.578913 -9091.441186
v 3415.746465 398.197535 -9095.882810
v 3415.746465 398.197535 -9089.960803
v 3415.746465 396.578913 -9091.441186
v 3415.746465 396.578913 -9094.402449
v 3415.746465 401.435519 -9089.960803
v 3415.746465 403.054189 -9091.441186
v 3415.746465 401.435519 -9095.882810
v 3415.746465 403.054189 -9094.402449
v 3424.231673 398.197535 -9091.932260
v 3424.231651 398.197535 -9086.378548
v 3424.231651 396.578913 -9087.766852
v 3424.231670 396.578913 -9090.543956
v 3424.231651 401.435519 -9086.378548
v 3424.231651 403.054189 -9087.766852
v 3424.231673 401.435519 -9091.932260
v 3424.231670 403.054189 -9090.543956
v 3441.055620 398.197535 -9091.932260
v 3441.055595 398.197535 -9086.378548
v 3441.055595 396.578913 -9087.766852
v 3441.055620 396.578913 -9090.543956
v 3441.055595 401.435519 -9086.378548
v 3441.055595 403.054189 -9087.766852
v 3441.055620 401.435519 -9091.932260
v 3441.055620 403.054189 -9090.543956
v 3452.786382 399.385960 -9091.932260
v 3452.786382 399.385910 -9086.378548
v 3454.346770 398.075955 -9087.766852
v 3454.346770 398.075955 -9090.543956
v 3449.665050 400.754061 -9086.378548
v 3447.832071 402.926583 -9087.766852
v 3449.665050 400.754111 -9091.932260
v 3447.832071 402.926583 -9090.543956
v 3457.724816 413.717705 -9091.932260
v 3457.724816 413.717705 -9086.378548
v 3459.285204 413.717705 -9087.766852
v 3459.285204 413.717705 -9090.543956
v 3454.603484 413.717705 -9086.378548
v 3453.043145 413.717705 -9087.766852
v 3454.603484 413.717705 -9091.932260
v 3453.043145 413.717705 -9090.543956
v 3367.159619 394.853484 -9097.496315
v 3367.159619 394.853484 -9091.574309
v 3367.159619 396.472204 -9093.054692
v 3367.159619 396.472204 -9096.015955
v 3367.159619 391.615500 -9091.574309
v 3367.159619 389.996879 -9093.054692
v 3367.159619 391.615500 -9097.496315
v 3367.159619 389.996879 -9096.015955
v 3350.317353 382.719950 -9088.263998
v 3350.317353 382.719950 -9082.341991
v 3350.317353 384.338670 -9083.822374
v 3350.317353 384.338670 -9086.783637
v 3350.317353 379.481966 -9082.341991
v 3350.317353 377.863345 -9083.822374
v 3350.317353 379.481966 -9088.263998
v 3350.317353 377.863345 -9086.783637
v 3334.031631 363.272311 -9092.228008
v 3334.031631 363.272311 -9086.306001
v 3334.031631 364.890982 -9087.786384
v 3334.031631 364.890982 -9090.747647
v 3334.031631 360.034278 -9086.306001
v 3334.031631 358.415656 -9087.786384
v 3334.031631 360.034278 -9092.228008
v 3334.031631 358.415656 -9090.747647
v 3318.773689 363.272311 -9092.306815
v 3318.773689 363.272311 -9086.384809
v 3318.773689 364.890982 -9087.865192
v 3318.773689 364.890982 -9090.826455
v 3318.773689 360.034278 -9086.384809
v 3318.773689 358.415656 -9087.865192
v 3318.773689 360.034278 -9092.306815
v 3318.773689 358.415656 -9090.826455
v 3307.582012 363.272311 -9084.638298
v 3308.607884 363.272311 -9078.791108
v 3308.351449 364.890982 -9080.252749
v 3307.838460 364.890982 -9083.176611
v 3308.607884 360.034278 -9078.791108
v 3308.351449 358.415656 -9080.252749
v 3307.582012 360.034278 -9084.638298
v 3307.838460 358.415656 -9083.176611
v 3299.837798 363.272311 -9074.886186
v 3300.863676 363.272311 -9069.038994
v 3300.607234 364.890982 -9070.500635
v 3300.094246 364.890982 -9073.424499
v 3300.863676 360.034278 -9069.038994
v 3300.607234 358.415656 -9070.500635
v 3299.837798 360.034278 -9074.886186
v 3300.094246 358.415656 -9073.424499
vt 0.125000 0.062494
vt 0.187494 0.000000
vt 0.312507 0.250000
vt 0.187494 0.250000
vt 0.125000 0.187506
vt 0.687493 0.000000
vt 0.812506 0.000000
vt 0.875000 0.062494
vt 0.875000 0.187506
vt 0.812506 0.250000
vt 0.687493 0.250000
vt 0.375000 0.062494
vt 0.625000 0.187506
vt 0.375000 0.312493
vt 0.625000 0.437506
vt 0.375000 0.812494
vt 0.625000 0.937507
vt 0.375000 0.937507
vt 0.375000 0.562494
vt 0.625000 0.687506
vt 0.312507 0.000000
vt 0.625000 0.062494
vt 0.375000 0.187506
vt 0.625000 0.312493
vt 0.375000 0.437506
vt 0.625000 0.562494
vt 0.375000 0.687506
vt 0.625000 0.812494
vt 0.812506 0.000000
vt 0.875000 0.062494
vt 0.875000 0.187506
vt 0.812506 0.250000
vt 0.625000 0.062494
vt 0.687493 0.000000
vt 0.687493 0.250000
vt 0.625000 0.187506
vt 0.812506 0.000000
vt 0.875000 0.062494
vt 0.875000 0.187506
vt 0.812506 0.250000
vt 0.625000 0.062494
vt 0.687493 0.000000
vt 0.687493 0.250000
vt 0.625000 0.187506
vt 0.812506 0.000000
vt 0.875000 0.062494
vt 0.875000 0.187506
vt 0.812506 0.250000
vt 0.625000 0.062494
vt 0.687493 0.000000
vt 0.687493 0.250000
vt 0.625000 0.187506
vt 0.812506 0.000000
vt 0.875000 0.062494
vt 0.875000 0.187506
vt 0.812506 0.250000
vt 0.625000 0.062494
vt 0.687493 0.000000
vt 0.687493 0.250000
vt 0.625000 0.187506
vt 0.812506 0.000000
vt 0.875000 0.062494
vt 0.875000 0.187506
vt 0.812506 0.250000
vt 0.625000 0.062494
vt 0.687493 0.000000
vt 0.687493 0.250000
vt 0.625000 0.187506
vt 0.812506 0.000000
vt 0.687493 0.000000
vt 0.625000 0.062494
vt 0.625000 0.187506
vt 0.687493 0.250000
vt 0.812506 0.250000
vt 0.875000 0.187506
vt 0.875000 0.062494
vt 0.312507 0.000000
vt 0.375000 0.062494
vt 0.375000 0.187506
vt 0.312507 0.250000
vt 0.125000 0.062494
vt 0.187494 0.000000
vt 0.187494 0.250000
vt 0.125000 0.187506
vt 0.312507 0.000000
vt 0.375000 0.062494
vt 0.375000 0.187506
vt 0.312507 0.250000
vt 0.125000 0.062494
vt 0.187494 0.000000
vt 0.187494 0.250000
vt 0.125000 0.187506
vt 0.312507 0.000000
vt 0.375000 0.062494
vt 0.375000 0.187506
vt 0.312507 0.250000
vt 0.125000 0.062494
vt 0.187494 0.000000
vt 0.187494 0.250000
vt 0.125000 0.187506
vt 0.312507 0.000000
vt 0.375000 0.062494
vt 0.375000 0.187506
vt 0.312507 0.250000
vt 0.125000 0.062494
vt 0.187494 0.000000
vt 0.187494 0.250000
vt 0.125000 0.187506
vt 0.312507 0.000000
vt 0.375000 0.062494
vt 0.375000 0.187506
vt 0.312507 0.250000
vt 0.125000 0.062494
vt 0.187494 0.000000
vt 0.187494 0.250000
vt 0.125000 0.187506
vt 0.312507 0.000000
vt 0.375000 0.062494
vt 0.375000 0.187506
vt 0.312507 0.250000
vt 0.125000 0.062494
vt 0.187494 0.000000
vt 0.187494 0.250000
vt 0.125000 0.187506
vn -0.278643 0.905116 0.321128
vn 0.000000 0.939554 0.342402
vn 0.000000 0.939553 -0.342403
vn -0.264988 0.918363 -0.293922
vn -0.072597 0.345647 -0.935552
vn 0.000000 0.291567 -0.956550
vn 0.000000 -0.291570 -0.956550
vn 0.152082 -0.249078 -0.956468
vn 0.337383 -0.881976 -0.329077
vn 0.000000 -0.939556 -0.342394
vn 0.000000 -0.939557 0.342393
vn 0.260880 -0.894145 0.363932
vn -0.031991 -0.240079 0.970226
vn 0.000000 -0.291574 0.956548
vn 0.000000 0.291571 0.956549
vn -0.180032 0.330728 0.926395
vn 0.331567 0.176772 -0.926723
vn 0.331567 0.176772 0.926723
vn 0.926143 -0.149850 0.346128
vn 0.926142 -0.149850 -0.346130
vn -0.872371 0.213956 -0.439535
vn 0.454156 0.213384 0.864991
vn 0.268732 0.834830 0.480461
vn -0.383095 0.916205 -0.117504
vn -0.742595 0.486725 0.460056
vn -0.164829 0.317313 0.933886
vn -0.164830 0.317314 -0.933886
vn -0.742595 0.486726 -0.460054
vn 0.268726 -0.834837 0.480451
vn 0.454155 -0.213385 0.864991
vn -0.872371 -0.213959 -0.439534
vn -0.383087 -0.916209 -0.117500
vn -0.027078 -0.946181 0.322503
vn -0.098451 -0.295668 0.950204
vn 0.045327 -0.928786 -0.367834
vn 0.097687 -0.279860 -0.955058
vn -0.098451 0.295665 0.950205
vn -0.027079 0.946178 0.322512
vn 0.045328 0.928782 -0.367844
vn 0.097687 0.279858 -0.955059
vn -0.062818 -0.917880 0.391856
vn -0.130082 -0.264169 0.955664
vn 0.043062 -0.944851 -0.324656
vn 0.153405 -0.285808 -0.945928
vn -0.130082 0.264167 0.955664
vn -0.062819 0.917875 0.391866
vn 0.043064 0.944848 -0.324665
vn 0.153406 0.285805 -0.945929
vn 0.044972 -0.937128 0.346076
vn 0.014891 -0.316992 0.948311
vn 0.044973 -0.937127 -0.346078
vn 0.014892 -0.316992 -0.948311
vn 0.004697 0.277782 0.960633
vn 0.008457 0.923477 0.383560
vn 0.008457 0.923478 -0.383559
vn 0.004697 0.277782 -0.960633
vn 0.657882 -0.673706 0.336618
vn 0.231933 -0.272996 0.933638
vn 0.657881 -0.673707 -0.336619
vn 0.231933 -0.272994 -0.933639
vn -0.097964 0.095121 0.990634
vn -0.539611 0.624120 0.565062
vn -0.539612 0.624122 -0.565058
vn -0.097965 0.095122 -0.990633
vn -0.588412 0.784632 0.195254
vn -0.018543 0.356061 0.934279
vn -0.639760 0.699161 -0.319188
vn -0.419384 0.267904 -0.867378
vn 0.510809 -0.248189 0.823090
vn 0.650327 -0.728977 0.213698
vn 0.458607 -0.795794 -0.395463
vn -0.176500 -0.216982 -0.960087
vn -0.592331 0.735480 0.328957
vn -0.077358 0.286881 0.954838
vn -0.693745 0.694841 -0.189509
vn -0.496429 0.296628 -0.815825
vn 0.269453 -0.229210 0.935338
vn 0.680557 -0.663371 0.311095
vn 0.680825 -0.702282 -0.208032
vn 0.163364 -0.290758 -0.942747
vn -0.555893 0.775957 0.298118
vn -0.247698 0.216562 0.944323
vn -0.466274 0.812303 -0.350360
vn 0.045923 0.205894 -0.977496
vn 0.174988 -0.383036 0.907008
vn 0.476952 -0.843759 0.246146
vn 0.494076 -0.822872 -0.280659
vn 0.337992 -0.353259 -0.872335
vn 0.064942 0.959170 0.275275
vn 0.283446 0.307275 0.908428
vn -0.131116 0.908521 -0.396734
vn -0.252297 0.264280 -0.930861
vn 0.283445 -0.307279 0.908427
vn 0.064939 -0.959172 0.275267
vn -0.131113 -0.908526 -0.396724
vn -0.252296 -0.264282 -0.930861
vn 0.254872 0.923580 0.286428
vn 0.682630 0.242692 0.689288
vn -0.308518 0.899865 -0.308317
vn -0.648415 0.238549 -0.722947
vn 0.682629 -0.242694 0.689287
vn 0.254864 -0.923584 0.286420
vn -0.308511 -0.899870 -0.308310
vn -0.648415 -0.238551 -0.722947
s 1
g group26 pasted__pCube11
f 10/26/25 12/36/26 16/27/27 14/37/28
f 13/28/29 15/38/30 20/29/31 18/39/32
f 17/33/33 19/40/34 24/34/35 22/41/36
f 21/30/37 23/42/38 11/31/39 9/32/40
f 57/78/41 58/75/42 59/76/43 60/77/44
f 105/134/45 106/131/46 107/132/47 108/133/48
f 10/26/25 9/35/40 11/20/39 12/36/26
f 13/28/29 14/37/28 16/27/27 15/38/30
f 17/33/33 18/39/32 20/29/31 19/40/34
f 21/30/37 22/41/36 24/34/35 23/42/38
f 62/79/49 61/80/50 63/81/51 64/82/52
f 63/81/51 61/80/50 58/75/42 57/78/41
f 110/135/53 109/136/54 111/137/55 112/138/56
f 111/137/55 109/136/54 106/131/46 105/134/45
f 23/21/38 24/22/35 27/44/57 26/43/58
f 24/22/35 19/23/34 28/45/59 27/44/57
f 19/23/34 20/24/31 25/46/60 28/45/59
f 12/36/26 11/20/39 29/48/61 30/47/62
f 15/25/30 16/27/27 32/50/63 31/49/64
f 16/27/27 12/36/26 30/47/62 32/50/63
f 11/20/39 23/21/38 26/43/58 29/48/61
f 20/24/31 15/25/30 31/49/64 25/46/60
f 26/43/58 27/44/57 35/52/65 34/51/66
f 27/44/57 28/45/59 36/53/67 35/52/65
f 28/45/59 25/46/60 33/54/68 36/53/67
f 30/47/62 29/48/61 37/56/69 38/55/70
f 31/49/64 32/50/63 40/58/71 39/57/72
f 32/50/63 30/47/62 38/55/70 40/58/71
f 29/48/61 26/43/58 34/51/66 37/56/69
f 25/46/60 31/49/64 39/57/72 33/54/68
f 34/51/66 35/52/65 43/60/73 42/59/74
f 35/52/65 36/53/67 44/61/75 43/60/73
f 36/53/67 33/54/68 41/62/76 44/61/75
f 38/55/70 37/56/69 45/64/77 46/63/78
f 39/57/72 40/58/71 48/66/79 47/65/80
f 40/58/71 38/55/70 46/63/78 48/66/79
f 37/56/69 34/51/66 42/59/74 45/64/77
f 33/54/68 39/57/72 47/65/80 41/62/76
f 42/59/74 43/60/73 51/68/81 50/67/82
f 43/60/73 44/61/75 52/69/83 51/68/81
f 44/61/75 41/62/76 49/70/84 52/69/83
f 46/63/78 45/64/77 53/72/85 54/71/86
f 47/65/80 48/66/79 56/74/87 55/73/88
f 48/66/79 46/63/78 54/71/86 56/74/87
f 45/64/77 42/59/74 50/67/82 53/72/85
f 41/62/76 47/65/80 55/73/88 49/70/84
f 50/67/82 51/68/81 59/76/43 58/75/42
f 51/68/81 52/69/83 60/77/44 59/76/43
f 52/69/83 49/70/84 57/78/41 60/77/44
f 54/71/86 53/72/85 61/80/50 62/79/49
f 55/73/88 56/74/87 64/82/52 63/81/51
f 56/74/87 54/71/86 62/79/49 64/82/52
f 53/72/85 50/67/82 58/75/42 61/80/50
f 49/70/84 55/73/88 63/81/51 57/78/41
f 9/35/40 10/26/25 67/92/89 66/91/90
f 10/26/25 14/37/28 68/93/91 67/92/89
f 14/37/28 13/17/29 65/94/92 68/93/91
f 22/15/36 21/16/37 69/96/93 70/95/94
f 18/18/32 17/19/33 72/98/95 71/97/96
f 17/19/33 22/15/36 70/95/94 72/98/95
f 21/16/37 9/35/40 66/91/90 69/96/93
f 13/17/29 18/18/32 71/97/96 65/94/92
f 66/91/90 67/92/89 75/100/97 74/99/98
f 67/92/89 68/93/91 76/101/99 75/100/97
f 68/93/91 65/94/92 73/102/100 76/101/99
f 70/95/94 69/96/93 77/104/101 78/103/102
f 71/97/96 72/98/95 80/106/103 79/105/104
f 72/98/95 70/95/94 78/103/102 80/106/103
f 69/96/93 66/91/90 74/99/98 77/104/101
f 65/94/92 71/97/96 79/105/104 73/102/100
f 74/99/98 75/100/97 83/108/105 82/107/106
f 75/100/97 76/101/99 84/109/107 83/108/105
f 76/101/99 73/102/100 81/110/108 84/109/107
f 78/103/102 77/104/101 85/112/109 86/111/110
f 79/105/104 80/106/103 88/114/111 87/113/112
f 80/106/103 78/103/102 86/111/110 88/114/111
f 77/104/101 74/99/98 82/107/106 85/112/109
f 73/102/100 79/105/104 87/113/112 81/110/108
f 82/107/106 83/108/105 91/116/113 90/115/114
f 83/108/105 84/109/107 92/117/115 91/116/113
f 84/109/107 81/110/108 89/118/116 92/117/115
f 86/111/110 85/112/109 93/120/117 94/119/118
f 87/113/112 88/114/111 96/122/119 95/121/120
f 88/114/111 86/111/110 94/119/118 96/122/119
f 85/112/109 82/107/106 90/115/114 93/120/117
f 81/110/108 87/113/112 95/121/120 89/118/116
f 90/115/114 91/116/113 99/124/121 98/123/122
f 91/116/113 92/117/115 100/125/123 99/124/121
f 92/117/115 89/118/116 97/126/124 100/125/123
f 94/119/118 93/120/117 101/128/125 102/127/126
f 95/121/120 96/122/119 104/130/127 103/129/128
f 96/122/119 94/119/118 102/127/126 104/130/127
f 93/120/117 90/115/114 98/123/122 101/128/125
f 89/118/116 95/121/120 103/129/128 97/126/124
f 98/123/122 99/124/121 107/132/47 106/131/46
f 99/124/121 100/125/123 108/133/48 107/132/47
f 100/125/123 97/126/124 105/134/45 108/133/48
f 102/127/126 101/128/125 109/136/54 110/135/53
f 103/129/128 104/130/127 112/138/56 111/137/55
f 104/130/127 102/127/126 110/135/53 112/138/56
f 101/128/125 98/123/122 106/131/46 109/136/54
f 97/126/124 103/129/128 111/137/55 105/134/45
