# This file uses meters as units for non-parametric coordinates.

g default
v 2185.998384 631.227323 -5007.869943
v 2223.841685 631.227323 -5007.869943
v 2185.998384 790.367361 -5007.869943
v 2223.841685 790.367361 -5007.869943
v 2185.998384 790.367361 -5412.780078
v 2223.841685 790.367361 -5412.780078
v 2185.998384 631.227323 -5412.780078
v 2223.841685 631.227323 -5412.780078
vt 0.375000 0.000000
vt 0.625000 0.000000
vt 0.375000 0.250000
vt 0.625000 0.250000
vt 0.375000 0.500000
vt 0.625000 0.500000
vt 0.375000 0.750000
vt 0.625000 0.750000
vt 0.375000 1.000000
vt 0.625000 1.000000
vt 0.875000 0.000000
vt 0.875000 0.250000
vn 0.000000 0.000000 1.000000
vn 0.000000 0.000000 1.000000
vn 0.000000 0.000000 1.000000
vn 0.000000 0.000000 1.000000
vn 0.000000 1.000000 0.000000
vn 0.000000 1.000000 0.000000
vn 0.000000 1.000000 0.000000
vn 0.000000 1.000000 0.000000
vn 0.000000 0.000000 -1.000000
vn 0.000000 0.000000 -1.000000
vn 0.000000 0.000000 -1.000000
vn 0.000000 0.000000 -1.000000
vn 0.000000 -1.000000 0.000000
vn 0.000000 -1.000000 0.000000
vn 0.000000 -1.000000 0.000000
vn 0.000000 -1.000000 0.000000
vn 1.000000 0.000000 0.000000
vn 1.000000 0.000000 0.000000
vn 1.000000 0.000000 0.000000
vn 1.000000 0.000000 0.000000
vn -1.000000 0.000000 0.000000
vn -1.000000 0.000000 0.000000
vn -1.000000 0.000000 0.000000
vn -1.000000 0.000000 0.000000
s off
g pasted__pasted___pCube31 house21
f 1/1/1 2/2/2 4/4/3 3/3/4
f 5/5/5 3/3/6 4/4/7 6/6/8
f 5/5/9 6/6/10 8/8/11 7/7/12
f 2/10/13 1/9/14 7/7/15 8/8/16
f 4/4/17 2/2/18 8/11/19 6/12/20
f 1/1/21 3/3/22 5/5/23 7/7/24
