# This file uses meters as units for non-parametric coordinates.

g default
v 3649.686890 235.573469 -5783.647746
v 3676.027327 235.573469 -5783.647746
v 3649.686890 344.797359 -5783.647746
v 3676.027327 344.797359 -5783.647746
v 3649.686890 344.797359 -6174.309939
v 3676.027327 344.797359 -6174.309939
v 3649.686890 235.573469 -6174.309939
v 3676.027327 235.573469 -6174.309939
v 3649.686890 344.797359 -6155.649203
v 3649.686890 235.573469 -6155.649203
v 3676.027327 235.573469 -6155.649203
v 3676.027327 344.797359 -6155.649203
v 3649.686890 344.797359 -5801.655978
v 3649.686890 235.573469 -5801.655978
v 3676.027327 235.573469 -5801.655978
v 3676.027327 344.797359 -5801.655978
v 3649.686890 313.023601 -6155.649203
v 3649.686890 313.023601 -5801.655978
v 3649.686890 313.023601 -5783.647746
v 3676.027327 313.023601 -5783.647746
v 3676.027327 313.023601 -5801.655978
v 3676.027327 313.023601 -6155.649203
v 3676.027327 313.023601 -6174.309939
v 3649.686890 313.023601 -6174.309939
v 3649.686890 289.190756 -6155.649203
v 3649.686890 289.190756 -5801.655978
v 3649.686890 289.190756 -5783.647746
v 3676.027327 289.190756 -5783.647746
v 3676.027327 289.190756 -5801.655978
v 3676.027327 289.190756 -6155.649203
v 3676.027327 289.190756 -6174.309939
v 3649.686890 289.190756 -6174.309939
v 3611.933308 289.190756 -5801.655978
v 3611.933308 289.190756 -5783.647746
v 3611.933308 313.023601 -5783.647746
v 3611.933308 313.023601 -5801.655978
v 3611.933308 289.190756 -6174.309939
v 3611.933308 289.190756 -6155.649203
v 3611.933308 313.023601 -6155.649203
v 3611.933308 313.023601 -6174.309939
vt 0.375000 0.000000
vt 0.625000 0.000000
vt 0.375000 0.250000
vt 0.625000 0.250000
vt 0.375000 0.500000
vt 0.625000 0.500000
vt 0.375000 0.750000
vt 0.625000 0.750000
vt 0.375000 1.000000
vt 0.625000 1.000000
vt 0.875000 0.000000
vt 0.875000 0.250000
vt 0.125000 0.000000
vt 0.125000 0.250000
vt 0.136941 0.250000
vt 0.375000 0.488059
vt 0.136941 0.000000
vt 0.375000 0.761941
vt 0.625000 0.761941
vt 0.863059 0.000000
vt 0.625000 0.488059
vt 0.863059 0.250000
vt 0.363476 0.250000
vt 0.375000 0.261524
vt 0.363476 0.000000
vt 0.375000 0.988476
vt 0.625000 0.988476
vt 0.636524 0.000000
vt 0.625000 0.261524
vt 0.636524 0.250000
vt 0.136941 0.195152
vt 0.363476 0.195152
vt 0.375000 0.195152
vt 0.625000 0.195152
vt 0.636524 0.195152
vt 0.863059 0.195152
vt 0.625000 0.554848
vt 0.875000 0.195152
vt 0.125000 0.195152
vt 0.375000 0.554848
vt 0.136941 0.135100
vt 0.363476 0.135100
vt 0.375000 0.135100
vt 0.625000 0.135100
vt 0.636524 0.135100
vt 0.863059 0.135100
vt 0.625000 0.614900
vt 0.875000 0.135100
vt 0.125000 0.135100
vt 0.375000 0.614900
vt 0.363476 0.135100
vt 0.375000 0.135100
vt 0.375000 0.195152
vt 0.363476 0.195152
vt 0.125000 0.135100
vt 0.136941 0.135100
vt 0.136941 0.195152
vt 0.125000 0.195152
vn 0.000000 0.000000 1.000000
vn 0.000000 0.000000 1.000000
vn 0.000000 0.000000 1.000000
vn 0.000000 0.000000 1.000000
vn 0.000000 1.000000 0.000000
vn 0.000000 1.000000 0.000000
vn 0.000000 1.000000 0.000000
vn 0.000000 1.000000 0.000000
vn 0.000000 0.000000 -1.000000
vn 0.000000 0.000000 -1.000000
vn 0.000000 0.000000 -1.000000
vn 0.000000 0.000000 -1.000000
vn 0.000000 -1.000000 0.000000
vn 0.000000 -1.000000 0.000000
vn 0.000000 -1.000000 0.000000
vn 0.000000 -1.000000 0.000000
vn 1.000000 0.000000 0.000000
vn 1.000000 0.000000 0.000000
vn 1.000000 0.000000 0.000000
vn 1.000000 0.000000 0.000000
vn -1.000000 0.000000 0.000000
vn -1.000000 0.000000 0.000000
vn -1.000000 0.000000 0.000000
vn -1.000000 0.000000 0.000000
vn -1.000000 0.000000 0.000000
vn -1.000000 0.000000 0.000000
vn -1.000000 0.000000 0.000000
vn -1.000000 0.000000 0.000000
vn 0.000000 -1.000000 0.000000
vn 0.000000 -1.000000 0.000000
vn 0.000000 -1.000000 0.000000
vn 0.000000 -1.000000 0.000000
vn 1.000000 0.000000 0.000000
vn 1.000000 0.000000 0.000000
vn 1.000000 0.000000 0.000000
vn 1.000000 0.000000 0.000000
vn 0.000000 1.000000 0.000000
vn 0.000000 1.000000 0.000000
vn 0.000000 1.000000 0.000000
vn 0.000000 1.000000 0.000000
vn -1.000000 0.000000 0.000000
vn -1.000000 0.000000 0.000000
vn -1.000000 0.000000 0.000000
vn -1.000000 0.000000 0.000000
vn -1.000000 0.000000 0.000000
vn -1.000000 0.000000 0.000000
vn 0.000000 0.000000 1.000000
vn 0.000000 0.000000 1.000000
vn 1.000000 0.000000 0.000000
vn 1.000000 0.000000 0.000000
vn 1.000000 0.000000 0.000000
vn 1.000000 0.000000 0.000000
vn 0.000000 0.000000 -1.000000
vn 0.000000 0.000000 -1.000000
vn -1.000000 0.000000 0.000000
vn -1.000000 0.000000 0.000000
vn -1.000000 0.000000 0.000000
vn -1.000000 0.000000 0.000000
vn -1.000000 0.000000 0.000000
vn -1.000000 0.000000 0.000000
vn -1.000000 0.000000 0.000000
vn -1.000000 0.000000 0.000000
vn 0.000000 0.000000 1.000000
vn 0.000000 0.000000 1.000000
vn 1.000000 0.000000 0.000000
vn 1.000000 0.000000 0.000000
vn 1.000000 0.000000 0.000000
vn 1.000000 0.000000 0.000000
vn 0.000000 0.000000 -1.000000
vn 0.000000 0.000000 -1.000000
vn -1.000000 0.000000 0.000000
vn -1.000000 0.000000 0.000000
vn 0.000000 -1.000000 0.000000
vn 0.000000 -1.000000 0.000000
vn 0.000000 -1.000000 0.000000
vn 0.000000 -1.000000 0.000000
vn 0.000000 0.000000 1.000000
vn 0.000000 0.000000 1.000000
vn 0.000000 0.000000 1.000000
vn 0.000000 0.000000 1.000000
vn 0.000000 1.000000 0.000000
vn 0.000000 1.000000 0.000000
vn 0.000000 1.000000 0.000000
vn 0.000000 1.000000 0.000000
vn 0.000000 0.000000 -1.000000
vn 0.000000 0.000000 -1.000000
vn 0.000000 0.000000 -1.000000
vn 0.000000 0.000000 -1.000000
vn 0.000000 -1.000000 0.000000
vn 0.000000 -1.000000 0.000000
vn 0.000000 -1.000000 0.000000
vn 0.000000 -1.000000 0.000000
vn 0.000000 0.000000 1.000000
vn 0.000000 0.000000 1.000000
vn 0.000000 0.000000 1.000000
vn 0.000000 0.000000 1.000000
vn 0.000000 1.000000 0.000000
vn 0.000000 1.000000 0.000000
vn 0.000000 1.000000 0.000000
vn 0.000000 1.000000 0.000000
vn 0.000000 0.000000 -1.000000
vn 0.000000 0.000000 -1.000000
vn 0.000000 0.000000 -1.000000
vn 0.000000 0.000000 -1.000000
s 1
g pasted___pCube2 house22
f 19/33/1 20/34/2 4/4/3 3/3/4
s 2
f 3/3/5 4/4/6 16/29/7 13/24/8
s 3
f 5/5/9 6/6/10 23/37/11 24/40/12
s 4
f 14/26/13 15/27/14 2/10/15 1/9/16
s 5
f 20/34/17 21/35/18 16/30/19 4/4/20
s 6
f 18/32/21 19/33/22 3/3/23 13/23/24
f 24/39/25 17/31/26 9/15/27 5/14/28
s 4
f 7/7/29 8/8/30 11/19/31 10/18/32
s 5
f 12/22/33 22/36/34 23/38/35 6/12/36
s 2
f 9/16/37 12/21/38 6/6/39 5/5/40
s 6
f 17/31/26 18/32/21 13/23/24 9/15/27
s 4
f 10/18/32 11/19/31 15/27/14 14/26/13
s 5
f 16/30/19 21/35/18 22/36/34 12/22/33
s 2
f 13/24/8 16/29/7 12/21/38 9/16/37
s 6
f 25/41/41 26/42/42 18/32/21 17/31/26
s off
f 33/51/43 34/52/44 35/53/45 36/54/46
s 1
f 27/43/47 28/44/48 20/34/2 19/33/1
s 5
f 28/44/49 29/45/50 21/35/18 20/34/17
f 22/36/34 21/35/18 29/45/50 30/46/51
f 23/38/35 22/36/34 30/46/51 31/48/52
s 3
f 24/40/12 23/37/11 31/47/53 32/50/54
s off
f 37/55/55 38/56/56 39/57/57 40/58/58
s 6
f 10/17/59 14/25/60 26/42/42 25/41/41
f 14/25/60 1/1/61 27/43/62 26/42/42
s 1
f 1/1/63 2/2/64 28/44/48 27/43/47
s 5
f 2/2/65 15/28/66 29/45/50 28/44/49
f 30/46/51 29/45/50 15/28/66 11/20/67
f 31/48/52 30/46/51 11/20/67 8/11/68
s 3
f 32/50/54 31/47/53 8/8/69 7/7/70
s 6
f 7/13/71 10/17/59 25/41/41 32/49/72
s off
f 26/42/73 27/43/74 34/52/75 33/51/76
f 27/43/77 19/33/78 35/53/79 34/52/80
f 19/33/81 18/32/82 36/54/83 35/53/84
f 18/32/85 26/42/86 33/51/87 36/54/88
f 32/49/89 25/41/90 38/56/91 37/55/92
f 25/41/93 17/31/94 39/57/95 38/56/96
f 17/31/97 24/39/98 40/58/99 39/57/100
f 24/39/101 32/49/102 37/55/103 40/58/104
