# This file uses meters as units for non-parametric coordinates.

g default
v 3468.497125 458.859096 -5750.125140
v 3627.105776 458.859096 -5750.125140
v 3468.497125 468.728863 -5750.125140
v 3627.105776 468.728863 -5750.125140
v 3468.497125 468.728863 -6197.492999
v 3627.105776 468.728863 -6197.492999
v 3468.497125 458.859096 -6197.492999
v 3627.105776 458.859096 -6197.492999
v 3468.497197 468.728863 -5764.649409
v 3468.497197 468.728863 -6182.933062
v 3627.105776 468.728863 -5764.649409
v 3627.105776 458.859096 -5764.649409
v 3468.497125 458.859096 -5764.649409
v 3627.105776 468.728863 -6182.933062
v 3627.105776 458.859096 -6182.933062
v 3468.497125 458.859096 -6182.933062
v 3616.073863 468.728863 -5764.649409
v 3616.073863 468.728863 -6182.933062
v 3618.643919 468.728863 -6197.492999
v 3618.643919 458.859096 -6197.492999
v 3616.073863 458.859096 -6182.933062
v 3616.073863 458.859096 -5764.649409
v 3616.073719 458.859096 -5750.125140
v 3616.073719 468.728863 -5750.125140
v 3463.581983 382.189356 -5750.125140
v 3627.105776 382.189356 -5750.125140
v 3463.581983 392.059170 -5750.125140
v 3627.105776 392.059170 -5750.125140
v 3463.581983 392.059170 -6197.492999
v 3627.105776 392.059170 -6197.492999
v 3463.581983 382.189356 -6197.492999
v 3627.105776 382.189356 -6197.492999
v 3627.105776 392.059170 -6182.933444
v 3463.581983 392.059170 -6182.933444
v 3463.581983 382.189356 -6182.933444
v 3627.105776 382.189356 -6182.933444
v 3627.105776 392.059170 -5764.648837
v 3463.581983 392.059170 -5764.648837
v 3463.581983 382.189356 -5764.648837
v 3627.105776 382.189356 -5764.648837
v 3616.073576 392.059170 -5750.125140
v 3616.073719 392.059170 -5764.648837
v 3616.073719 392.059170 -6182.933444
v 3618.643729 392.059170 -6197.492999
v 3618.643729 382.189356 -6197.492999
v 3616.073719 382.189356 -6182.933444
v 3616.073719 382.189356 -5764.648837
v 3616.073576 382.189356 -5750.125140
v 3415.099732 468.728863 -5750.125140
v 3415.099827 468.728863 -5764.649409
v 3415.099732 458.859096 -5764.649409
v 3415.099732 458.859096 -5750.125140
v 3410.184590 382.189356 -5764.648837
v 3410.184590 382.189356 -5750.125140
v 3410.184590 392.059170 -5750.125140
v 3410.184590 392.059170 -5764.648837
vt 0.375000 0.000000
vt 0.625000 0.000000
vt 0.375000 0.250000
vt 0.625000 0.250000
vt 0.375000 0.500000
vt 0.625000 0.500000
vt 0.375000 0.750000
vt 0.750000 0.375000
vt 0.375000 1.000000
vt 0.875000 0.250000
vt 0.375000 0.250000
vt 0.375000 0.500000
vt 0.625000 0.255718
vt 0.630718 0.250000
vt 0.628267 0.496733
vt 0.375000 0.508245
vt 0.625000 0.493862
vt 0.868862 0.250000
vt 0.746553 0.378447
vt 0.375000 0.741672
vt 0.595910 0.255052
vt 0.595910 0.494577
vt 0.595910 0.500000
vt 0.595910 0.750000
vt 0.595910 0.757060
vt 0.595910 0.993266
vt 0.595910 0.500000
vt 0.595910 0.250000
vt 0.375000 0.000000
vt 0.565696 0.000000
vt 0.565696 0.250000
vt 0.375000 0.250000
vt 0.565696 0.256217
vt 0.375000 0.256217
vt 0.375000 0.500000
vt 0.565696 0.500000
vt 0.565696 0.750000
vt 0.375000 0.750000
vt 0.375000 0.993783
vt 0.565696 0.993783
vt 0.565696 1.000000
vt 0.375000 1.000000
vt 0.625000 0.000000
vt 0.631217 0.000000
vt 0.628108 0.253108
vt 0.625000 0.250000
vt 0.368783 0.000000
vt 0.368783 0.250000
vt 0.375000 0.492179
vt 0.565696 0.492179
vt 0.125000 0.000000
vt 0.132821 0.000000
vt 0.132821 0.250000
vt 0.125000 0.250000
vt 0.565696 0.757821
vt 0.375000 0.757821
vt 0.746090 0.371090
vt 0.867179 0.000000
vt 0.875000 0.000000
vt 0.750000 0.375000
vt 0.625000 0.750000
vt 0.625000 0.757821
vt 0.625000 0.993783
vt 0.625000 1.000000
vt 0.375000 0.250000
vt 0.375000 0.250000
vt 0.375000 0.508245
vt 0.375000 0.000000
vt 0.368783 0.000000
vt 0.375000 0.000000
vt 0.375000 0.250000
vt 0.368783 0.250000
vn 0.000000 0.000000 1.000000
vn 0.000000 0.000000 1.000000
vn 0.000000 0.000000 1.000000
vn 0.000000 0.000000 1.000000
vn 0.000000 0.000000 -1.000000
vn 0.000000 0.000000 -1.000000
vn 0.000000 0.000000 -1.000000
vn 0.000000 0.000000 -1.000000
vn 0.000000 -1.000000 0.000000
vn 0.000000 -1.000000 0.000000
vn 0.000000 -1.000000 0.000000
vn 0.000000 -1.000000 0.000000
vn 1.000000 0.000000 0.000000
vn 1.000000 0.000000 0.000000
vn 1.000000 0.000000 0.000000
vn 1.000000 0.000000 0.000000
vn 0.000000 1.000000 0.000002
vn 0.000000 1.000000 0.000001
vn 0.000000 1.000000 0.000002
vn 0.000000 1.000000 0.000002
vn -1.000000 0.000004 0.000002
vn -1.000000 0.000004 0.000002
vn -1.000000 0.000004 0.000002
vn -1.000000 0.000004 0.000002
vn 0.000000 1.000000 0.000000
vn 0.000000 1.000000 0.000000
vn 0.000000 1.000000 0.000000
vn 0.000000 1.000000 0.000000
vn 1.000000 0.000000 0.000000
vn 1.000000 0.000000 0.000000
vn 1.000000 0.000000 0.000000
vn 1.000000 0.000000 0.000000
vn 0.000000 -1.000000 0.000000
vn 0.000000 -1.000000 0.000000
vn 0.000000 -1.000000 0.000000
vn 0.000000 -1.000000 0.000000
vn -1.000000 0.000004 -0.000003
vn -1.000000 0.000004 -0.000003
vn -1.000000 0.000004 -0.000003
vn -1.000000 0.000004 -0.000003
vn 0.000000 1.000000 0.000000
vn 0.000000 1.000000 0.000000
vn 0.000000 1.000000 0.000000
vn 0.000000 0.000000 -1.000000
vn 0.000000 0.000000 -1.000000
vn 0.000000 -1.000000 0.000000
vn 0.000000 -1.000000 0.000000
vn 0.000000 -1.000000 0.000000
vn 0.000000 -1.000000 0.000000
vn 0.000000 0.000000 1.000000
vn 0.000000 0.000000 1.000000
vn 0.000000 1.000000 0.000000
vn -1.000000 0.000000 0.000000
vn -1.000000 0.000000 0.000000
vn -1.000000 0.000000 0.000000
vn -1.000000 0.000000 0.000000
vn 0.000000 0.000000 -1.000000
vn 0.000000 0.000000 -1.000000
vn 0.000000 0.000000 -1.000000
vn 0.000000 0.000000 -1.000000
vn 0.000000 0.000000 1.000000
vn 0.000000 0.000000 1.000000
vn 0.000000 0.000000 1.000000
vn 0.000000 0.000000 1.000000
vn 0.000000 0.000000 1.000000
vn 0.000000 0.000000 1.000000
vn 0.000000 0.000000 1.000000
vn 0.000000 0.000000 1.000000
vn 0.000000 1.000000 0.000000
vn 0.000000 1.000000 0.000000
vn 0.000000 1.000000 0.000000
vn 0.000000 1.000000 0.000000
vn 0.000000 0.000000 -1.000000
vn 0.000000 0.000000 -1.000000
vn 0.000000 0.000000 -1.000000
vn 0.000000 0.000000 -1.000000
vn 0.000000 -1.000000 0.000000
vn 0.000000 -1.000000 0.000000
vn 0.000000 -1.000000 0.000004
vn 0.000000 -1.000000 0.000004
vn 1.000000 0.000000 0.000000
vn 1.000000 0.000000 0.000000
vn 1.000000 0.000000 0.000000
vn 1.000000 0.000000 0.000000
vn -1.000000 0.000000 0.000000
vn -1.000000 0.000000 0.000000
vn -1.000000 0.000000 0.000000
vn -1.000000 0.000000 0.000000
vn 0.000000 1.000000 0.000000
vn 0.000000 1.000000 0.000000
vn 0.000000 1.000000 0.000000
vn 0.000000 1.000000 0.000000
vn -1.000000 0.000000 0.000000
vn -1.000000 0.000000 0.000000
vn -1.000000 0.000000 0.000000
vn -1.000000 0.000000 0.000000
vn 0.000000 -1.000000 -0.000004
vn 0.000000 -1.000000 -0.000004
vn 0.000000 -1.000000 -0.000000
vn 0.000000 -1.000000 -0.000000
vn 1.000000 0.000000 0.000000
vn 1.000000 0.000000 0.000000
vn 1.000000 0.000000 0.000000
vn 1.000000 0.000000 0.000000
vn -1.000000 0.000000 0.000000
vn -1.000000 0.000000 0.000000
vn 0.000000 1.000000 0.000000
vn 0.000000 1.000000 0.000000
vn 0.000000 0.000000 -1.000000
vn 0.000000 0.000000 -1.000000
vn 0.000000 -1.000000 0.000000
vn 0.000000 -1.000000 0.000000
vn 0.000000 -1.000000 0.000000
vn 0.000000 -1.000000 0.000000
vn 0.000000 0.000000 1.000000
vn 0.000000 0.000000 1.000000
vn 1.000000 0.000000 0.000000
vn 1.000000 0.000000 0.000000
vn 1.000000 0.000000 0.000000
vn 1.000000 0.000000 0.000000
vn 0.000000 0.000000 -1.000000
vn 0.000000 0.000000 -1.000000
vn 0.000000 0.000000 -1.000000
vn 0.000000 0.000000 -1.000000
vn -0.984776 0.000003 -0.173828
vn -0.984776 0.000003 -0.173828
vn -0.984776 0.000003 -0.173828
vn -0.984776 0.000003 -0.173828
vn 0.000000 -0.000006 1.000000
vn 0.000000 -0.000006 1.000000
vn 0.000000 -0.000006 1.000000
vn 0.000000 -0.000006 1.000000
vn 0.000000 -0.000009 -1.000000
vn 0.000000 -0.000009 -1.000000
vn 0.000000 -0.000009 -1.000000
vn 0.000000 -0.000009 -1.000000
vn 1.000000 -0.000000 0.000000
vn 1.000000 -0.000000 0.000000
vn 1.000000 -0.000000 0.000000
vn 1.000000 -0.000000 0.000000
vn 0.000000 0.000000 1.000000
vn 0.000000 0.000000 1.000000
vn 0.000000 0.000000 1.000000
vn 0.000000 0.000000 1.000000
vn -1.000000 0.000002 -0.000010
vn -1.000000 0.000002 -0.000010
vn -1.000000 0.000002 -0.000010
vn -1.000000 0.000002 -0.000010
vn 0.000000 1.000000 0.000003
vn 0.000000 1.000000 0.000003
vn 0.000000 1.000000 0.000003
vn 0.000000 1.000000 0.000003
vn 0.000000 0.000000 -1.000000
vn 0.000000 0.000000 -1.000000
vn 0.000000 0.000000 -1.000000
vn 0.000000 0.000000 -1.000000
vn 0.000000 -1.000000 0.000000
vn 0.000000 -1.000000 0.000000
vn 0.000000 -1.000000 0.000000
vn 0.000000 -1.000000 0.000000
vn 0.000000 0.000000 1.000000
vn 0.000000 0.000000 1.000000
vn 0.000000 0.000000 1.000000
vn 0.000000 0.000000 1.000000
vn 0.000000 -1.000000 0.000000
vn 0.000000 -1.000000 0.000000
vn 0.000000 -1.000000 0.000000
vn 0.000000 -1.000000 0.000000
vn 0.000000 0.000000 1.000000
vn 0.000000 0.000000 1.000000
vn 0.000000 0.000000 1.000000
vn 0.000000 0.000000 1.000000
vn 0.000000 1.000000 0.000000
vn 0.000000 1.000000 0.000000
vn 0.000000 1.000000 0.000000
vn 0.000000 1.000000 0.000000
vn 0.000000 0.000000 -1.000000
vn 0.000000 0.000000 -1.000000
vn 0.000000 0.000000 -1.000000
vn 0.000000 0.000000 -1.000000
s 1
g pasted___pCube6 house22
f 1/1/1 23/27/2 24/28/3 3/3/4
s 2
f 5/5/5 19/23/6 20/24/7 7/7/8
s off
f 7/7/9 20/24/10 21/25/11 16/20/12
s 3
f 14/18/13 15/19/14 8/8/15 6/10/16
s 4
f 10/12/17 18/22/18 19/23/19 5/5/20
s off
f 16/20/21 10/12/22 5/5/23 7/7/24
s 4
f 9/11/25 3/3/26 24/28/27 17/21/28
s 3
f 2/2/29 12/15/30 11/14/31 4/4/32
s off
f 13/16/33 22/26/34 23/27/35 1/9/36
f 49/65/37 50/66/38 51/67/39 52/68/40
s 3
f 11/14/31 12/15/30 15/19/14 14/18/13
s 4
f 18/22/18 17/21/28 11/13/41 14/17/42
f 19/23/19 18/22/18 14/17/42 6/6/43
s 2
f 20/24/7 19/23/6 6/6/44 8/8/45
s off
f 22/26/46 21/25/47 15/19/48 12/15/49
s 1
f 24/28/3 23/27/2 2/2/50 4/4/51
s 4
f 17/21/28 24/28/27 4/4/52 11/13/41
s off
f 17/21/53 18/22/54 21/25/55 22/26/56
f 9/11/57 17/21/58 22/26/59 13/16/60
f 18/22/61 10/12/62 16/20/63 21/25/64
s 6
f 25/29/65 48/30/66 41/31/67 27/32/68
s 7
f 27/32/69 41/31/70 42/33/71 38/34/72
s 8
f 29/35/73 44/36/74 45/37/75 31/38/76
s 9
f 39/39/77 47/40/78 48/41/79 25/42/80
s 10
f 26/43/81 40/44/82 37/45/83 28/46/84
s off
f 53/69/85 54/70/86 55/71/87 56/72/88
s 7
f 34/49/89 43/50/90 44/36/91 29/35/92
s 11
f 31/51/93 35/52/94 34/53/95 29/54/96
s 9
f 31/38/97 45/37/98 46/55/99 35/56/100
s 10
f 33/57/101 36/58/102 32/59/103 30/60/104
s 7
f 38/34/72 42/33/71 43/50/90 34/49/89
s 11
f 35/52/94 39/47/105 38/48/106 34/53/95
s 9
f 35/56/100 46/55/99 47/40/78 39/39/77
s 10
f 37/45/83 40/44/82 36/58/102 33/57/101
s 7
f 43/50/90 42/33/71 37/45/107 33/57/108
s 8
f 45/37/75 44/36/74 30/60/109 32/61/110
s 9
f 46/55/99 45/37/98 32/61/111 36/62/112
f 47/40/78 46/55/99 36/62/112 40/63/113
f 48/41/79 47/40/78 40/63/113 26/64/114
s 6
f 41/31/67 48/30/66 26/43/115 28/46/116
s off
f 8/8/117 15/19/118 33/57/119 30/60/120
f 20/24/121 8/8/122 30/60/123 44/36/124
f 21/25/125 20/24/126 44/36/127 43/50/128
f 33/57/129 15/19/130 21/25/131 43/50/132
f 22/26/133 12/15/134 37/45/135 42/33/136
f 12/15/137 2/2/138 28/46/139 37/45/140
f 2/2/141 23/27/142 41/31/143 28/46/144
f 22/26/145 42/33/146 41/31/147 23/27/148
f 3/3/149 9/11/150 50/66/151 49/65/152
f 9/11/153 13/16/154 51/67/155 50/66/156
f 13/16/157 1/1/158 52/68/159 51/67/160
f 1/1/161 3/3/162 49/65/163 52/68/164
f 39/47/165 25/29/166 54/70/167 53/69/168
f 25/29/169 27/32/170 55/71/171 54/70/172
f 27/32/173 38/48/174 56/72/175 55/71/176
f 38/48/177 39/47/178 53/69/179 56/72/180
