# This file uses meters as units for non-parametric coordinates.

g default
v 2182.493683 146.054784 -8091.620600
v 2175.260435 150.856685 -8096.309687
v 2175.260435 150.856685 -8164.723426
v 2182.493683 146.054784 -8169.412506
v 2160.791042 150.856685 -8096.309687
v 2153.557711 146.054784 -8091.620600
v 2160.791042 150.856685 -8164.723426
v 2153.557711 146.054784 -8169.412506
v 2175.260435 113.787946 -8096.309687
v 2182.493683 118.589847 -8091.620600
v 2175.260435 113.787946 -8164.723426
v 2182.493683 118.589847 -8169.412506
v 2160.791014 113.787946 -8096.309687
v 2153.557711 118.589847 -8091.620600
v 2160.791014 113.787946 -8164.723426
v 2153.557711 118.589847 -8169.412506
vt 0.375000 0.532385
vt 0.390069 0.437506
vt 0.390069 0.312494
vt 0.609931 0.312494
vt 0.609931 0.437506
vt 0.375000 1.000000
vt 0.390069 0.937506
vt 0.625000 1.000000
vt 0.609931 0.937506
vt 0.625000 0.717615
vt 0.609931 0.812494
vt 0.390069 0.812494
vt 0.625000 0.032385
vt 0.375000 0.217615
vt 0.625000 0.532385
vt 0.375000 0.717615
vt 0.875000 0.032385
vt 0.875000 0.217615
vt 0.625000 0.217615
vt 0.125000 0.032385
vt 0.375000 0.032385
vt 0.125000 0.217615
vn 0.000000 0.698653 0.715461
vn 0.000000 0.698653 0.715461
vn 0.000000 0.698653 0.715461
vn 0.000000 0.698653 0.715461
vn 0.553083 0.833126 0.000000
vn 0.553083 0.833126 0.000000
vn 0.553083 0.833126 0.000000
vn 0.553083 0.833126 0.000000
vn 0.000000 0.698652 -0.715462
vn 0.000000 0.698652 -0.715462
vn 0.000000 0.698652 -0.715462
vn 0.000000 0.698652 -0.715462
vn -0.553079 0.833129 -0.000000
vn -0.553079 0.833129 -0.000000
vn -0.553079 0.833129 -0.000000
vn -0.553079 0.833129 -0.000000
vn 0.000000 1.000000 0.000000
vn 0.000000 1.000000 0.000000
vn 0.000000 1.000000 0.000000
vn 0.000000 1.000000 0.000000
vn 0.000000 -0.698653 0.715461
vn 0.000000 -0.698653 0.715461
vn 0.000000 -0.698653 0.715461
vn 0.000000 -0.698653 0.715461
vn 0.553083 -0.833126 0.000000
vn 0.553083 -0.833126 0.000000
vn 0.553083 -0.833126 0.000000
vn 0.553083 -0.833126 0.000000
vn 0.000000 -0.698652 -0.715462
vn 0.000000 -0.698652 -0.715462
vn 0.000000 -0.698652 -0.715462
vn 0.000000 -0.698652 -0.715462
vn -0.553080 -0.833128 0.000000
vn -0.553080 -0.833128 0.000000
vn -0.553080 -0.833128 0.000000
vn -0.553080 -0.833128 0.000000
vn 0.000000 -1.000000 0.000000
vn 0.000000 -1.000000 0.000000
vn 0.000000 -1.000000 0.000000
vn 0.000000 -1.000000 0.000000
vn 1.000000 0.000000 0.000000
vn 1.000000 0.000000 0.000000
vn 1.000000 0.000000 0.000000
vn 1.000000 0.000000 0.000000
vn -1.000000 0.000000 -0.000000
vn -1.000000 0.000000 -0.000000
vn -1.000000 0.000000 -0.000000
vn -1.000000 0.000000 -0.000000
vn 0.000000 0.000000 -1.000000
vn 0.000000 0.000000 -1.000000
vn 0.000000 0.000000 -1.000000
vn 0.000000 0.000000 -1.000000
vn 0.000000 0.000000 1.000000
vn 0.000000 0.000000 1.000000
vn 0.000000 0.000000 1.000000
vn 0.000000 0.000000 1.000000
s off
g pasted__pCube25 house6 group24
f 1/14/1 2/3/2 5/2/3 6/1/4
f 2/3/5 1/14/6 4/19/7 3/4/8
f 3/4/9 4/19/10 8/15/11 7/5/12
f 6/1/13 5/2/14 7/5/15 8/15/16
f 2/3/17 3/4/18 7/5/19 5/2/20
f 9/7/21 10/6/22 14/16/23 13/12/24
f 10/6/25 9/7/26 11/9/27 12/8/28
f 12/8/29 11/9/30 15/11/31 16/10/32
f 13/12/33 14/16/34 16/10/35 15/11/36
f 13/12/37 15/11/38 11/9/39 9/7/40
f 10/21/41 12/13/42 4/19/43 1/14/44
f 6/1/45 8/15/46 16/10/47 14/16/48
f 12/13/49 16/17/50 8/18/51 4/19/52
f 14/20/53 10/21/54 1/14/55 6/22/56
