# This file uses meters as units for non-parametric coordinates.

g default
v 2050.810318 750.199744 -8141.537947
v 2118.842542 750.199744 -8141.537947
v 2050.810318 783.618783 -8141.537947
v 2118.842542 764.911023 -8141.537947
v 2050.810318 783.618783 -8424.613881
v 2118.842542 764.911021 -8424.613881
v 2050.810318 750.199744 -8424.613881
v 2118.842542 750.199744 -8424.613881
v 2062.920364 783.618783 -8141.537947
v 2062.920364 783.618782 -8424.613881
v 2062.920364 750.199744 -8424.613881
v 2062.920364 750.199744 -8141.537947
v 2076.765242 783.618782 -8141.537947
v 2076.765242 783.618782 -8424.613881
v 2076.765242 750.199744 -8424.613881
v 2076.765242 750.199744 -8141.537947
v 2091.280972 782.029756 -8141.537947
v 2091.280972 782.029756 -8424.613881
v 2091.280972 750.199744 -8424.613881
v 2091.280972 750.199744 -8141.537947
v 2106.865852 777.915899 -8141.537947
v 2106.865852 777.915899 -8424.613881
v 2106.865852 750.199744 -8424.613881
v 2106.865852 750.199744 -8141.537947
vt 0.375000 0.000000
vt 0.625000 0.000000
vt 0.375000 0.250000
vt 0.625000 0.250000
vt 0.375000 0.500000
vt 0.625000 0.500000
vt 0.375000 0.750000
vt 0.625000 0.750000
vt 0.375000 1.000000
vt 0.625000 1.000000
vt 0.875000 0.000000
vt 0.875000 0.250000
vt 0.125000 0.000000
vt 0.125000 0.250000
vt 0.419501 0.250000
vt 0.419501 0.500000
vt 0.419501 0.750000
vt 0.419501 0.000000
vt 0.419501 1.000000
vt 0.470377 0.250000
vt 0.470377 0.500000
vt 0.470377 0.750000
vt 0.470377 0.000000
vt 0.470377 1.000000
vt 0.523719 0.250000
vt 0.523719 0.500000
vt 0.523719 0.750000
vt 0.523719 0.000000
vt 0.523719 1.000000
vt 0.580989 0.250000
vt 0.580989 0.500000
vt 0.580989 0.750000
vt 0.580989 0.000000
vt 0.580989 1.000000
vn 0.000000 0.000000 1.000000
vn -0.000000 0.000000 1.000000
vn -0.000000 0.000000 1.000000
vn 0.000000 0.000000 1.000000
vn 0.000000 1.000000 -0.000000
vn 0.000000 1.000000 -0.000000
vn 0.000000 1.000000 -0.000000
vn 0.000000 1.000000 -0.000000
vn 0.000000 0.000000 -1.000000
vn 0.000000 0.000000 -1.000000
vn 0.000000 0.000000 -1.000000
vn 0.000000 0.000000 -1.000000
vn 0.000000 -1.000000 0.000000
vn 0.000000 -1.000000 0.000000
vn 0.000000 -1.000000 0.000000
vn 0.000000 -1.000000 0.000000
vn 1.000000 0.000000 0.000000
vn 1.000000 0.000000 0.000000
vn 1.000000 0.000000 0.000000
vn 1.000000 0.000000 0.000000
vn -1.000000 0.000000 0.000000
vn -1.000000 0.000000 0.000000
vn -1.000000 0.000000 0.000000
vn -1.000000 0.000000 0.000000
vn 0.055942 0.998434 0.000000
vn 0.055942 0.998434 0.000000
vn 0.000000 0.000000 -1.000000
vn 0.000000 0.000000 -1.000000
vn 0.000000 -1.000000 0.000000
vn 0.000000 -1.000000 0.000000
vn -0.000000 0.000000 1.000000
vn -0.000000 0.000000 1.000000
vn 0.186149 0.982521 0.000000
vn 0.186149 0.982521 0.000000
vn 0.000000 0.000000 -1.000000
vn 0.000000 0.000000 -1.000000
vn 0.000000 -1.000000 0.000000
vn 0.000000 -1.000000 0.000000
vn 0.000000 0.000000 1.000000
vn 0.000000 0.000000 1.000000
vn 0.527620 0.849481 -0.000000
vn 0.527620 0.849481 -0.000000
vn 0.000001 0.000000 -1.000000
vn 0.000000 0.000000 -1.000000
vn 0.000000 -1.000000 0.000000
vn 0.000000 -1.000000 0.000000
vn 0.000000 0.000000 1.000000
vn 0.000000 0.000000 1.000000
vn 0.735587 0.677430 -0.000000
vn 0.735587 0.677430 -0.000000
vn -0.000002 0.000000 -1.000000
vn -0.000002 0.000000 -1.000000
vn 0.000000 -1.000000 0.000000
vn 0.000000 -1.000000 0.000000
vn -0.000000 0.000000 1.000000
vn -0.000000 0.000000 1.000000
s 1
g pasted__pCube28 house6 group24
f 1/1/1 12/18/2 9/15/3 3/3/4
s 2
f 3/3/5 9/15/6 10/16/7 5/5/8
s 3
f 5/5/9 10/16/10 11/17/11 7/7/12
s 4
f 7/7/13 11/17/14 12/19/15 1/9/16
s off
f 2/2/17 8/11/18 6/12/19 4/4/20
f 7/13/21 1/1/22 3/3/23 5/14/24
s 2
f 9/15/6 13/20/25 14/21/26 10/16/7
s 3
f 11/17/11 10/16/10 14/21/27 15/22/28
s 4
f 12/19/15 11/17/14 15/22/29 16/24/30
s 1
f 9/15/3 12/18/2 16/23/31 13/20/32
s 2
f 13/20/25 17/25/33 18/26/34 14/21/26
s 3
f 15/22/28 14/21/27 18/26/35 19/27/36
s 4
f 16/24/30 15/22/29 19/27/37 20/29/38
s 1
f 13/20/32 16/23/31 20/28/39 17/25/40
s 2
f 17/25/33 21/30/41 22/31/42 18/26/34
s 3
f 19/27/36 18/26/35 22/31/43 23/32/44
s 4
f 20/29/38 19/27/37 23/32/45 24/34/46
s 1
f 17/25/40 20/28/39 24/33/47 21/30/48
s 2
f 21/30/41 4/4/49 6/6/50 22/31/42
s 3
f 23/32/44 22/31/43 6/6/51 8/8/52
s 4
f 24/34/46 23/32/45 8/8/53 2/10/54
s 1
f 21/30/48 24/33/47 2/2/55 4/4/56
