# This file uses meters as units for non-parametric coordinates.

g default
v 2172.044901 309.961589 -8367.004206
v 2268.506068 309.961589 -8367.004206
v 2172.044901 490.380845 -8367.004206
v 2268.506068 490.380845 -8367.004206
v 2172.044901 490.380845 -8390.698006
v 2268.506068 490.380845 -8390.698006
v 2172.044901 309.961589 -8390.698006
v 2268.506068 309.961589 -8390.698006
v 2172.044901 475.576537 -8390.698006
v 2172.044901 475.576537 -8367.004206
v 2268.506068 475.576537 -8367.004206
v 2268.506068 475.576537 -8390.698006
v 2172.044901 459.784254 -8390.698006
v 2172.044901 459.784254 -8367.004206
v 2268.506068 459.784254 -8367.004206
v 2268.506068 459.784254 -8390.698006
v 2172.044901 334.664528 -8390.698006
v 2172.044901 334.664528 -8367.004206
v 2268.506068 334.664528 -8367.004206
v 2268.506068 334.664528 -8390.698006
v 2172.044901 320.014258 -8390.698006
v 2172.044901 320.014258 -8367.004206
v 2268.506068 320.014258 -8367.004206
v 2268.506068 320.014258 -8390.698006
v 2138.232423 459.784254 -8390.698006
v 2138.232423 459.784254 -8367.004206
v 2138.232423 475.576537 -8367.004206
v 2138.232423 475.576537 -8390.698006
v 2138.232423 320.014258 -8390.698006
v 2138.232423 320.014258 -8367.004206
v 2138.232423 334.664528 -8367.004206
v 2138.232423 334.664528 -8390.698006
v 2177.986423 466.287131 -8368.463576
v 2262.564615 466.287131 -8368.463576
v 2262.564615 479.267936 -8368.463576
v 2177.986423 479.267936 -8368.463576
v 2177.986423 452.440816 -8368.463576
v 2262.564615 452.440816 -8368.463576
v 2177.986423 342.734107 -8368.463576
v 2262.564615 342.734107 -8368.463576
v 2177.986423 329.888628 -8368.463576
v 2262.564615 329.888628 -8368.463576
v 2177.986423 321.074498 -8368.463576
v 2262.564615 321.074498 -8368.463576
v 2177.986423 479.267936 -8389.238501
v 2262.564615 479.267936 -8389.238501
v 2262.564615 466.287131 -8389.238501
v 2177.986423 466.287131 -8389.238501
v 2262.564615 452.440816 -8389.238501
v 2177.986423 452.440816 -8389.238501
v 2262.564615 342.734107 -8389.238501
v 2177.986423 342.734107 -8389.238501
v 2262.564615 329.888628 -8389.238501
v 2177.986423 329.888628 -8389.238501
v 2262.564615 321.074498 -8389.238501
v 2177.986423 321.074498 -8389.238501
v 2177.986423 479.267936 -8384.536523
v 2262.564615 479.267936 -8384.536523
v 2262.564615 466.287131 -8384.536523
v 2177.986423 466.287131 -8384.536523
v 2262.564615 452.440816 -8384.536523
v 2177.986423 452.440816 -8384.536523
v 2262.564615 342.734107 -8384.536523
v 2177.986423 342.734107 -8384.536523
v 2262.564615 329.888628 -8384.536523
v 2177.986423 329.888628 -8384.536523
v 2262.564615 321.074498 -8384.536523
v 2177.986423 321.074498 -8384.536523
v 2177.986423 466.287131 -8371.654982
v 2262.564615 466.287131 -8371.654982
v 2262.564615 479.267936 -8371.654982
v 2177.986423 479.267936 -8371.654982
v 2177.986423 452.440816 -8371.654982
v 2262.564615 452.440816 -8371.654982
v 2177.986423 342.734107 -8371.654982
v 2262.564615 342.734107 -8371.654982
v 2177.986423 329.888628 -8371.654982
v 2262.564615 329.888628 -8371.654982
v 2177.986423 321.074498 -8371.654982
v 2262.564615 321.074498 -8371.654982
vt 0.375000 0.000000
vt 0.625000 0.000000
vt 0.375000 0.250000
vt 0.625000 0.250000
vt 0.375000 0.500000
vt 0.625000 0.500000
vt 0.375000 0.750000
vt 0.625000 0.750000
vt 0.375000 1.000000
vt 0.625000 1.000000
vt 0.875000 0.000000
vt 0.875000 0.250000
vt 0.125000 0.000000
vt 0.125000 0.250000
vt 0.125000 0.229486
vt 0.375000 0.520514
vt 0.375000 0.229486
vt 0.625000 0.229486
vt 0.625000 0.520514
vt 0.875000 0.229486
vt 0.125000 0.207604
vt 0.375000 0.542396
vt 0.375000 0.207604
vt 0.625000 0.207604
vt 0.625000 0.542396
vt 0.875000 0.207604
vt 0.125000 0.034230
vt 0.375000 0.715770
vt 0.375000 0.034230
vt 0.625000 0.034230
vt 0.625000 0.715770
vt 0.875000 0.034230
vt 0.125000 0.013929
vt 0.375000 0.736071
vt 0.375000 0.013929
vt 0.625000 0.013929
vt 0.625000 0.736071
vt 0.875000 0.013929
vt 0.125000 0.207604
vt 0.375000 0.207604
vt 0.375000 0.229486
vt 0.125000 0.229486
vt 0.125000 0.013929
vt 0.375000 0.013929
vt 0.375000 0.034230
vt 0.125000 0.034230
vt 0.625000 0.229486
vt 0.625000 0.250000
vt 0.375000 0.250000
vt 0.375000 0.229486
vt 0.375000 0.500000
vt 0.625000 0.500000
vt 0.625000 0.520514
vt 0.375000 0.520514
vt 0.625000 0.207604
vt 0.375000 0.207604
vt 0.625000 0.542396
vt 0.375000 0.542396
vt 0.625000 0.034230
vt 0.375000 0.034230
vt 0.625000 0.715770
vt 0.375000 0.715770
vt 0.625000 0.013929
vt 0.375000 0.013929
vt 0.625000 0.736071
vt 0.375000 0.736071
vt 0.375000 0.000000
vt 0.625000 0.000000
vt 0.625000 0.750000
vt 0.375000 0.750000
vt 0.375000 0.500000
vt 0.625000 0.500000
vt 0.625000 0.520514
vt 0.375000 0.520514
vt 0.625000 0.542396
vt 0.375000 0.542396
vt 0.625000 0.715770
vt 0.375000 0.715770
vt 0.625000 0.736071
vt 0.375000 0.736071
vt 0.625000 0.750000
vt 0.375000 0.750000
vt 0.625000 0.229486
vt 0.625000 0.250000
vt 0.375000 0.250000
vt 0.375000 0.229486
vt 0.625000 0.207604
vt 0.375000 0.207604
vt 0.625000 0.034230
vt 0.375000 0.034230
vt 0.625000 0.013929
vt 0.375000 0.013929
vt 0.375000 0.000000
vt 0.625000 0.000000
vn 0.000000 0.000000 1.000000
vn 0.000000 0.000000 1.000000
vn 0.000000 0.000000 1.000000
vn 0.000000 0.000000 1.000000
vn 0.000000 1.000000 0.000000
vn 0.000000 1.000000 0.000000
vn 0.000000 1.000000 0.000000
vn 0.000000 1.000000 0.000000
vn 0.000000 0.000000 -1.000000
vn 0.000000 0.000000 -1.000000
vn 0.000000 0.000000 -1.000000
vn 0.000000 0.000000 -1.000000
vn 0.000000 -1.000000 0.000000
vn 0.000000 -1.000000 0.000000
vn 0.000000 -1.000000 0.000000
vn 0.000000 -1.000000 0.000000
vn 1.000000 0.000000 0.000000
vn 1.000000 0.000000 0.000000
vn 1.000000 0.000000 0.000000
vn 1.000000 0.000000 0.000000
vn -1.000000 0.000000 0.000000
vn -1.000000 0.000000 0.000000
vn -1.000000 0.000000 0.000000
vn -1.000000 0.000000 0.000000
vn -1.000000 0.000000 0.000000
vn -1.000000 0.000000 0.000000
vn -1.000000 0.000000 0.000000
vn -1.000000 0.000000 0.000000
vn 0.000000 0.000000 1.000000
vn 0.000000 0.000000 1.000000
vn 1.000000 0.000000 0.000000
vn 1.000000 0.000000 0.000000
vn 0.000000 0.000000 -1.000000
vn 0.000000 0.000000 -1.000000
vn -1.000000 0.000000 0.000000
vn -1.000000 0.000000 0.000000
vn -1.000000 0.000000 0.000000
vn -1.000000 0.000000 0.000000
vn 1.000000 0.000000 0.000000
vn 1.000000 0.000000 0.000000
vn -1.000000 0.000000 0.000000
vn -1.000000 0.000000 0.000000
vn -1.000000 0.000000 0.000000
vn -1.000000 0.000000 0.000000
vn 0.000000 0.000000 1.000000
vn 0.000000 0.000000 1.000000
vn 0.000000 0.000000 1.000000
vn 0.000000 0.000000 1.000000
vn 1.000000 0.000000 0.000000
vn 1.000000 0.000000 0.000000
vn 0.000000 0.000000 -1.000000
vn 0.000000 0.000000 -1.000000
vn 0.000000 0.000000 -1.000000
vn 0.000000 0.000000 -1.000000
vn -1.000000 0.000000 0.000000
vn -1.000000 0.000000 0.000000
vn -1.000000 0.000000 0.000000
vn -1.000000 0.000000 0.000000
vn 0.000000 0.000000 1.000000
vn 0.000000 0.000000 1.000000
vn 1.000000 0.000000 0.000000
vn 1.000000 0.000000 0.000000
vn 0.000000 0.000000 -1.000000
vn 0.000000 0.000000 -1.000000
vn 0.000000 -1.000000 0.000000
vn 0.000000 -1.000000 0.000000
vn 0.000000 -1.000000 0.000000
vn 0.000000 -1.000000 0.000000
vn 0.000000 0.000000 1.000000
vn 0.000000 0.000000 1.000000
vn 0.000000 0.000000 1.000000
vn 0.000000 0.000000 1.000000
vn 0.000000 1.000000 0.000000
vn 0.000000 1.000000 0.000000
vn 0.000000 1.000000 0.000000
vn 0.000000 1.000000 0.000000
vn 0.000000 0.000000 -1.000000
vn 0.000000 0.000000 -1.000000
vn 0.000000 0.000000 -1.000000
vn 0.000000 0.000000 -1.000000
vn 0.000000 -1.000000 0.000000
vn 0.000000 -1.000000 0.000000
vn 0.000000 -1.000000 0.000000
vn 0.000000 -1.000000 0.000000
vn 0.000000 0.000000 1.000000
vn 0.000000 0.000000 1.000000
vn 0.000000 0.000000 1.000000
vn 0.000000 0.000000 1.000000
vn 0.000000 1.000000 0.000000
vn 0.000000 1.000000 0.000000
vn 0.000000 1.000000 0.000000
vn 0.000000 1.000000 0.000000
vn 0.000000 0.000000 -1.000000
vn 0.000000 0.000000 -1.000000
vn 0.000000 0.000000 -1.000000
vn 0.000000 0.000000 -1.000000
vn -0.238535 0.000000 0.971134
vn -0.238535 0.000000 0.971134
vn -0.238535 0.000000 0.971134
vn -0.238535 0.000000 0.971134
vn 0.000000 -0.130204 0.991487
vn 0.000000 -0.130204 0.991487
vn 0.000000 -0.130204 0.991487
vn 0.000000 -0.130204 0.991487
vn 0.238532 0.000000 0.971135
vn 0.238532 0.000000 0.971135
vn 0.238532 0.000000 0.971135
vn 0.238532 0.000000 0.971135
vn -0.238535 0.000000 0.971134
vn -0.238535 0.000000 0.971134
vn -0.238535 0.000000 0.971134
vn -0.238535 0.000000 0.971134
vn 0.238532 0.000000 0.971135
vn 0.238532 0.000000 0.971135
vn 0.238532 0.000000 0.971135
vn 0.238532 0.000000 0.971135
vn -0.238535 0.000000 0.971134
vn -0.238535 0.000000 0.971134
vn -0.238535 0.000000 0.971134
vn -0.238535 0.000000 0.971134
vn 0.238532 0.000000 0.971135
vn 0.238532 0.000000 0.971135
vn 0.238532 0.000000 0.971135
vn 0.238532 0.000000 0.971135
vn -0.238535 0.000000 0.971134
vn -0.238535 0.000000 0.971134
vn -0.238535 0.000000 0.971134
vn -0.238535 0.000000 0.971134
vn 0.238532 0.000000 0.971135
vn 0.238532 0.000000 0.971135
vn 0.238532 0.000000 0.971135
vn 0.238532 0.000000 0.971135
vn 0.000000 0.130204 0.991487
vn 0.000000 0.130204 0.991487
vn 0.000000 0.130204 0.991487
vn 0.000000 0.130204 0.991487
vn -0.238535 0.000000 0.971134
vn -0.238535 0.000000 0.971134
vn -0.238535 0.000000 0.971134
vn -0.238535 0.000000 0.971134
vn 0.238532 0.000000 0.971135
vn 0.238532 0.000000 0.971135
vn 0.238532 0.000000 0.971135
vn 0.238532 0.000000 0.971135
vn 0.000000 -0.130216 -0.991486
vn 0.000000 -0.130216 -0.991486
vn 0.000000 -0.130216 -0.991486
vn 0.000000 -0.130216 -0.991486
vn -0.238556 0.000000 -0.971129
vn -0.238556 0.000000 -0.971129
vn -0.238556 0.000000 -0.971129
vn -0.238556 0.000000 -0.971129
vn 0.238553 0.000000 -0.971130
vn 0.238553 0.000000 -0.971130
vn 0.238553 0.000000 -0.971130
vn 0.238553 0.000000 -0.971130
vn -0.238556 0.000000 -0.971129
vn -0.238556 0.000000 -0.971129
vn -0.238556 0.000000 -0.971129
vn -0.238556 0.000000 -0.971129
vn 0.238553 0.000000 -0.971129
vn 0.238553 0.000000 -0.971129
vn 0.238553 0.000000 -0.971129
vn 0.238553 0.000000 -0.971129
vn -0.238556 0.000000 -0.971129
vn -0.238556 0.000000 -0.971129
vn -0.238556 0.000000 -0.971129
vn -0.238556 0.000000 -0.971129
vn 0.238553 0.000000 -0.971129
vn 0.238553 0.000000 -0.971129
vn 0.238553 0.000000 -0.971129
vn 0.238553 0.000000 -0.971129
vn -0.238556 0.000000 -0.971129
vn -0.238556 0.000000 -0.971129
vn -0.238556 0.000000 -0.971129
vn -0.238556 0.000000 -0.971129
vn 0.238553 0.000000 -0.971129
vn 0.238553 0.000000 -0.971129
vn 0.238553 0.000000 -0.971129
vn 0.238553 0.000000 -0.971129
vn -0.238556 0.000000 -0.971129
vn -0.238556 0.000000 -0.971129
vn -0.238556 0.000000 -0.971129
vn -0.238556 0.000000 -0.971129
vn 0.000000 0.130216 -0.991486
vn 0.000000 0.130216 -0.991486
vn 0.000000 0.130216 -0.991486
vn 0.000000 0.130216 -0.991486
vn 0.238553 0.000000 -0.971129
vn 0.238553 0.000000 -0.971129
vn 0.238553 0.000000 -0.971129
vn 0.238553 0.000000 -0.971129
vn 0.000000 -1.000000 0.000000
vn 0.000000 -1.000000 0.000000
vn 0.000000 -1.000000 0.000000
vn 0.000000 -1.000000 0.000000
vn -1.000000 0.000000 0.000000
vn -1.000000 0.000000 0.000000
vn -1.000000 0.000000 0.000000
vn -1.000000 0.000000 0.000000
vn 1.000000 0.000000 0.000000
vn 1.000000 0.000000 0.000000
vn 1.000000 0.000000 0.000000
vn 1.000000 0.000000 0.000000
vn -1.000000 0.000000 0.000000
vn -1.000000 0.000000 0.000000
vn -1.000000 0.000000 0.000000
vn -1.000000 0.000000 0.000000
vn 1.000000 0.000000 0.000000
vn 1.000000 0.000000 0.000000
vn 1.000000 0.000000 0.000000
vn 1.000000 0.000000 0.000000
vn -1.000000 0.000000 0.000000
vn -1.000000 0.000000 0.000000
vn -1.000000 0.000000 0.000000
vn -1.000000 0.000000 0.000000
vn 1.000000 0.000000 0.000000
vn 1.000000 0.000000 0.000000
vn 1.000000 0.000000 0.000000
vn 1.000000 0.000000 0.000000
vn -1.000000 0.000000 0.000000
vn -1.000000 0.000000 0.000000
vn -1.000000 0.000000 0.000000
vn -1.000000 0.000000 0.000000
vn 1.000000 0.000000 0.000000
vn 1.000000 0.000000 0.000000
vn 1.000000 0.000000 0.000000
vn 1.000000 0.000000 0.000000
vn -1.000000 0.000000 0.000000
vn -1.000000 0.000000 0.000000
vn -1.000000 0.000000 0.000000
vn -1.000000 0.000000 0.000000
vn 0.000000 1.000000 0.000000
vn 0.000000 1.000000 0.000000
vn 0.000000 1.000000 0.000000
vn 0.000000 1.000000 0.000000
vn 1.000000 0.000000 0.000000
vn 1.000000 0.000000 0.000000
vn 1.000000 0.000000 0.000000
vn 1.000000 0.000000 0.000000
vn -1.000000 0.000000 0.000000
vn -1.000000 0.000000 0.000000
vn -1.000000 0.000000 0.000000
vn -1.000000 0.000000 0.000000
vn 0.000000 -1.000000 0.000000
vn 0.000000 -1.000000 0.000000
vn 0.000000 -1.000000 0.000000
vn 0.000000 -1.000000 0.000000
vn 1.000000 0.000000 0.000000
vn 1.000000 0.000000 0.000000
vn 1.000000 0.000000 0.000000
vn 1.000000 0.000000 0.000000
vn -1.000000 0.000000 0.000000
vn -1.000000 0.000000 0.000000
vn -1.000000 0.000000 0.000000
vn -1.000000 0.000000 0.000000
vn 1.000000 0.000000 0.000000
vn 1.000000 0.000000 0.000000
vn 1.000000 0.000000 0.000000
vn 1.000000 0.000000 0.000000
vn -1.000000 0.000000 0.000000
vn -1.000000 0.000000 0.000000
vn -1.000000 0.000000 0.000000
vn -1.000000 0.000000 0.000000
vn 1.000000 0.000000 0.000000
vn 1.000000 0.000000 0.000000
vn 1.000000 0.000000 0.000000
vn 1.000000 0.000000 0.000000
vn -1.000000 0.000000 0.000000
vn -1.000000 0.000000 0.000000
vn -1.000000 0.000000 0.000000
vn -1.000000 0.000000 0.000000
vn 1.000000 0.000000 0.000000
vn 1.000000 0.000000 0.000000
vn 1.000000 0.000000 0.000000
vn 1.000000 0.000000 0.000000
vn 0.000000 1.000000 0.000000
vn 0.000000 1.000000 0.000000
vn 0.000000 1.000000 0.000000
vn 0.000000 1.000000 0.000000
vn -1.000000 0.000000 0.000000
vn -1.000000 0.000000 0.000000
vn -1.000000 0.000000 0.000000
vn -1.000000 0.000000 0.000000
vn 1.000000 0.000000 0.000000
vn 1.000000 0.000000 0.000000
vn 1.000000 0.000000 0.000000
vn 1.000000 0.000000 0.000000
vn 1.000000 0.000000 0.000000
vn 1.000000 0.000000 0.000000
vn 1.000000 0.000000 0.000000
vn 1.000000 0.000000 0.000000
vn 0.000000 1.000000 0.000000
vn 0.000000 1.000000 0.000000
vn 0.000000 1.000000 0.000000
vn 0.000000 1.000000 0.000000
vn -1.000000 0.000000 0.000000
vn -1.000000 0.000000 0.000000
vn -1.000000 0.000000 0.000000
vn -1.000000 0.000000 0.000000
vn 0.000000 -1.000000 0.000000
vn 0.000000 -1.000000 0.000000
vn 0.000000 -1.000000 0.000000
vn 0.000000 -1.000000 0.000000
s 1
g pasted__pCube31 house6 group24
f 69/86/1 70/83/2 71/84/3 72/85/4
s off
f 3/3/5 4/4/6 6/6/7 5/5/8
s 2
f 57/71/9 58/72/10 59/73/11 60/74/12
s off
f 7/7/13 8/8/14 2/10/15 1/9/16
s 3
f 11/18/17 12/20/18 6/12/19 4/4/20
s off
f 9/15/21 10/17/22 3/3/23 5/14/24
f 25/39/25 26/40/26 27/41/27 28/42/28
s 1
f 73/88/29 74/87/30 70/83/2 69/86/1
s 3
f 15/24/31 16/26/32 12/20/18 11/18/17
s 2
f 60/74/12 59/73/11 61/75/33 62/76/34
s off
f 17/27/35 18/29/36 14/23/37 13/21/38
s 3
f 19/30/39 20/32/40 16/26/32 15/24/31
s off
f 29/43/41 30/44/42 31/45/43 32/46/44
s 4
f 77/92/45 78/91/46 76/89/47 75/90/48
s 3
f 23/36/49 24/38/50 20/32/40 19/30/39
s 5
f 64/78/51 63/77/52 65/79/53 66/80/54
s off
f 7/13/55 1/1/56 22/35/57 21/33/58
s 4
f 79/93/59 80/94/60 78/91/46 77/92/45
s 3
f 2/2/61 8/11/62 24/38/50 23/36/49
s 5
f 66/80/54 65/79/53 67/81/63 68/82/64
s off
f 13/21/65 14/23/66 26/40/67 25/39/68
f 14/23/69 10/17/70 27/41/71 26/40/72
f 10/17/73 9/15/74 28/42/75 27/41/76
f 9/15/77 13/21/78 25/39/79 28/42/80
f 21/33/81 22/35/82 30/44/83 29/43/84
f 22/35/85 18/29/86 31/45/87 30/44/88
f 18/29/89 17/27/90 32/46/91 31/45/92
f 17/27/93 21/33/94 29/43/95 32/46/96
f 11/18/97 4/4/98 35/48/99 34/47/100
f 4/4/101 3/3/102 36/49/103 35/48/104
f 3/3/105 10/17/106 33/50/107 36/49/108
f 15/5/109 11/6/110 34/52/111 38/51/112
f 10/6/113 14/19/114 37/53/115 33/52/116
f 19/16/117 15/5/118 38/51/119 40/54/120
f 14/24/121 18/18/122 39/47/123 37/55/124
f 23/17/125 19/23/126 40/56/127 42/50/128
f 18/19/129 22/25/130 41/57/131 39/53/132
f 1/22/133 2/16/134 44/54/135 43/58/136
f 2/30/137 23/24/138 42/55/139 44/59/140
f 22/23/141 1/29/142 43/60/143 41/56/144
f 5/25/145 6/31/146 46/61/147 45/57/148
f 6/28/149 12/22/150 47/58/151 46/62/152
f 9/36/153 5/30/154 45/59/155 48/63/156
f 12/29/157 16/35/158 49/64/159 47/60/160
f 13/31/161 9/37/162 48/65/163 50/61/164
f 16/34/165 20/28/166 51/62/167 49/66/168
f 17/1/169 13/2/170 50/68/171 52/67/172
f 20/2/173 24/36/174 53/63/175 51/68/176
f 21/35/177 17/1/178 52/67/179 54/64/180
f 24/37/181 8/8/182 55/69/183 53/65/184
f 8/8/185 7/7/186 56/70/187 55/69/188
f 7/7/189 21/34/190 54/66/191 56/70/192
f 45/51/193 46/52/194 58/72/195 57/71/196
f 46/52/197 47/53/198 59/73/199 58/72/200
f 48/54/201 45/51/202 57/71/203 60/74/204
f 47/53/205 49/57/206 61/75/207 59/73/208
f 50/58/209 48/54/210 60/74/211 62/76/212
f 49/57/213 51/61/214 63/77/215 61/75/216
f 52/62/217 50/58/218 62/76/219 64/78/220
f 51/61/221 53/65/222 65/79/223 63/77/224
f 54/66/225 52/62/226 64/78/227 66/80/228
f 53/65/229 55/69/230 67/81/231 65/79/232
f 55/69/233 56/70/234 68/82/235 67/81/236
f 56/70/237 54/66/238 66/80/239 68/82/240
f 34/47/241 35/48/242 71/84/243 70/83/244
f 35/48/245 36/49/246 72/85/247 71/84/248
f 36/49/249 33/50/250 69/86/251 72/85/252
f 38/55/253 34/47/254 70/83/255 74/87/256
f 33/50/257 37/56/258 73/88/259 69/86/260
f 40/59/261 38/55/262 74/87/263 76/89/264
f 37/56/265 39/60/266 75/90/267 73/88/268
f 42/63/269 40/59/270 76/89/271 78/91/272
f 39/60/273 41/64/274 77/92/275 75/90/276
f 43/67/277 44/68/278 80/94/279 79/93/280
f 44/68/281 42/63/282 78/91/283 80/94/284
f 41/64/285 43/67/286 79/93/287 77/92/288
f 64/78/289 62/76/290 73/88/291 75/90/292
f 63/77/293 64/78/294 75/90/295 76/89/296
f 61/75/297 63/77/298 76/89/299 74/87/300
f 62/76/301 61/75/302 74/87/303 73/88/304
