# This file uses meters as units for non-parametric coordinates.

g default
v 1172.919502 209.050360 -2885.638667
v 1171.594496 210.499228 -2885.638667
v 1172.919502 209.050360 -2897.878055
v 1171.594496 210.499228 -2897.878055
v 1167.618730 209.050360 -2885.638667
v 1168.943877 210.499228 -2885.638667
v 1167.618730 209.050360 -2897.878055
v 1168.943877 210.499228 -2897.878055
v 1168.943796 204.703226 -2885.638667
v 1167.618730 206.152049 -2885.638667
v 1168.943796 204.703226 -2897.878055
v 1167.618730 206.152049 -2897.878055
v 1172.919502 206.152049 -2885.638667
v 1171.594415 204.703226 -2885.638667
v 1172.919502 206.152049 -2897.878055
v 1171.594415 204.703226 -2897.878055
v 1167.618730 206.152049 -2922.879192
v 1172.919502 206.152049 -2922.879192
v 1171.594415 204.703226 -2922.879192
v 1168.943796 204.703226 -2922.879192
v 1172.919502 209.050360 -2922.879192
v 1171.594496 210.499228 -2922.879192
v 1167.618730 209.050360 -2922.879192
v 1168.943877 210.499228 -2922.879192
v 1171.154856 206.152049 -2930.474280
v 1176.125889 206.152049 -2930.474261
v 1174.883303 204.703226 -2930.474615
v 1172.397443 204.703226 -2930.474631
v 1176.125889 209.050360 -2930.474615
v 1174.883303 210.499228 -2930.474615
v 1171.154856 209.050360 -2930.474634
v 1172.397443 210.499228 -2930.474631
v 1171.154856 206.152049 -2945.533352
v 1176.125970 206.152049 -2945.533330
v 1174.883303 204.703226 -2945.533330
v 1172.397524 204.703226 -2945.533352
v 1176.125970 209.050360 -2945.533330
v 1174.883303 210.499228 -2945.533330
v 1171.154856 209.050360 -2945.533352
v 1172.397524 210.499228 -2945.533352
v 1171.154776 207.215806 -2956.033528
v 1176.125889 207.215761 -2956.033528
v 1174.883303 206.043224 -2957.430227
v 1172.397524 206.043224 -2957.430227
v 1176.126051 208.440390 -2953.239631
v 1174.883303 210.385008 -2951.598937
v 1171.154856 208.440434 -2953.239631
v 1172.397524 210.385008 -2951.598937
v 1171.154856 220.044114 -2960.453908
v 1176.126051 220.044114 -2960.453908
v 1174.883303 220.044114 -2961.850607
v 1172.397524 220.044114 -2961.850607
v 1176.125970 220.044114 -2957.660365
v 1174.883303 220.044114 -2956.263356
v 1171.154856 220.044114 -2957.660365
v 1172.397524 220.044114 -2956.263356
v 1166.174485 203.158798 -2879.389229
v 1171.475257 203.158798 -2879.389229
v 1170.150090 204.607710 -2879.389229
v 1167.499471 204.607710 -2879.389229
v 1171.475257 200.260487 -2879.389583
v 1170.150090 198.811662 -2879.389229
v 1166.174485 200.260487 -2879.389583
v 1167.499471 198.811662 -2879.389229
v 1174.438309 192.298102 -2864.314114
v 1179.739082 192.298102 -2864.314114
v 1178.413914 193.747015 -2864.313761
v 1175.763376 193.747015 -2864.313761
v 1179.739082 189.399791 -2864.313761
v 1178.413914 187.950966 -2864.313761
v 1174.438309 189.399791 -2864.313761
v 1175.763376 187.950966 -2864.313761
v 1170.890133 174.890570 -2849.736095
v 1176.190987 174.890570 -2849.736095
v 1174.865819 176.339438 -2849.736095
v 1172.215200 176.339438 -2849.736095
v 1176.190987 171.992215 -2849.736449
v 1174.865819 170.543391 -2849.736095
v 1170.890133 171.992215 -2849.736449
v 1172.215200 170.543391 -2849.736095
v 1170.819593 174.890570 -2836.079107
v 1176.120366 174.890570 -2836.079107
v 1174.795279 176.339438 -2836.079107
v 1172.144741 176.339438 -2836.079107
v 1176.120366 171.992215 -2836.079107
v 1174.795279 170.543391 -2836.079107
v 1170.819593 171.992215 -2836.079107
v 1172.144741 170.543391 -2836.079107
v 1177.683663 174.890570 -2826.061123
v 1182.917468 174.890570 -2826.979721
v 1181.609157 176.339438 -2826.750186
v 1178.991934 176.339438 -2826.291006
v 1182.917468 171.992215 -2826.979721
v 1181.609157 170.543391 -2826.750186
v 1177.683663 171.992215 -2826.061476
v 1178.991934 170.543391 -2826.291006
v 1186.412754 174.890570 -2819.129639
v 1191.646561 174.890570 -2820.047895
v 1190.338332 176.339438 -2819.818006
v 1187.721187 176.339438 -2819.359185
v 1191.646561 171.992215 -2820.047895
v 1190.338332 170.543391 -2819.818006
v 1186.412754 171.992215 -2819.129639
v 1187.721187 170.543391 -2819.359185
vt 0.125000 0.062494
vt 0.187494 0.000000
vt 0.312507 0.250000
vt 0.187494 0.250000
vt 0.125000 0.187506
vt 0.687493 0.000000
vt 0.812506 0.000000
vt 0.875000 0.062494
vt 0.875000 0.187506
vt 0.812506 0.250000
vt 0.687493 0.250000
vt 0.375000 0.062494
vt 0.625000 0.187506
vt 0.375000 0.312493
vt 0.625000 0.437506
vt 0.375000 0.812494
vt 0.625000 0.937507
vt 0.375000 0.937507
vt 0.375000 0.562494
vt 0.625000 0.687506
vt 0.312507 0.000000
vt 0.625000 0.062494
vt 0.375000 0.187506
vt 0.625000 0.312493
vt 0.375000 0.437506
vt 0.625000 0.562494
vt 0.375000 0.687506
vt 0.625000 0.812494
vt 0.812506 0.000000
vt 0.875000 0.062494
vt 0.875000 0.187506
vt 0.812506 0.250000
vt 0.625000 0.062494
vt 0.687493 0.000000
vt 0.687493 0.250000
vt 0.625000 0.187506
vt 0.812506 0.000000
vt 0.875000 0.062494
vt 0.875000 0.187506
vt 0.812506 0.250000
vt 0.625000 0.062494
vt 0.687493 0.000000
vt 0.687493 0.250000
vt 0.625000 0.187506
vt 0.812506 0.000000
vt 0.875000 0.062494
vt 0.875000 0.187506
vt 0.812506 0.250000
vt 0.625000 0.062494
vt 0.687493 0.000000
vt 0.687493 0.250000
vt 0.625000 0.187506
vt 0.812506 0.000000
vt 0.875000 0.062494
vt 0.875000 0.187506
vt 0.812506 0.250000
vt 0.625000 0.062494
vt 0.687493 0.000000
vt 0.687493 0.250000
vt 0.625000 0.187506
vt 0.812506 0.000000
vt 0.875000 0.062494
vt 0.875000 0.187506
vt 0.812506 0.250000
vt 0.625000 0.062494
vt 0.687493 0.000000
vt 0.687493 0.250000
vt 0.625000 0.187506
vt 0.812506 0.000000
vt 0.687493 0.000000
vt 0.625000 0.062494
vt 0.625000 0.187506
vt 0.687493 0.250000
vt 0.812506 0.250000
vt 0.875000 0.187506
vt 0.875000 0.062494
vt 0.312507 0.000000
vt 0.375000 0.062494
vt 0.375000 0.187506
vt 0.312507 0.250000
vt 0.125000 0.062494
vt 0.187494 0.000000
vt 0.187494 0.250000
vt 0.125000 0.187506
vt 0.312507 0.000000
vt 0.375000 0.062494
vt 0.375000 0.187506
vt 0.312507 0.250000
vt 0.125000 0.062494
vt 0.187494 0.000000
vt 0.187494 0.250000
vt 0.125000 0.187506
vt 0.312507 0.000000
vt 0.375000 0.062494
vt 0.375000 0.187506
vt 0.312507 0.250000
vt 0.125000 0.062494
vt 0.187494 0.000000
vt 0.187494 0.250000
vt 0.125000 0.187506
vt 0.312507 0.000000
vt 0.375000 0.062494
vt 0.375000 0.187506
vt 0.312507 0.250000
vt 0.125000 0.062494
vt 0.187494 0.000000
vt 0.187494 0.250000
vt 0.125000 0.187506
vt 0.312507 0.000000
vt 0.375000 0.062494
vt 0.375000 0.187506
vt 0.312507 0.250000
vt 0.125000 0.062494
vt 0.187494 0.000000
vt 0.187494 0.250000
vt 0.125000 0.187506
vt 0.312507 0.000000
vt 0.375000 0.062494
vt 0.375000 0.187506
vt 0.312507 0.250000
vt 0.125000 0.062494
vt 0.187494 0.000000
vt 0.187494 0.250000
vt 0.125000 0.187506
vn 0.321132 0.905114 0.278645
vn 0.342408 0.939551 0.000000
vn -0.342397 0.939555 0.000000
vn -0.293917 0.918365 0.264986
vn -0.935548 0.345658 0.072593
vn -0.956545 0.291583 0.000000
vn -0.956550 -0.291570 -0.000000
vn -0.956470 -0.249071 -0.152081
vn -0.329061 -0.881981 -0.337384
vn -0.342394 -0.939556 -0.000000
vn 0.342393 -0.939557 0.000000
vn 0.363915 -0.894150 -0.260885
vn 0.970226 -0.240080 0.031991
vn 0.956548 -0.291574 0.000000
vn 0.956554 0.291555 0.000000
vn 0.926399 0.330714 0.180035
vn -0.926722 0.176750 -0.331582
vn 0.926724 0.176739 -0.331581
vn 0.346130 -0.149849 -0.926142
vn -0.346127 -0.149849 -0.926143
vn -0.439528 0.213956 0.872375
vn 0.864975 0.213422 -0.454168
vn 0.480465 0.834832 -0.268717
vn -0.117504 0.916206 0.383093
vn 0.460086 0.486739 0.742567
vn 0.933888 0.317311 0.164822
vn -0.933885 0.317315 0.164834
vn -0.460088 0.486739 0.742566
vn 0.480456 -0.834839 -0.268710
vn 0.864976 -0.213422 -0.454167
vn -0.439529 -0.213975 0.872370
vn -0.117505 -0.916206 0.383090
vn 0.322501 -0.946182 0.027078
vn 0.950205 -0.295667 0.098448
vn -0.367835 -0.928786 -0.045325
vn -0.955058 -0.279859 -0.097686
vn 0.950209 0.295653 0.098448
vn 0.322518 0.946176 0.027079
vn -0.367837 0.928785 -0.045325
vn -0.955056 0.279867 -0.097685
vn 0.391861 -0.917878 0.062810
vn 0.955665 -0.264159 0.130098
vn -0.324668 -0.944848 -0.043057
vn -0.945929 -0.285797 -0.153422
vn 0.955668 0.264159 0.130074
vn 0.391867 0.917875 0.062818
vn -0.324666 0.944848 -0.043064
vn -0.945935 0.285790 -0.153396
vn 0.346078 -0.937127 -0.044972
vn 0.948313 -0.316989 -0.014889
vn -0.346077 -0.937128 -0.044974
vn -0.948312 -0.316989 -0.014892
vn 0.960636 0.277771 -0.004694
vn 0.383559 0.923478 -0.008456
vn -0.383558 0.923478 -0.008458
vn -0.960634 0.277777 -0.004697
vn 0.336617 -0.673705 -0.657884
vn 0.933634 -0.273002 -0.231942
vn -0.336619 -0.673707 -0.657881
vn -0.933635 -0.273002 -0.231939
vn 0.990635 0.095111 0.097965
vn 0.565078 0.624113 0.539602
vn -0.565080 0.624112 0.539600
vn -0.990631 0.095134 0.097975
vn 0.195259 0.784633 0.588409
vn 0.934273 0.356075 0.018539
vn -0.319210 0.699149 0.639763
vn -0.867387 0.267874 0.419385
vn 0.823078 -0.248216 -0.510814
vn 0.213679 -0.728983 -0.650327
vn -0.395458 -0.795800 -0.458602
vn -0.960092 -0.216969 0.176488
vn 0.328974 0.735474 0.592329
vn 0.954837 0.286890 0.077331
vn -0.189533 0.694839 0.693741
vn -0.815837 0.296611 0.496420
vn 0.935332 -0.229236 -0.269451
vn 0.311056 -0.663385 -0.680562
vn -0.208010 -0.702290 -0.680824
vn -0.942748 -0.290749 -0.163377
vn 0.298141 0.775950 0.555890
vn 0.944323 0.216565 0.247696
vn -0.350390 0.812297 0.466263
vn -0.977496 0.205898 -0.045914
vn 0.906994 -0.383055 -0.175016
vn 0.246139 -0.843766 -0.476943
vn -0.280650 -0.822885 -0.494061
vn -0.872318 -0.353274 -0.338023
vn 0.275274 0.959170 -0.064942
vn 0.908426 0.307279 -0.283445
vn -0.396730 0.908523 0.131115
vn -0.930861 0.264279 0.252297
vn 0.908425 -0.307283 -0.283444
vn 0.275268 -0.959172 -0.064939
vn -0.396725 -0.908525 0.131114
vn -0.930857 -0.264295 0.252295
vn 0.286431 0.923578 -0.254874
vn 0.689286 0.242709 -0.682625
vn -0.308314 0.899869 0.308509
vn -0.722942 0.238543 0.648422
vn 0.689286 -0.242712 -0.682625
vn 0.286424 -0.923582 -0.254867
vn -0.308313 -0.899867 0.308515
vn -0.722946 -0.238574 0.648407
s 1
g pasted__pasted__pCube108 group17
f 2/12/1 4/22/2 8/13/3 6/23/4
f 5/14/5 7/24/6 12/15/7 10/25/8
f 9/19/9 11/26/10 16/20/11 14/27/12
f 13/16/13 15/28/14 3/17/15 1/18/16
f 49/64/17 50/61/18 51/62/19 52/63/20
f 97/120/21 98/117/22 99/118/23 100/119/24
f 2/12/1 1/21/16 3/6/15 4/22/2
f 5/14/5 6/23/4 8/13/3 7/24/6
f 9/19/9 10/25/8 12/15/7 11/26/10
f 13/16/13 14/27/12 16/20/11 15/28/14
f 54/65/25 53/66/26 55/67/27 56/68/28
f 55/67/27 53/66/26 50/61/18 49/64/17
f 102/121/29 101/122/30 103/123/31 104/124/32
f 103/123/31 101/122/30 98/117/22 97/120/21
f 15/7/14 16/8/11 19/30/33 18/29/34
f 16/8/11 11/9/10 20/31/35 19/30/33
f 11/9/10 12/10/7 17/32/36 20/31/35
f 4/22/2 3/6/15 21/34/37 22/33/38
f 7/11/6 8/13/3 24/36/39 23/35/40
f 8/13/3 4/22/2 22/33/38 24/36/39
f 3/6/15 15/7/14 18/29/34 21/34/37
f 12/10/7 7/11/6 23/35/40 17/32/36
f 18/29/34 19/30/33 27/38/41 26/37/42
f 19/30/33 20/31/35 28/39/43 27/38/41
f 20/31/35 17/32/36 25/40/44 28/39/43
f 22/33/38 21/34/37 29/42/45 30/41/46
f 23/35/40 24/36/39 32/44/47 31/43/48
f 24/36/39 22/33/38 30/41/46 32/44/47
f 21/34/37 18/29/34 26/37/42 29/42/45
f 17/32/36 23/35/40 31/43/48 25/40/44
f 26/37/42 27/38/41 35/46/49 34/45/50
f 27/38/41 28/39/43 36/47/51 35/46/49
f 28/39/43 25/40/44 33/48/52 36/47/51
f 30/41/46 29/42/45 37/50/53 38/49/54
f 31/43/48 32/44/47 40/52/55 39/51/56
f 32/44/47 30/41/46 38/49/54 40/52/55
f 29/42/45 26/37/42 34/45/50 37/50/53
f 25/40/44 31/43/48 39/51/56 33/48/52
f 34/45/50 35/46/49 43/54/57 42/53/58
f 35/46/49 36/47/51 44/55/59 43/54/57
f 36/47/51 33/48/52 41/56/60 44/55/59
f 38/49/54 37/50/53 45/58/61 46/57/62
f 39/51/56 40/52/55 48/60/63 47/59/64
f 40/52/55 38/49/54 46/57/62 48/60/63
f 37/50/53 34/45/50 42/53/58 45/58/61
f 33/48/52 39/51/56 47/59/64 41/56/60
f 42/53/58 43/54/57 51/62/19 50/61/18
f 43/54/57 44/55/59 52/63/20 51/62/19
f 44/55/59 41/56/60 49/64/17 52/63/20
f 46/57/62 45/58/61 53/66/26 54/65/25
f 47/59/64 48/60/63 56/68/28 55/67/27
f 48/60/63 46/57/62 54/65/25 56/68/28
f 45/58/61 42/53/58 50/61/18 53/66/26
f 41/56/60 47/59/64 55/67/27 49/64/17
f 1/21/16 2/12/1 59/78/65 58/77/66
f 2/12/1 6/23/4 60/79/67 59/78/65
f 6/23/4 5/3/5 57/80/68 60/79/67
f 14/1/12 13/2/13 61/82/69 62/81/70
f 10/4/8 9/5/9 64/84/71 63/83/72
f 9/5/9 14/1/12 62/81/70 64/84/71
f 13/2/13 1/21/16 58/77/66 61/82/69
f 5/3/5 10/4/8 63/83/72 57/80/68
f 58/77/66 59/78/65 67/86/73 66/85/74
f 59/78/65 60/79/67 68/87/75 67/86/73
f 60/79/67 57/80/68 65/88/76 68/87/75
f 62/81/70 61/82/69 69/90/77 70/89/78
f 63/83/72 64/84/71 72/92/79 71/91/80
f 64/84/71 62/81/70 70/89/78 72/92/79
f 61/82/69 58/77/66 66/85/74 69/90/77
f 57/80/68 63/83/72 71/91/80 65/88/76
f 66/85/74 67/86/73 75/94/81 74/93/82
f 67/86/73 68/87/75 76/95/83 75/94/81
f 68/87/75 65/88/76 73/96/84 76/95/83
f 70/89/78 69/90/77 77/98/85 78/97/86
f 71/91/80 72/92/79 80/100/87 79/99/88
f 72/92/79 70/89/78 78/97/86 80/100/87
f 69/90/77 66/85/74 74/93/82 77/98/85
f 65/88/76 71/91/80 79/99/88 73/96/84
f 74/93/82 75/94/81 83/102/89 82/101/90
f 75/94/81 76/95/83 84/103/91 83/102/89
f 76/95/83 73/96/84 81/104/92 84/103/91
f 78/97/86 77/98/85 85/106/93 86/105/94
f 79/99/88 80/100/87 88/108/95 87/107/96
f 80/100/87 78/97/86 86/105/94 88/108/95
f 77/98/85 74/93/82 82/101/90 85/106/93
f 73/96/84 79/99/88 87/107/96 81/104/92
f 82/101/90 83/102/89 91/110/97 90/109/98
f 83/102/89 84/103/91 92/111/99 91/110/97
f 84/103/91 81/104/92 89/112/100 92/111/99
f 86/105/94 85/106/93 93/114/101 94/113/102
f 87/107/96 88/108/95 96/116/103 95/115/104
f 88/108/95 86/105/94 94/113/102 96/116/103
f 85/106/93 82/101/90 90/109/98 93/114/101
f 81/104/92 87/107/96 95/115/104 89/112/100
f 90/109/98 91/110/97 99/118/23 98/117/22
f 91/110/97 92/111/99 100/119/24 99/118/23
f 92/111/99 89/112/100 97/120/21 100/119/24
f 94/113/102 93/114/101 101/122/30 102/121/29
f 95/115/104 96/116/103 104/124/32 103/123/31
f 96/116/103 94/113/102 102/121/29 104/124/32
f 93/114/101 90/109/98 98/117/22 101/122/30
f 89/112/100 95/115/104 103/123/31 97/120/21
