# This file uses meters as units for non-parametric coordinates.

g default
v 1333.209574 440.757628 -2919.425614
v 1372.530564 440.757628 -2919.425614
v 1333.209574 573.685518 -2919.425614
v 1372.530564 573.685518 -2919.425614
v 1333.209574 573.685518 -3119.047551
v 1372.530564 573.685518 -3119.047551
v 1333.209574 440.757628 -3119.047551
v 1372.530564 440.757628 -3119.047551
v 1271.794939 440.757628 -2849.260575
v 1311.115953 440.757628 -2849.260575
v 1311.115953 573.685518 -2849.260575
v 1271.794939 573.685518 -2849.260575
v 1298.441050 573.685518 -2879.703090
v 1337.762065 573.685518 -2879.703090
v 1337.762065 440.757628 -2879.703090
v 1298.441050 440.757628 -2879.703090
v 1056.955530 440.757628 -2879.703090
v 1056.955530 573.685518 -2879.703090
v 1056.955218 440.757628 -2849.260575
v 1056.955218 573.685518 -2849.260575
vt 0.375000 0.000000
vt 0.625000 0.000000
vt 0.375000 0.250000
vt 0.625000 0.250000
vt 0.375000 0.500000
vt 0.625000 0.500000
vt 0.375000 0.750000
vt 0.625000 0.750000
vt 0.375000 1.000000
vt 0.625000 1.000000
vt 0.875000 0.000000
vt 0.875000 0.250000
vt 0.125000 0.000000
vt 0.125000 0.250000
vt 0.375000 0.000000
vt 0.625000 0.000000
vt 0.625000 0.250000
vt 0.375000 0.250000
vt 0.375000 0.250000
vt 0.625000 0.250000
vt 0.625000 0.000000
vt 0.375000 0.000000
vt 0.375000 0.250000
vt 0.375000 0.000000
vt 0.375000 0.000000
vt 0.375000 0.250000
vn 0.000000 0.000000 1.000000
vn 0.000000 0.000000 1.000000
vn 0.000000 0.000000 1.000000
vn 0.000000 0.000000 1.000000
vn 0.000000 1.000000 0.000000
vn 0.000000 1.000000 0.000000
vn 0.000000 1.000000 0.000000
vn 0.000000 1.000000 0.000000
vn 0.000000 0.000000 -1.000000
vn 0.000000 0.000000 -1.000000
vn 0.000000 0.000000 -1.000000
vn 0.000000 0.000000 -1.000000
vn 0.000000 -1.000000 0.000000
vn 0.000000 -1.000000 0.000000
vn 0.000000 -1.000000 0.000000
vn 0.000000 -1.000000 0.000000
vn 1.000000 0.000000 0.000000
vn 1.000000 0.000000 0.000000
vn 1.000000 0.000000 0.000000
vn 1.000000 0.000000 0.000000
vn -1.000000 0.000000 0.000000
vn -1.000000 0.000000 0.000000
vn -1.000000 0.000000 0.000000
vn -1.000000 0.000000 0.000000
vn 0.000000 -1.000000 0.000000
vn 0.000000 -1.000000 0.000000
vn 0.000000 -1.000000 0.000000
vn 0.000000 -1.000000 0.000000
vn 0.752471 0.000000 0.658626
vn 0.752471 0.000000 0.658626
vn 0.752469 0.000000 0.658627
vn 0.752469 0.000000 0.658627
vn 0.000000 1.000000 0.000000
vn 0.000000 1.000000 0.000000
vn 0.000000 1.000000 0.000000
vn 0.000000 1.000000 0.000000
vn -0.752470 0.000000 -0.658626
vn -0.752470 0.000000 -0.658626
vn -0.752470 0.000000 -0.658626
vn -0.752470 0.000000 -0.658626
vn 0.000000 1.000000 0.000000
vn 0.000000 1.000000 0.000000
vn 0.752468 0.000000 0.658629
vn 0.752468 0.000000 0.658629
vn 0.000000 -1.000000 0.000000
vn 0.000000 -1.000000 0.000000
vn -1.000000 0.000000 -0.000010
vn -1.000000 0.000000 -0.000010
vn -1.000000 0.000000 -0.000010
vn -1.000000 0.000000 -0.000010
vn 0.000000 0.000000 -1.000000
vn 0.000000 0.000000 -1.000000
vn 0.000000 0.000000 -1.000000
vn 0.000000 0.000000 -1.000000
vn 0.000000 -1.000000 0.000000
vn 0.000000 -1.000000 0.000000
vn 0.000000 -1.000000 0.000000
vn 0.000000 -1.000000 0.000000
vn 0.000000 0.000000 1.000000
vn 0.000000 0.000000 1.000000
vn 0.000000 0.000000 1.000000
vn 0.000000 0.000000 1.000000
vn 0.000000 1.000000 0.000000
vn 0.000000 1.000000 0.000000
vn 0.000000 1.000000 0.000000
vn 0.000000 1.000000 0.000000
s off
g pCube44 group17
f 9/15/1 10/16/2 11/17/3 12/18/4
f 3/3/5 4/4/6 6/6/7 5/5/8
f 5/5/9 6/6/10 8/8/11 7/7/12
f 7/7/13 8/8/14 2/10/15 1/9/16
f 2/2/17 8/11/18 6/12/19 4/4/20
f 7/13/21 1/1/22 3/3/23 5/14/24
s 1
f 1/1/25 2/2/26 15/21/27 16/22/28
s 2
f 2/2/29 4/4/30 14/20/31 15/21/32
s 3
f 4/4/33 3/3/34 13/19/35 14/20/36
s off
f 3/3/37 1/1/38 16/22/39 13/19/40
s 3
f 14/20/36 13/19/35 12/18/41 11/17/42
s 2
f 15/21/32 14/20/31 11/17/43 10/16/44
s 1
f 16/22/28 15/21/27 10/16/45 9/15/46
s off
f 18/23/47 17/24/48 19/25/49 20/26/50
f 13/19/51 16/22/52 17/24/53 18/23/54
f 16/22/55 9/15/56 19/25/57 17/24/58
f 9/15/59 12/18/60 20/26/61 19/25/62
f 12/18/63 13/19/64 18/23/65 20/26/66
