# This file uses meters as units for non-parametric coordinates.

g default
v 1910.158583 1098.145694 -131.252304
v 1840.329481 1098.145694 -201.080994
v 1848.788954 1221.406558 -215.732880
v 1924.810438 1221.406558 -139.711578
v 1744.941786 1098.145694 -226.640076
v 1744.941786 1221.406558 -243.558594
v 1649.554091 1098.145694 -201.080994
v 1641.095106 1221.406558 -215.732880
v 1579.725478 1098.145694 -131.252304
v 1565.073622 1221.406558 -139.711578
v 1554.166395 1098.145694 -35.864529
v 1537.247938 1221.406558 -35.864529
v 1579.725478 1098.145694 59.523251
v 1565.073622 1221.406558 67.982513
v 1649.554091 1098.145694 129.351944
v 1641.095106 1221.406558 144.003830
v 1744.941786 1098.145694 154.911026
v 1744.941786 1221.406558 171.829559
v 1840.329481 1098.145694 129.351944
v 1848.788954 1221.406558 144.003830
v 1910.158583 1098.145694 59.523251
v 1924.810438 1221.406558 67.982513
v 1935.717665 1098.145694 -35.864529
v 1952.636122 1221.406558 -35.864529
v 1896.869032 1344.667300 -123.579720
v 1832.657118 1344.667300 -187.791672
v 1744.941786 1344.667300 -211.294891
v 1657.226942 1344.667300 -187.791672
v 1920.372450 1344.667300 -35.864529
v 1896.869032 1344.667300 51.850658
v 1832.657118 1344.667300 116.062614
v 1744.941786 1344.667300 139.565842
v 1657.226942 1344.667300 116.062614
v 1593.014540 1344.667300 51.850658
v 1569.511610 1344.667300 -35.864529
v 1593.014540 1344.667300 -123.579720
vt 0.500000 0.312500
vt 0.395833 0.312500
vt 0.395833 0.500470
vt 0.375000 0.500470
vt 0.416667 0.312500
vt 0.416667 0.500470
vt 0.437500 0.312500
vt 0.437500 0.500470
vt 0.458333 0.312500
vt 0.458333 0.500470
vt 0.479167 0.312500
vt 0.479167 0.500470
vt 0.500000 0.312500
vt 0.500000 0.500470
vt 0.520833 0.312500
vt 0.520833 0.500470
vt 0.541667 0.312500
vt 0.541667 0.500470
vt 0.562500 0.312500
vt 0.562500 0.500470
vt 0.583333 0.312500
vt 0.583333 0.500470
vt 0.604167 0.312500
vt 0.604167 0.500470
vt 0.625000 0.500470
vt 0.635316 0.921875
vt 0.578125 0.979066
vt 0.500000 1.000000
vt 0.421875 0.979066
vt 0.625000 0.688440
vt 0.604167 0.688440
vt 0.583333 0.688440
vt 0.562500 0.688440
vt 0.541667 0.688440
vt 0.520833 0.688440
vt 0.500000 0.688440
vt 0.479167 0.688440
vt 0.458333 0.688440
vt 0.437500 0.688440
vt 0.416667 0.688440
vt 0.395833 0.688440
vt 0.375000 0.688440
vt 0.578125 0.708434
vt 0.364684 0.765625
vt 0.421875 0.708434
vt 0.500000 0.687500
vt 0.635316 0.765625
vt 0.343750 0.843750
vt 0.656250 0.843750
vt 0.364684 0.921875
vn 0.700971 -0.131431 -0.700975
vn 0.700971 -0.131431 -0.700975
vn 0.700971 -0.131431 -0.700975
vn 0.700971 -0.131431 -0.700975
vn 0.256574 -0.131431 -0.957547
vn 0.256574 -0.131431 -0.957547
vn 0.256574 -0.131431 -0.957547
vn 0.256574 -0.131431 -0.957547
vn -0.256574 -0.131431 -0.957547
vn -0.256574 -0.131431 -0.957547
vn -0.256574 -0.131431 -0.957547
vn -0.256574 -0.131431 -0.957547
vn -0.700973 -0.131430 -0.700973
vn -0.700973 -0.131430 -0.700973
vn -0.700973 -0.131430 -0.700973
vn -0.700973 -0.131430 -0.700973
vn -0.957547 -0.131431 -0.256574
vn -0.957547 -0.131431 -0.256574
vn -0.957547 -0.131431 -0.256574
vn -0.957547 -0.131431 -0.256574
vn -0.957547 -0.131431 0.256574
vn -0.957547 -0.131431 0.256574
vn -0.957547 -0.131431 0.256574
vn -0.957547 -0.131431 0.256574
vn -0.700973 -0.131430 0.700973
vn -0.700973 -0.131430 0.700973
vn -0.700973 -0.131430 0.700973
vn -0.700973 -0.131430 0.700973
vn -0.256574 -0.131431 0.957547
vn -0.256574 -0.131431 0.957547
vn -0.256574 -0.131431 0.957547
vn -0.256574 -0.131431 0.957547
vn 0.256574 -0.131431 0.957547
vn 0.256574 -0.131431 0.957547
vn 0.256574 -0.131431 0.957547
vn 0.256574 -0.131431 0.957547
vn 0.700971 -0.131432 0.700974
vn 0.700971 -0.131432 0.700974
vn 0.700971 -0.131432 0.700974
vn 0.700971 -0.131432 0.700974
vn 0.957547 -0.131431 0.256574
vn 0.957547 -0.131431 0.256574
vn 0.957547 -0.131431 0.256574
vn 0.957547 -0.131431 0.256574
vn 0.957547 -0.131430 -0.256574
vn 0.957547 -0.131430 -0.256574
vn 0.957547 -0.131430 -0.256574
vn 0.957547 -0.131430 -0.256574
vn 0.000000 1.000000 0.000000
vn 0.000000 1.000000 0.000000
vn 0.000000 1.000000 0.000000
vn 0.000000 1.000000 0.000000
vn 0.936458 0.245120 -0.250924
vn 0.936458 0.245120 -0.250924
vn 0.936458 0.245120 -0.250924
vn 0.936458 0.245120 -0.250924
vn 0.936458 0.245120 0.250924
vn 0.936458 0.245120 0.250924
vn 0.936458 0.245120 0.250924
vn 0.936458 0.245120 0.250924
vn 0.685535 0.245120 0.685535
vn 0.685535 0.245120 0.685535
vn 0.685535 0.245120 0.685535
vn 0.685535 0.245120 0.685535
vn 0.250923 0.245120 0.936458
vn 0.250923 0.245120 0.936458
vn 0.250923 0.245120 0.936458
vn 0.250923 0.245120 0.936458
vn -0.250924 0.245120 0.936458
vn -0.250924 0.245120 0.936458
vn -0.250924 0.245120 0.936458
vn -0.250924 0.245120 0.936458
vn -0.685534 0.245119 0.685537
vn -0.685534 0.245119 0.685537
vn -0.685534 0.245119 0.685537
vn -0.685534 0.245119 0.685537
vn -0.936459 0.245118 0.250922
vn -0.936459 0.245118 0.250922
vn -0.936459 0.245118 0.250922
vn -0.936459 0.245118 0.250922
vn -0.936459 0.245118 -0.250922
vn -0.936459 0.245118 -0.250922
vn -0.936459 0.245118 -0.250922
vn -0.936459 0.245118 -0.250922
vn -0.685534 0.245119 -0.685537
vn -0.685534 0.245119 -0.685537
vn -0.685534 0.245119 -0.685537
vn -0.685534 0.245119 -0.685537
vn -0.250924 0.245120 -0.936458
vn -0.250924 0.245120 -0.936458
vn -0.250924 0.245120 -0.936458
vn -0.250924 0.245120 -0.936458
vn 0.250923 0.245119 -0.936458
vn 0.250923 0.245119 -0.936458
vn 0.250923 0.245119 -0.936458
vn 0.250923 0.245119 -0.936458
vn 0.685534 0.245120 -0.685535
vn 0.685534 0.245120 -0.685536
vn 0.685534 0.245120 -0.685535
vn 0.685534 0.245120 -0.685536
vn 0.000000 1.000000 0.000001
vn 0.000000 1.000000 0.000001
vn 0.000000 1.000000 0.000001
vn 0.000000 1.000000 0.000001
vn 0.000000 1.000000 -0.000000
vn 0.000000 1.000000 -0.000000
vn 0.000000 1.000000 -0.000000
vn 0.000000 1.000000 -0.000000
vn 0.000000 1.000000 0.000000
vn 0.000000 1.000000 0.000000
vn 0.000000 1.000000 0.000000
vn 0.000000 1.000000 0.000000
vn 0.000000 1.000000 -0.000000
vn 0.000000 1.000000 -0.000000
vn 0.000000 1.000000 -0.000000
vn 0.000000 1.000000 -0.000000
vn 0.000000 -1.000000 0.000002
vn 0.000000 -1.000000 0.000002
vn 0.000000 -1.000000 0.000002
vn 0.000000 -1.000000 0.000002
vn 0.000000 -1.000000 0.000001
vn 0.000000 -1.000000 0.000001
vn 0.000000 -1.000000 0.000001
vn 0.000000 -1.000000 0.000001
vn 0.000000 -1.000000 -0.000001
vn 0.000000 -1.000000 -0.000001
vn 0.000000 -1.000000 -0.000001
vn 0.000000 -1.000000 -0.000001
vn 0.000000 -1.000000 -0.000001
vn 0.000000 -1.000000 -0.000001
vn 0.000000 -1.000000 -0.000001
vn 0.000000 -1.000000 -0.000001
vn 0.000000 -1.000000 -0.000002
vn 0.000000 -1.000000 -0.000002
vn 0.000000 -1.000000 -0.000002
vn 0.000000 -1.000000 -0.000002
s off
g polySurface77 group12
f 1/1/1 2/2/2 3/3/3 4/4/4
f 2/2/5 5/5/6 6/6/7 3/3/8
f 5/5/9 7/7/10 8/8/11 6/6/12
f 7/7/13 9/9/14 10/10/15 8/8/16
f 9/9/17 11/11/18 12/12/19 10/10/20
f 11/11/21 13/13/22 14/14/23 12/12/24
f 13/13/25 15/15/26 16/16/27 14/14/28
f 15/15/29 17/17/30 18/18/31 16/16/32
f 17/17/33 19/19/34 20/20/35 18/18/36
f 19/19/37 21/21/38 22/22/39 20/20/40
f 21/21/41 23/23/42 24/24/43 22/22/44
f 23/23/45 1/1/46 4/25/47 24/24/48
f 25/26/49 26/27/50 27/28/51 28/29/52
f 24/24/53 4/25/54 25/30/55 29/31/56
f 22/22/57 24/24/58 29/31/59 30/32/60
f 20/20/61 22/22/62 30/32/63 31/33/64
f 18/18/65 20/20/66 31/33/67 32/34/68
f 16/16/69 18/18/70 32/34/71 33/35/72
f 14/14/73 16/16/74 33/35/75 34/36/76
f 12/12/77 14/14/78 34/36/79 35/37/80
f 10/10/81 12/12/82 35/37/83 36/38/84
f 8/8/85 10/10/86 36/38/87 28/39/88
f 6/6/89 8/8/90 28/39/91 27/40/92
f 3/3/93 6/6/94 27/40/95 26/41/96
f 4/4/97 3/3/98 26/41/99 25/42/100
f 31/43/101 34/44/102 33/45/103 32/46/104
f 30/47/105 35/48/106 34/44/107 31/43/108
f 29/49/109 36/50/110 35/48/111 30/47/112
f 25/26/113 28/29/114 36/50/115 29/49/116
f 15/15/117 13/13/118 19/19/119 17/17/120
f 13/13/121 11/11/122 21/21/123 19/19/124
f 11/11/125 9/9/126 23/23/127 21/21/128
f 9/9/129 7/7/130 1/1/131 23/23/132
f 2/2/133 1/1/134 7/7/135 5/5/136
