# This file uses meters as units for non-parametric coordinates.

g default
v 1308.345935 1.785614 -7372.998811
v 1337.754098 1.785614 -7352.197000
v 1308.345935 381.152298 -7372.998811
v 1337.754098 381.152298 -7352.197000
v 1896.571463 1.785614 -7372.998811
v 1867.163300 1.785614 -7352.197000
v 1896.571463 381.152298 -7372.998811
v 1867.163300 381.152298 -7352.197000
v 1308.345935 381.152298 -7812.165737
v 1337.754098 381.152298 -7832.968083
v 1308.345935 1.785614 -7812.165737
v 1337.754098 1.785614 -7832.968083
v 1867.163300 381.152298 -7832.968083
v 1896.571463 381.152298 -7812.165737
v 1896.571463 1.785614 -7812.165737
v 1867.163300 1.785614 -7832.968083
v 1308.345935 267.440466 -7372.998811
v 1337.754098 267.440466 -7352.197000
v 1867.163300 267.440466 -7352.197000
v 1896.571463 267.440466 -7372.998811
v 1896.571463 267.440466 -7812.165737
v 1867.163300 267.440466 -7832.968083
v 1337.754098 267.440466 -7832.968083
v 1308.345935 267.440466 -7812.165737
v 1308.345935 254.810869 -7372.998811
v 1337.754098 254.810869 -7352.197000
v 1867.163300 254.810869 -7352.197000
v 1896.571463 254.810869 -7372.998811
v 1896.571463 254.810869 -7812.165737
v 1867.163300 254.810869 -7832.968083
v 1337.754098 254.810869 -7832.968083
v 1308.345935 254.810869 -7812.165737
v 1315.345788 254.810869 -7375.050883
v 1340.653360 254.810869 -7357.148692
v 1340.653360 267.440466 -7357.148692
v 1315.345788 267.440466 -7375.050883
v 1864.264038 267.440466 -7357.148692
v 1864.264038 254.810869 -7357.148692
v 1889.571609 254.810869 -7375.050883
v 1889.571609 267.440466 -7375.050883
v 1889.571609 267.440466 -7810.114734
v 1889.571609 254.810869 -7810.114734
v 1864.264038 267.440466 -7828.016391
v 1864.264038 254.810869 -7828.016391
v 1340.653360 254.810869 -7828.016391
v 1340.653360 267.440466 -7828.016391
v 1315.345788 267.440466 -7810.114200
v 1315.345788 254.810869 -7810.114200
v 1896.571463 344.701309 -7372.998811
v 1896.571463 344.701309 -7812.165737
v 1867.163300 344.701309 -7832.968083
v 1337.754098 344.701309 -7832.968083
v 1308.345935 344.701309 -7812.165737
v 1308.345935 344.701309 -7372.998811
v 1337.754098 344.701309 -7352.197000
v 1867.163300 344.701309 -7352.197000
v 1332.380513 381.152298 -7341.197039
v 1332.380513 344.701309 -7341.197039
v 1872.536885 344.701309 -7341.197039
v 1872.536885 381.152298 -7341.197039
v 1872.536885 344.701309 -7843.968044
v 1332.380513 344.701309 -7843.968044
v 1332.380513 381.152298 -7843.968044
v 1872.537025 381.152298 -7843.967510
v 1294.345948 344.701309 -7368.101627
v 1294.345948 381.152298 -7368.102161
v 1294.345948 381.152298 -7817.063456
v 1294.345948 344.701309 -7817.063456
v 1910.571450 344.701309 -7368.101627
v 1910.571450 381.152298 -7368.101627
v 1910.571450 381.152298 -7817.063456
v 1910.571450 344.701309 -7817.063456
vt 0.375000 0.259281
vt 0.629641 0.254641
vt 0.375000 0.490719
vt 0.612501 1.000000
vt 0.387499 1.000000
vt 0.375000 0.990719
vt 0.387499 0.250000
vt 0.612501 0.000000
vt 0.134281 0.250000
vt 0.134281 0.000000
vt 0.365719 0.000000
vt 0.387499 0.750000
vt 0.612501 0.500000
vt 0.387499 0.000000
vt 0.365719 0.250000
vt 0.612501 0.250000
vt 0.387499 0.500000
vt 0.375000 0.759281
vt 0.625000 0.490719
vt 0.612501 0.750000
vt 0.365719 0.181628
vt 0.387499 0.181628
vt 0.612501 0.181628
vt 0.634281 0.181628
vt 0.625000 0.564167
vt 0.612501 0.568371
vt 0.387499 0.568372
vt 0.134281 0.181628
vt 0.375000 0.564167
vt 0.365719 0.169105
vt 0.387499 0.169105
vt 0.612501 0.169105
vt 0.612501 0.580895
vt 0.387499 0.580895
vt 0.134281 0.169105
vt 0.375000 0.577621
vt 0.365719 0.169105
vt 0.387499 0.169105
vt 0.387499 0.181628
vt 0.365719 0.181628
vt 0.612501 0.181628
vt 0.612501 0.169105
vt 0.634281 0.169105
vt 0.634281 0.181628
vt 0.612501 0.568371
vt 0.625000 0.564167
vt 0.625000 0.577621
vt 0.612501 0.580895
vt 0.387499 0.580895
vt 0.387499 0.568372
vt 0.375000 0.564167
vt 0.375000 0.577621
vt 0.134281 0.181628
vt 0.134281 0.169105
vt 0.630934 0.234292
vt 0.625000 0.511188
vt 0.612501 0.519055
vt 0.387499 0.519055
vt 0.134281 0.230945
vt 0.375000 0.511188
vt 0.365719 0.230945
vt 0.387499 0.230945
vt 0.612501 0.230945
vt 0.387499 0.230945
vt 0.612501 0.230945
vt 0.612501 0.250000
vt 0.387499 0.250000
vt 0.612501 0.519055
vt 0.387499 0.519055
vt 0.387499 0.500000
vt 0.612501 0.500000
vt 0.365719 0.250000
vt 0.134281 0.250000
vt 0.134281 0.230945
vt 0.365719 0.230945
vt 0.630934 0.234292
vt 0.629641 0.254641
vt 0.375000 0.490719
vt 0.375000 0.511188
vt 0.625000 0.490719
vt 0.625000 0.511188
vt 0.634281 0.169105
vt 0.629641 0.495359
vt 0.625000 0.577621
vt 0.625000 0.759281
vn 0.000000 0.000000 1.000000
vn 0.000000 0.000000 1.000000
vn 0.000000 0.000000 1.000000
vn 0.000000 0.000000 1.000000
vn 0.000001 0.000007 -1.000000
vn 0.000001 0.000007 -1.000000
vn 0.000001 0.000007 -1.000000
vn 0.000001 0.000007 -1.000000
vn -1.000000 -0.000001 0.000000
vn -1.000000 -0.000001 0.000000
vn -1.000000 -0.000001 0.000000
vn -1.000000 -0.000001 0.000000
vn 0.000000 1.000000 -0.000000
vn 0.000000 1.000000 0.000000
vn 0.000000 1.000000 -0.000000
vn 0.000000 1.000000 -0.000000
vn 0.000000 -1.000000 -0.000000
vn 0.000000 -1.000000 -0.000000
vn 0.000000 -1.000000 -0.000000
vn 0.000000 -1.000000 -0.000000
vn -0.577499 0.000006 0.816392
vn -0.577499 0.000006 0.816392
vn -0.577499 0.000006 0.816392
vn -0.577499 0.000006 0.816392
vn 0.577495 0.000000 0.816395
vn 0.577495 0.000000 0.816395
vn 0.577495 0.000000 0.816395
vn 0.577495 0.000000 0.816395
vn -0.577495 0.000000 -0.816394
vn -0.577495 0.000000 -0.816394
vn -0.577495 0.000000 -0.816394
vn -0.577495 0.000000 -0.816394
vn 0.577492 0.000005 -0.816397
vn 0.577492 0.000005 -0.816397
vn 0.577492 0.000005 -0.816397
vn 0.577492 0.000005 -0.816397
vn 0.000000 1.000000 0.000000
vn 0.000000 1.000000 0.000000
vn 0.000000 1.000000 -0.000001
vn 0.000000 1.000000 -0.000001
vn -0.577502 0.000000 0.816389
vn -0.577502 0.000000 0.816389
vn -0.577502 0.000000 0.816389
vn -0.577502 0.000000 0.816389
vn 0.000000 0.000000 1.000000
vn 0.000000 0.000000 1.000000
vn 0.000000 0.000000 1.000000
vn 0.000000 0.000000 1.000000
vn 0.577502 0.000000 0.816389
vn 0.577502 0.000000 0.816389
vn 0.577502 0.000000 0.816389
vn 0.577502 0.000000 0.816389
vn 0.577491 0.000000 -0.816397
vn 0.577491 0.000000 -0.816397
vn 0.577491 0.000000 -0.816397
vn 0.577491 0.000000 -0.816397
vn 0.000000 0.000000 -1.000000
vn 0.000000 0.000000 -1.000000
vn 0.000000 0.000000 -1.000000
vn 0.000000 0.000000 -1.000000
vn -0.577502 0.000000 -0.816389
vn -0.577502 0.000000 -0.816389
vn -0.577502 0.000000 -0.816389
vn -0.577502 0.000000 -0.816389
vn -1.000000 0.000000 0.000000
vn -1.000000 0.000000 0.000000
vn -1.000000 0.000000 0.000000
vn -1.000000 0.000000 0.000000
vn -0.577482 0.000000 0.816404
vn -0.577482 0.000000 0.816404
vn -0.577482 0.000000 0.816404
vn -0.577482 0.000000 0.816404
vn 0.000000 0.000000 1.000000
vn 0.000000 0.000000 1.000000
vn 0.000000 0.000000 1.000000
vn 0.000000 0.000000 1.000000
vn 0.577482 0.000000 0.816404
vn 0.577482 0.000000 0.816404
vn 0.577482 0.000000 0.816404
vn 0.577482 0.000000 0.816404
vn 0.577491 0.000000 -0.816397
vn 0.577491 0.000000 -0.816397
vn 0.577491 0.000000 -0.816397
vn 0.577491 0.000000 -0.816397
vn 0.000000 0.000000 -1.000000
vn 0.000000 0.000000 -1.000000
vn 0.000000 0.000000 -1.000000
vn 0.000000 0.000000 -1.000000
vn -0.577491 0.000000 -0.816397
vn -0.577491 0.000000 -0.816397
vn -0.577491 0.000000 -0.816397
vn -0.577491 0.000000 -0.816397
vn -1.000000 0.000000 0.000000
vn -1.000000 0.000000 0.000000
vn -1.000000 0.000000 0.000000
vn -1.000000 0.000000 0.000000
vn 0.000000 1.000000 -0.000000
vn 0.000000 1.000000 -0.000001
vn 0.000000 1.000000 -0.000001
vn 0.000000 1.000000 -0.000000
vn 0.000000 -1.000000 0.000002
vn 0.000000 -1.000000 -0.000000
vn 0.000000 -1.000000 -0.000000
vn 0.000000 -1.000000 0.000002
vn 0.000000 -1.000000 0.000002
vn 0.000000 -1.000000 0.000002
vn 0.000000 1.000000 -0.000001
vn 0.000000 1.000000 -0.000001
vn 0.000000 1.000000 -0.000002
vn 0.000000 1.000000 -0.000002
vn 0.000000 -1.000000 -0.000002
vn 0.000000 -1.000000 -0.000002
vn 0.000000 -1.000000 -0.000002
vn 0.000000 -1.000000 0.000000
vn 0.000000 -1.000000 0.000000
vn 0.000000 -1.000000 -0.000002
vn 0.000000 1.000000 0.000002
vn 0.000000 1.000000 0.000001
vn 0.000000 1.000000 0.000001
vn 0.000000 1.000000 0.000002
vn 0.000000 1.000000 0.000001
vn 0.000000 1.000000 0.000001
vn 0.000000 -1.000000 -0.000002
vn 0.000000 -1.000000 -0.000002
vn 0.000000 -1.000000 0.000000
vn 0.000000 -1.000000 0.000000
vn 0.000000 1.000000 0.000000
vn 0.000000 1.000000 0.000000
vn 1.000000 0.000000 0.000000
vn 1.000000 0.000000 0.000000
vn 1.000000 0.000000 0.000000
vn 1.000000 0.000000 0.000000
vn 0.000000 -1.000000 0.000000
vn 0.000000 -1.000000 0.000000
vn 0.000000 -1.000000 0.000000
vn 0.000000 -1.000000 0.000000
vn 1.000000 0.000000 0.000000
vn 1.000000 0.000000 0.000000
vn 1.000000 0.000000 0.000000
vn 1.000000 0.000000 0.000000
vn 1.000000 0.000000 0.000000
vn 1.000000 0.000000 0.000000
vn 1.000000 0.000000 0.000000
vn 1.000000 0.000000 0.000000
vn 0.577491 0.000000 -0.816397
vn 0.577491 0.000000 -0.816397
vn 0.577491 0.000000 -0.816397
vn 0.577491 0.000000 -0.816397
vn 0.000000 0.000000 -1.000000
vn 0.000000 0.000000 -1.000000
vn 0.000000 0.000000 -1.000000
vn 0.000000 0.000000 -1.000000
vn -0.577491 0.000000 -0.816397
vn -0.577491 0.000000 -0.816397
vn -0.577491 0.000000 -0.816397
vn -0.577491 0.000000 -0.816397
vn -1.000000 0.000000 0.000000
vn -1.000000 0.000000 0.000000
vn -1.000000 0.000000 0.000000
vn -1.000000 0.000000 0.000000
vn -0.577482 0.000000 0.816404
vn -0.577482 0.000000 0.816404
vn -0.577482 0.000000 0.816404
vn -0.577482 0.000000 0.816404
vn 0.000000 0.000000 1.000000
vn 0.000000 0.000000 1.000000
vn 0.000000 0.000000 1.000000
vn 0.000000 0.000000 1.000000
vn 0.577482 0.000000 0.816404
vn 0.577482 0.000000 0.816404
vn 0.577482 0.000000 0.816404
vn 0.577482 0.000000 0.816404
vn 0.000000 -1.000000 0.000001
vn 0.000000 -1.000000 0.000001
vn 0.000000 -1.000000 0.000001
vn 0.000000 -1.000000 0.000001
vn 0.000000 1.000000 0.000002
vn 0.000000 1.000000 0.000002
vn 0.000000 -1.000000 -0.000001
vn 0.000000 -1.000000 -0.000001
vn 0.000000 -1.000000 -0.000001
vn 0.000000 -1.000000 -0.000001
vn 0.000000 1.000000 -0.000002
vn 0.000000 1.000000 -0.000002
vn 0.000000 1.000000 -0.000000
vn 0.000000 1.000000 0.000000
vn 0.000000 -1.000000 0.000000
vn 0.000000 -1.000000 0.000000
vn 0.000000 -1.000000 -0.000000
vn 0.000000 -1.000000 -0.000000
vn 0.000000 -1.000000 0.000000
vn 0.000000 -1.000000 0.000000
vn 0.000000 1.000000 0.000000
vn 0.000000 1.000000 -0.000000
vn 0.000000 -1.000000 -0.000000
vn 0.000000 -1.000000 -0.000000
vn 0.000000 1.000000 0.000000
vn 0.000000 1.000000 0.000000
vn 0.000000 1.000000 0.000000
vn 0.000000 1.000000 0.000000
vn 1.000000 0.000000 0.000000
vn 1.000000 0.000000 0.000000
vn 1.000000 0.000000 0.000000
vn 1.000000 0.000000 0.000000
vn 0.000000 -1.000000 0.000000
vn 0.000000 -1.000000 0.000000
vn 0.000000 -1.000000 0.000000
vn 0.000000 -1.000000 0.000000
s off
g pasted__pCube34 house5 group22
f 57/67/1 58/64/2 59/65/3 60/66/4
f 61/68/5 62/69/6 63/70/7 64/71/8
f 65/75/9 66/72/10 67/73/11 68/74/12
s 1
f 3/1/13 7/2/14 14/19/15 9/3/16
s 2
f 15/85/17 11/18/18 12/12/19 16/20/20
s off
f 65/75/21 58/64/22 57/67/23 66/72/24
f 59/65/25 69/76/26 70/77/27 60/66/28
f 67/78/29 63/70/30 62/69/31 68/79/32
f 64/71/33 71/80/34 72/81/35 61/68/36
s 1
f 3/1/13 4/7/37 8/16/38 7/2/14
f 9/3/16 14/19/15 13/13/39 10/17/40
s off
f 33/37/41 34/38/42 35/39/43 36/40/44
f 37/41/45 35/39/46 34/38/47 38/42/48
f 38/42/49 39/43/50 40/44/51 37/41/52
f 43/45/53 41/46/54 42/47/55 44/48/56
f 44/48/57 45/49/58 46/50/59 43/45/60
f 47/51/61 46/50/62 45/49/63 48/52/64
f 33/37/65 36/40/66 47/53/67 48/54/68
f 1/11/69 2/14/70 26/31/71 25/30/72
f 27/32/73 26/31/74 2/14/75 6/8/76
f 6/8/77 5/83/78 28/82/79 27/32/80
f 30/33/81 29/84/82 15/85/83 16/20/84
f 12/12/85 31/34/86 30/33/87 16/20/88
f 32/36/89 31/34/90 12/12/91 11/18/92
f 1/11/93 25/30/94 32/35/95 11/10/96
s 3
f 25/30/97 26/31/98 34/38/99 33/37/100
s 4
f 18/22/101 17/21/102 36/40/103 35/39/104
f 19/23/105 18/22/101 35/39/104 37/41/106
s 3
f 26/31/98 27/32/107 38/42/108 34/38/99
f 27/32/107 28/82/109 39/43/110 38/42/108
s 4
f 20/24/111 19/23/105 37/41/106 40/44/112
f 22/26/113 21/25/114 41/46/115 43/45/116
s 3
f 29/84/117 30/33/118 44/48/119 42/47/120
f 30/33/118 31/34/121 45/49/122 44/48/119
s 4
f 23/27/123 22/26/113 43/45/116 46/50/124
f 24/29/125 23/27/123 46/50/124 47/51/126
s 3
f 31/34/121 32/36/127 48/52/128 45/49/122
f 25/30/97 33/37/100 48/54/128 32/35/127
s 4
f 36/40/103 17/21/102 24/28/125 47/53/126
s off
f 70/77/129 69/76/130 72/81/131 71/80/132
f 20/24/133 40/44/134 41/46/135 21/25/136
f 40/44/137 39/43/138 42/47/139 41/46/140
f 49/55/141 20/24/142 21/25/143 50/56/144
f 51/57/145 50/56/146 21/25/147 22/26/148
f 22/26/149 23/27/150 52/58/151 51/57/152
f 53/60/153 52/58/154 23/27/155 24/29/156
f 17/21/157 54/61/158 53/59/159 24/28/160
f 17/21/161 18/22/162 55/62/163 54/61/164
f 56/63/165 55/62/166 18/22/167 19/23/168
f 19/23/169 20/24/170 49/55/171 56/63/172
s 7
f 55/62/173 56/63/174 59/65/175 58/64/176
s 1
f 8/16/38 4/7/37 57/67/177 60/66/178
s 7
f 51/57/179 52/58/180 62/69/181 61/68/182
s 1
f 10/17/40 13/13/39 64/71/183 63/70/184
f 66/72/185 3/15/13 9/9/16 67/73/186
s 7
f 54/61/187 65/75/188 68/74/189 53/59/190
f 54/61/187 55/62/173 58/64/176 65/75/188
s 1
f 4/7/37 3/15/13 66/72/185 57/67/177
s 7
f 56/63/174 49/55/191 69/76/192 59/65/175
s 1
f 7/2/14 8/16/38 60/66/178 70/77/193
f 9/3/16 10/17/40 63/70/184 67/78/186
s 7
f 52/58/180 53/60/190 68/79/189 62/69/181
s 1
f 13/13/39 14/19/15 71/80/194 64/71/183
s 7
f 50/56/195 51/57/179 61/68/182 72/81/196
f 69/76/192 49/55/191 50/56/195 72/81/196
s 1
f 7/2/14 70/77/193 71/80/194 14/19/15
s off
f 39/43/197 28/82/198 29/84/199 42/47/200
f 29/84/201 28/82/202 5/83/203 15/85/204
s 2
f 5/83/205 6/4/206 2/5/207 1/6/208
f 5/83/205 1/6/208 11/18/18 15/85/17
