# This file uses meters as units for non-parametric coordinates.

g default
v 2118.353563 242.161172 -7363.518227
v 2118.353665 26.374885 -7363.518227
v 2246.912418 26.374885 -7363.518353
v 2246.912215 242.161172 -7363.518227
v 2118.353563 242.161172 -7350.583250
v 2118.353665 26.374885 -7350.583250
v 2246.912418 26.374885 -7350.583250
v 2246.912215 242.161172 -7350.583250
v 2127.281691 232.780745 -7344.063114
v 2120.968932 239.413298 -7347.322866
v 2244.297050 239.413324 -7347.322866
v 2237.984290 232.780745 -7344.063114
v 2127.281792 35.755292 -7344.063114
v 2120.969033 29.122739 -7347.322866
v 2237.984290 35.755292 -7344.063114
v 2244.297050 29.122739 -7347.322866
v 2136.559542 135.615195 -7344.063114
v 2136.559440 224.160470 -7344.063114
v 2228.706440 135.615195 -7344.063241
v 2228.706440 224.160470 -7344.063114
v 2136.559542 93.419670 -7349.563535
v 2136.559440 224.160470 -7349.563535
v 2228.706440 93.419670 -7349.563535
v 2228.706440 224.160470 -7349.563535
v 2118.353563 203.742631 -7363.518227
v 2246.912418 203.742631 -7363.518227
v 2118.353563 192.456008 -7363.518227
v 2246.912418 192.456008 -7363.518227
v 2118.353563 203.742631 -7363.518227
v 2118.353563 192.456008 -7363.518227
v 2246.912418 192.456008 -7363.518227
v 2246.912418 203.742631 -7363.518227
vt 0.648924 0.000000
vt 0.711146 0.000000
vt 0.711146 0.250000
vt 0.648924 0.250000
vt 0.652634 0.240386
vt 0.707435 0.240386
vt 0.707436 0.009614
vt 0.648924 0.250000
vt 0.710059 0.247184
vt 0.650013 0.247177
vt 0.648924 0.000000
vt 0.650011 0.002816
vt 0.711146 0.000000
vt 0.710056 0.002823
vt 0.711146 0.250000
vt 0.652634 0.009614
vt 0.652634 0.240386
vt 0.652634 0.009614
vt 0.707436 0.009614
vt 0.707435 0.240386
vt 0.652634 0.240386
vt 0.652634 0.009614
vt 0.707436 0.009614
vt 0.707435 0.240386
vt 0.648924 0.181628
vt 0.711146 0.181628
vt 0.648924 0.169105
vt 0.711146 0.169105
vt 0.648924 0.181628
vt 0.648924 0.169105
vt 0.711146 0.169105
vt 0.711146 0.181628
vn -1.000000 -0.000000 0.000008
vn -1.000000 -0.000000 0.000008
vn -1.000000 -0.000000 0.000008
vn -1.000000 -0.000000 0.000008
vn -1.000000 -0.000000 0.000008
vn -1.000000 -0.000000 0.000008
vn -0.000000 -1.000000 0.000000
vn -0.000000 -1.000000 0.000000
vn -0.000000 -1.000000 0.000000
vn -0.000000 -1.000000 0.000000
vn 1.000000 0.000001 0.000008
vn 1.000000 0.000001 0.000008
vn 1.000000 0.000001 0.000008
vn 1.000000 0.000001 0.000008
vn 1.000000 0.000001 0.000008
vn 1.000000 0.000001 0.000008
vn 0.000000 1.000000 0.000000
vn 0.000000 1.000000 0.000000
vn 0.000000 1.000000 0.000000
vn 0.000000 1.000000 0.000000
vn -0.458805 -0.000000 0.888537
vn -0.671730 -0.000000 0.740796
vn -0.671729 -0.000000 0.740797
vn -0.458805 -0.000000 0.888537
vn -0.000000 0.655478 0.755214
vn -0.000000 0.441082 0.897467
vn -0.000000 0.441082 0.897467
vn -0.000000 0.655477 0.755215
vn 0.671735 0.000000 0.740791
vn 0.458818 0.000000 0.888530
vn 0.458818 0.000000 0.888530
vn 0.671735 0.000000 0.740792
vn 0.000000 -0.441083 0.897466
vn 0.000000 -0.655479 0.755213
vn 0.000000 -0.655479 0.755213
vn 0.000000 -0.441083 0.897466
vn 0.000000 0.764644 0.644453
vn 0.000000 0.764644 0.644453
vn -0.780063 -0.000000 0.625700
vn -0.780063 -0.000000 0.625700
vn 0.000000 -0.764644 0.644453
vn 0.000000 -0.764644 0.644453
vn 0.780063 0.000000 0.625700
vn 0.780063 0.000000 0.625700
vn 0.000000 0.000000 1.000000
vn 0.000000 0.000000 1.000000
vn 0.000000 0.000000 1.000000
vn 0.000000 0.000000 1.000000
vn 0.000000 -0.000000 1.000000
vn 0.000000 -0.000000 1.000000
vn 0.000000 -0.000000 1.000000
vn 0.000000 -0.000000 1.000000
vn 0.000001 0.000000 1.000000
vn 0.000001 0.000000 1.000000
vn 0.000001 0.000000 1.000000
vn 0.000001 0.000000 1.000000
vn -0.000009 0.000000 1.000000
vn -0.000009 0.000000 1.000000
vn -0.000009 0.000000 1.000000
vn -0.000009 0.000000 1.000000
vn 0.000000 0.000010 1.000000
vn 0.000000 0.000010 1.000000
vn 0.000000 0.000010 1.000000
vn 0.000000 0.000010 1.000000
vn 1.000000 0.000001 0.000019
vn 1.000000 0.000001 0.000019
vn 1.000000 0.000001 0.000019
vn 1.000000 0.000001 0.000019
vn -0.000001 0.129260 -0.991611
vn -0.000001 0.129260 -0.991611
vn -0.000001 0.129260 -0.991611
vn -0.000001 0.129260 -0.991611
vn -1.000000 0.000000 -0.000019
vn -1.000000 0.000000 -0.000019
vn -1.000000 0.000000 -0.000019
vn -1.000000 0.000000 -0.000019
vn 0.000000 -1.000000 0.000000
vn 0.000000 -1.000000 0.000000
vn 0.000000 -1.000000 0.000000
vn 0.000000 -1.000000 0.000000
vn 0.000000 0.000000 0.000000
vn 0.000000 0.000000 0.000000
vn 0.000000 0.000000 0.000000
vn 0.000000 0.000000 0.000000
vn 0.000000 0.000000 0.000000
vn 0.000000 0.000000 0.000000
vn 0.000000 0.000000 0.000000
vn 0.000000 0.000000 0.000000
vn -0.000000 0.000000 -1.000000
vn -0.000000 0.000000 -1.000000
vn -0.000000 0.000000 -1.000000
vn -0.000000 0.000000 -1.000000
vn -0.000000 -0.000000 -1.000000
vn -0.000000 -0.000000 -1.000000
vn -0.000000 -0.000000 -1.000000
vn -0.000000 -0.000000 -1.000000
vn -0.000000 0.000000 -0.000000
vn -0.000000 0.000000 -0.000000
vn -0.000000 0.000000 -0.000000
vn -0.000000 0.000000 -0.000000
s off
g pasted__pCube38 house5 group22
f 5/8/1 1/4/2 25/25/3 27/27/4 2/1/5 6/11/6
f 2/1/7 3/2/8 7/13/9 6/11/10
f 26/26/11 4/3/12 8/15/13 7/13/14 3/2/15 28/28/16
f 4/3/17 1/4/18 5/8/19 8/15/20
s 1
f 9/5/21 10/10/22 14/12/23 13/16/24
s 2
f 10/10/25 9/5/26 12/6/27 11/9/28
s 3
f 11/9/29 12/6/30 15/7/31 16/14/32
s 4
f 13/16/33 14/12/34 16/14/35 15/7/36
s 2
f 5/8/37 10/10/25 11/9/28 8/15/38
s 1
f 10/10/22 5/8/39 6/11/40 14/12/23
s 4
f 14/12/34 6/11/41 7/13/42 16/14/35
s 3
f 8/15/43 11/9/29 16/14/32 7/13/44
s off
f 24/24/45 22/21/46 21/22/47 23/23/48
f 18/17/49 9/5/50 13/16/51 17/18/52
f 13/16/53 15/7/54 19/19/55 17/18/56
f 12/6/57 20/20/58 19/19/59 15/7/60
f 12/6/61 9/5/62 18/17/63 20/20/64
f 22/21/65 18/17/66 17/18/67 21/22/68
f 17/18/69 19/19/70 23/23/71 21/22/72
f 20/20/73 24/24/74 23/23/75 19/19/76
f 20/20/77 18/17/78 22/21/79 24/24/80
f 27/27/81 25/25/82 29/29/83 30/30/84
f 26/26/85 28/28/86 31/31/87 32/32/88
s 5
f 4/3/89 26/26/90 25/25/91 1/4/92
f 27/27/93 28/28/94 3/2/95 2/1/96
f 25/25/91 26/26/90 32/32/97 31/31/98 28/28/94 27/27/93 30/30/99 29/29/100
