# This file uses meters as units for non-parametric coordinates.

g default
v 2574.923255 409.064743 -7358.671728
v 2542.947190 414.337449 -7375.226212
v 2542.947190 414.337449 -7399.678923
v 2574.923255 409.064743 -7416.233401
v 2137.512143 414.337449 -7375.226212
v 2097.546038 409.064743 -7358.671728
v 2137.512143 414.337449 -7399.678923
v 2097.546038 409.064743 -7416.233401
v 2455.591243 373.634284 -7362.141391
v 2574.923255 378.906990 -7358.671728
v 2455.591243 373.634284 -7412.763744
v 2574.923255 378.906990 -7416.233401
v 2216.878960 373.634284 -7362.141391
v 2097.546038 378.906990 -7358.671728
v 2216.878960 373.634284 -7412.763744
v 2097.546038 378.906990 -7416.233401
vt 0.375000 0.532385
vt 0.390069 0.437506
vt 0.390069 0.312494
vt 0.609931 0.312494
vt 0.609931 0.437506
vt 0.375000 1.000000
vt 0.390069 0.937506
vt 0.625000 1.000000
vt 0.609931 0.937506
vt 0.625000 0.717615
vt 0.609931 0.812494
vt 0.390069 0.812494
vt 0.625000 0.032385
vt 0.375000 0.217615
vt 0.625000 0.532385
vt 0.375000 0.717615
vt 0.875000 0.032385
vt 0.875000 0.217615
vt 0.625000 0.217615
vt 0.125000 0.032385
vt 0.375000 0.032385
vt 0.125000 0.217615
vn 0.000000 0.952837 0.303484
vn 0.000000 0.952837 0.303484
vn 0.000000 0.952836 0.303484
vn 0.000000 0.952836 0.303484
vn 0.162698 0.986676 0.000000
vn 0.162698 0.986676 0.000000
vn 0.162698 0.986676 0.000000
vn 0.162698 0.986676 0.000000
vn 0.000000 0.952836 -0.303484
vn 0.000000 0.952836 -0.303484
vn 0.000000 0.952836 -0.303484
vn 0.000000 0.952836 -0.303484
vn -0.130796 0.991409 -0.000000
vn -0.130796 0.991409 -0.000000
vn -0.130796 0.991409 -0.000000
vn -0.130796 0.991409 -0.000000
vn 0.000000 1.000000 0.000000
vn 0.000000 1.000000 0.000000
vn 0.000000 1.000000 0.000000
vn 0.000000 1.000000 0.000000
vn 0.000000 -0.549703 0.835360
vn 0.000000 -0.549703 0.835360
vn 0.000000 -0.549703 0.835360
vn 0.000000 -0.549703 0.835360
vn 0.044142 -0.999025 0.000000
vn 0.044142 -0.999025 0.000000
vn 0.044142 -0.999025 0.000000
vn 0.044142 -0.999025 0.000000
vn 0.000000 -0.549702 -0.835361
vn 0.000000 -0.549702 -0.835361
vn 0.000000 -0.549702 -0.835361
vn 0.000000 -0.549702 -0.835361
vn -0.044142 -0.999025 0.000000
vn -0.044142 -0.999025 0.000000
vn -0.044142 -0.999025 0.000000
vn -0.044142 -0.999025 0.000000
vn 0.000000 -1.000000 0.000000
vn 0.000000 -1.000000 0.000000
vn 0.000000 -1.000000 0.000000
vn 0.000000 -1.000000 0.000000
vn 1.000000 0.000000 0.000000
vn 1.000000 0.000000 0.000000
vn 1.000000 0.000000 0.000000
vn 1.000000 0.000000 0.000000
vn -1.000000 0.000000 -0.000000
vn -1.000000 0.000000 -0.000000
vn -1.000000 0.000000 -0.000000
vn -1.000000 0.000000 -0.000000
vn 0.000000 0.000000 -1.000000
vn 0.000000 0.000000 -1.000000
vn 0.000000 0.000000 -1.000000
vn 0.000000 0.000000 -1.000000
vn 0.000000 0.000000 1.000000
vn 0.000000 0.000000 1.000000
vn 0.000000 0.000000 1.000000
vn 0.000000 0.000000 1.000000
s off
g pasted__pCube37 house5 group22
f 1/14/1 2/3/2 5/2/3 6/1/4
f 2/3/5 1/14/6 4/19/7 3/4/8
f 3/4/9 4/19/10 8/15/11 7/5/12
f 6/1/13 5/2/14 7/5/15 8/15/16
f 2/3/17 3/4/18 7/5/19 5/2/20
f 9/7/21 10/6/22 14/16/23 13/12/24
f 10/6/25 9/7/26 11/9/27 12/8/28
f 12/8/29 11/9/30 15/11/31 16/10/32
f 13/12/33 14/16/34 16/10/35 15/11/36
f 13/12/37 15/11/38 11/9/39 9/7/40
f 10/21/41 12/13/42 4/19/43 1/14/44
f 6/1/45 8/15/46 16/10/47 14/16/48
f 12/13/49 16/17/50 8/18/51 4/19/52
f 14/20/53 10/21/54 1/14/55 6/22/56
