# This file uses meters as units for non-parametric coordinates.

g default
v 2485.384772 379.772776 -7495.398146
v 2625.384755 379.772776 -7495.398146
v 2485.384772 529.892039 -7495.398146
v 2625.384755 529.892039 -7495.398146
v 2485.384772 529.892039 -7690.056680
v 2625.384755 529.892039 -7690.056680
v 2485.384772 379.772776 -7690.056680
v 2625.384755 379.772776 -7690.056680
v 2625.384755 529.892039 -7507.734989
v 2485.384772 529.892039 -7507.734989
v 2485.384772 379.772776 -7507.734989
v 2625.384755 379.772776 -7507.734989
v 2625.384755 529.892039 -7672.585990
v 2485.384772 529.892039 -7672.585990
v 2485.384772 379.772776 -7672.585990
v 2625.384755 379.772776 -7672.585990
v 2514.228339 529.892039 -7507.734989
v 2514.228339 529.892039 -7495.398146
v 2514.228339 379.772776 -7495.398146
v 2514.228339 379.772776 -7507.734989
v 2514.228339 379.772776 -7672.585990
v 2514.228339 379.772776 -7690.056680
v 2514.228339 529.892039 -7690.056680
v 2514.228339 529.892039 -7672.585990
v 2514.228339 547.278241 -7495.398146
v 2625.384755 547.278241 -7495.398146
v 2625.384755 547.278241 -7507.734989
v 2514.228339 547.278241 -7507.734989
v 2625.384755 547.278241 -7672.585990
v 2514.228339 547.278241 -7672.585990
v 2625.384755 547.278241 -7690.056680
v 2514.228339 547.278241 -7690.056680
v 2485.384772 547.278241 -7495.398146
v 2485.384772 547.278241 -7507.734989
v 2485.384772 547.278241 -7672.585990
v 2485.384772 547.278241 -7690.056680
v 2625.384755 386.046622 -7514.624486
v 2625.384755 523.618193 -7514.624486
v 2625.384755 386.046622 -7665.696447
v 2625.384755 523.618193 -7665.696447
v 2612.279190 386.046622 -7514.624486
v 2612.279190 523.618193 -7514.624486
v 2612.279190 386.046622 -7665.696447
v 2612.279190 523.618193 -7665.696447
vt 0.375000 0.000000
vt 0.625000 0.000000
vt 0.375000 0.250000
vt 0.625000 0.250000
vt 0.375000 0.500000
vt 0.625000 0.500000
vt 0.375000 0.750000
vt 0.625000 0.750000
vt 0.375000 1.000000
vt 0.625000 1.000000
vt 0.875000 0.000000
vt 0.875000 0.250000
vt 0.125000 0.000000
vt 0.125000 0.250000
vt 0.625000 0.265844
vt 0.640844 0.250000
vt 0.359156 0.250000
vt 0.375000 0.265844
vt 0.359156 0.000000
vt 0.375000 0.984156
vt 0.625000 0.984156
vt 0.640844 0.000000
vt 0.625000 0.477563
vt 0.852563 0.250000
vt 0.147437 0.250000
vt 0.375000 0.477563
vt 0.147437 0.000000
vt 0.375000 0.772437
vt 0.625000 0.772437
vt 0.852563 0.000000
vt 0.426506 0.265844
vt 0.426506 0.250000
vt 0.426506 0.000000
vt 0.426506 1.000000
vt 0.426506 0.984156
vt 0.426506 0.772437
vt 0.426506 0.750000
vt 0.426506 0.500000
vt 0.426506 0.477563
vt 0.426506 0.250000
vt 0.625000 0.250000
vt 0.625000 0.265844
vt 0.426506 0.265844
vt 0.426506 0.477563
vt 0.625000 0.477563
vt 0.625000 0.500000
vt 0.426506 0.500000
vt 0.375000 0.250000
vt 0.375000 0.265844
vt 0.375000 0.500000
vt 0.375000 0.477563
vt 0.640844 0.250000
vt 0.640844 0.000000
vt 0.852563 0.000000
vt 0.852563 0.250000
vt 0.640844 0.250000
vt 0.640844 0.000000
vt 0.852563 0.000000
vt 0.852563 0.250000
vn 0.000000 0.000000 1.000000
vn 0.000000 0.000000 1.000000
vn 0.000000 0.000000 1.000000
vn 0.000000 0.000000 1.000000
vn 0.000000 1.000000 0.000000
vn 0.000000 1.000000 0.000000
vn 0.000000 1.000000 0.000000
vn 0.000000 1.000000 0.000000
vn 0.000000 0.000000 -1.000000
vn 0.000000 0.000000 -1.000000
vn 0.000000 0.000000 -1.000000
vn 0.000000 0.000000 -1.000000
vn 0.000000 -1.000000 0.000000
vn 0.000000 -1.000000 0.000000
vn 0.000000 -1.000000 0.000000
vn 0.000000 -1.000000 0.000000
vn 1.000000 0.000000 0.000000
vn 1.000000 0.000000 0.000000
vn 1.000000 0.000000 0.000000
vn 1.000000 0.000000 0.000000
vn -1.000000 0.000000 0.000000
vn -1.000000 0.000000 0.000000
vn -1.000000 0.000000 0.000000
vn -1.000000 0.000000 0.000000
vn 0.000000 1.000000 0.000000
vn 0.000000 1.000000 0.000000
vn 0.000000 1.000000 0.000000
vn 0.000000 1.000000 0.000000
vn -1.000000 0.000000 0.000000
vn -1.000000 0.000000 0.000000
vn 0.000000 -1.000000 0.000000
vn 0.000000 -1.000000 0.000000
vn 1.000000 0.000000 0.000000
vn 1.000000 0.000000 0.000000
vn 1.000000 0.000000 0.000000
vn 1.000000 0.000000 0.000000
vn 0.000000 1.000000 0.000000
vn 0.000000 1.000000 0.000000
vn 0.000000 1.000000 0.000000
vn 0.000000 1.000000 0.000000
vn -1.000000 0.000000 0.000000
vn -1.000000 0.000000 0.000000
vn 0.000000 -1.000000 0.000000
vn 0.000000 -1.000000 0.000000
vn 1.000000 0.000000 0.000000
vn 1.000000 0.000000 0.000000
vn 1.000000 0.000000 0.000000
vn 1.000000 0.000000 0.000000
vn 0.000000 1.000000 0.000000
vn 0.000000 1.000000 0.000000
vn 0.000000 0.000000 1.000000
vn 0.000000 0.000000 1.000000
vn 0.000000 -1.000000 0.000000
vn 0.000000 -1.000000 0.000000
vn 0.000000 -1.000000 0.000000
vn 0.000000 -1.000000 0.000000
vn 0.000000 0.000000 -1.000000
vn 0.000000 0.000000 -1.000000
vn 0.000000 1.000000 0.000000
vn 0.000000 1.000000 0.000000
vn 0.000000 0.000000 1.000000
vn 0.000000 0.000000 1.000000
vn 0.000000 0.000000 1.000000
vn 0.000000 0.000000 1.000000
vn 1.000000 0.000000 0.000000
vn 1.000000 0.000000 0.000000
vn 1.000000 0.000000 0.000000
vn 1.000000 0.000000 0.000000
vn 0.000000 0.000000 -1.000000
vn 0.000000 0.000000 -1.000000
vn 0.000000 0.000000 -1.000000
vn 0.000000 0.000000 -1.000000
vn 0.000000 0.000000 1.000000
vn 0.000000 0.000000 1.000000
vn 0.000000 0.000000 1.000000
vn 0.000000 0.000000 1.000000
vn 1.000000 0.000000 0.000000
vn 1.000000 0.000000 0.000000
vn 1.000000 0.000000 0.000000
vn 1.000000 0.000000 0.000000
vn 0.000000 0.000000 -1.000000
vn 0.000000 0.000000 -1.000000
vn 0.000000 0.000000 -1.000000
vn 0.000000 0.000000 -1.000000
vn 0.000000 0.000000 1.000000
vn 0.000000 0.000000 1.000000
vn 0.000000 0.000000 1.000000
vn 0.000000 0.000000 1.000000
vn -1.000000 0.000000 0.000000
vn -1.000000 0.000000 0.000000
vn -1.000000 0.000000 0.000000
vn -1.000000 0.000000 0.000000
vn 0.000000 0.000000 -1.000000
vn 0.000000 0.000000 -1.000000
vn 0.000000 0.000000 -1.000000
vn 0.000000 0.000000 -1.000000
vn -1.000000 0.000000 0.000000
vn -1.000000 0.000000 0.000000
vn -1.000000 0.000000 0.000000
vn -1.000000 0.000000 0.000000
vn 1.000000 0.000000 0.000000
vn 1.000000 0.000000 0.000000
vn 1.000000 0.000000 0.000000
vn 1.000000 0.000000 0.000000
vn -1.000000 0.000000 0.000000
vn -1.000000 0.000000 0.000000
vn -1.000000 0.000000 0.000000
vn -1.000000 0.000000 0.000000
vn 1.000000 0.000000 0.000000
vn 1.000000 0.000000 0.000000
vn 1.000000 0.000000 0.000000
vn 1.000000 0.000000 0.000000
vn 1.000000 0.000000 0.000000
vn 1.000000 0.000000 0.000000
vn 1.000000 0.000000 0.000000
vn 1.000000 0.000000 0.000000
vn 1.000000 0.000000 0.000000
vn 1.000000 0.000000 0.000000
vn 1.000000 0.000000 0.000000
vn 1.000000 0.000000 0.000000
vn 1.000000 -0.000000 0.000000
vn 1.000000 -0.000000 0.000000
vn 1.000000 -0.000000 0.000000
vn 1.000000 -0.000000 0.000000
vn 0.000000 0.000000 -1.000000
vn 0.000000 0.000000 -1.000000
vn 0.000000 0.000000 -1.000000
vn 0.000000 0.000000 -1.000000
vn 0.000000 1.000000 0.000000
vn 0.000000 1.000000 0.000000
vn 0.000000 1.000000 0.000000
vn 0.000000 1.000000 0.000000
vn 0.000000 0.000000 1.000000
vn 0.000000 0.000000 1.000000
vn 0.000000 0.000000 1.000000
vn 0.000000 0.000000 1.000000
vn 0.000000 -1.000000 0.000000
vn 0.000000 -1.000000 0.000000
vn 0.000000 -1.000000 0.000000
vn 0.000000 -1.000000 0.000000
s 1
g pasted__pCube35 house5 group22
f 19/33/1 2/2/2 4/4/3 18/32/4
s 2
f 25/40/5 26/41/6 27/42/7 28/43/8
s 3
f 23/38/9 6/6/10 8/8/11 22/37/12
s 4
f 20/35/13 12/21/14 2/10/15 19/34/16
s off
f 2/2/17 12/22/18 9/16/19 4/4/20
s 5
f 11/19/21 1/1/22 3/3/23 10/17/24
s off
f 24/39/25 17/31/26 9/15/27 13/23/28
s 5
f 15/27/29 11/19/21 10/17/24 14/25/30
s 4
f 21/36/31 16/29/32 12/21/14 20/35/13
s off
f 42/56/33 41/57/34 43/58/35 44/59/36
s 2
f 30/44/37 29/45/38 31/46/39 32/47/40
s 5
f 7/13/41 15/27/29 14/25/30 5/14/42
s 4
f 22/37/43 8/8/44 16/29/32 21/36/31
s off
f 13/24/45 16/30/46 8/11/47 6/12/48
s 2
f 33/48/49 25/40/5 28/43/8 34/49/50
s 1
f 1/1/51 19/33/1 18/32/4 3/3/52
s 4
f 11/20/53 20/35/13 19/34/16 1/9/54
f 15/28/55 21/36/31 20/35/13 11/20/53
f 7/7/56 22/37/43 21/36/31 15/28/55
s 3
f 5/5/57 23/38/9 22/37/12 7/7/58
s 2
f 35/51/59 30/44/37 32/47/40 36/50/60
f 34/49/50 28/43/8 30/44/37 35/51/59
s off
f 18/32/61 4/4/62 26/41/63 25/40/64
f 4/4/65 9/15/66 27/42/67 26/41/68
f 9/15/69 17/31/70 28/43/71 27/42/72
f 24/39/73 13/23/74 29/45/75 30/44/76
f 13/23/77 6/6/78 31/46/79 29/45/80
f 6/6/81 23/38/82 32/47/83 31/46/84
f 3/3/85 18/32/86 25/40/87 33/48/88
f 10/18/89 3/3/90 33/48/91 34/49/92
f 23/38/93 5/5/94 36/50/95 32/47/96
f 5/5/97 14/26/98 35/51/99 36/50/100
f 17/31/101 24/39/102 30/44/103 28/43/104
f 14/26/105 10/18/106 34/49/107 35/51/108
f 9/16/109 12/22/110 37/53/111 38/52/112
f 12/22/113 16/30/114 39/54/115 37/53/116
f 16/30/117 13/24/118 40/55/119 39/54/120
f 13/24/121 9/16/122 38/52/123 40/55/124
f 38/52/125 37/53/126 41/57/127 42/56/128
f 37/53/129 39/54/130 43/58/131 41/57/132
f 39/54/133 40/55/134 44/59/135 43/58/136
f 40/55/137 38/52/138 42/56/139 44/59/140
