# This file uses meters as units for non-parametric coordinates.

g default
v 3112.226924 416.068949 -7170.053948
v 3116.732340 416.068949 -7165.548568
v 3112.226924 507.192231 -7170.053948
v 3116.732340 507.192231 -7165.548568
v 3130.250365 416.068949 -7170.053948
v 3125.744962 416.068949 -7165.548568
v 3130.250365 507.192231 -7170.053948
v 3125.744962 507.192231 -7165.548568
v 3112.226924 507.192231 -7179.066534
v 3116.732340 507.192231 -7183.571913
v 3112.226924 416.068949 -7179.066534
v 3116.732340 416.068949 -7183.571913
v 3125.744962 507.192231 -7183.571913
v 3130.250365 507.192231 -7179.066534
v 3130.250365 416.068949 -7179.066534
v 3125.744962 416.068949 -7183.571913
vt 0.375000 0.312494
vt 0.625000 0.312494
vt 0.375000 0.437506
vt 0.625000 0.812494
vt 0.625000 0.937506
vt 0.562506 1.000000
vt 0.437494 1.000000
vt 0.375000 0.937506
vt 0.437494 0.250000
vt 0.562506 0.000000
vt 0.187494 0.250000
vt 0.187494 0.000000
vt 0.312506 0.000000
vt 0.437494 0.750000
vt 0.562506 0.500000
vt 0.687494 0.250000
vt 0.812506 0.000000
vt 0.812506 0.250000
vt 0.437494 0.000000
vt 0.312506 0.250000
vt 0.687494 0.000000
vt 0.562506 0.250000
vt 0.437494 0.500000
vt 0.375000 0.812494
vt 0.625000 0.437506
vt 0.562506 0.750000
vn -0.315408 0.070186 0.946357
vn -0.315408 -0.070186 0.946357
vn 0.315408 -0.070186 0.946357
vn 0.315408 0.070186 0.946357
vn -0.315408 -0.070186 -0.946357
vn -0.315408 0.070186 -0.946357
vn 0.315408 0.070186 -0.946357
vn 0.315408 -0.070186 -0.946357
vn 0.938397 0.146945 0.312759
vn 0.938397 -0.146945 0.312759
vn 0.938397 -0.146945 -0.312759
vn 0.938397 0.146945 -0.312759
vn -0.938397 0.146945 -0.312760
vn -0.938397 -0.146945 -0.312760
vn -0.938397 -0.146945 0.312760
vn -0.938397 0.146945 0.312760
s 1
g pasted___pCube20 house23
f 4/9/1 2/19/2 6/10/3 8/22/4
f 12/14/5 10/23/6 13/15/7 16/26/8
f 7/16/9 5/21/10 15/17/11 14/18/12
f 9/11/13 11/12/14 1/13/15 3/20/16
f 9/3/13 14/25/12 13/15/7 10/23/6
f 11/24/14 12/14/5 16/26/8 15/4/11
f 1/13/15 2/19/2 4/9/1 3/20/16
f 6/10/3 5/21/10 7/16/9 8/22/4
f 9/3/13 10/23/6 12/14/5 11/24/14
f 13/15/7 14/25/12 15/4/11 16/26/8
f 3/1/16 4/9/1 8/22/4 7/2/9
f 3/1/16 7/2/9 14/25/12 9/3/13
f 1/8/15 5/5/10 6/6/3 2/7/2
f 11/24/14 15/4/11 5/5/10 1/8/15
