# This file uses meters as units for non-parametric coordinates.

g default
v 3972.860483 930.154846 -4337.396673
v 3968.185006 922.572693 -4328.338201
v 3980.381875 915.991089 -4328.338201
v 3985.058420 923.573608 -4337.396673
v 3972.860666 930.154846 -4352.691107
v 3985.058572 923.573608 -4352.691595
v 3968.184244 922.572693 -4361.750067
v 3980.381875 915.991089 -4361.750067
v 3960.106698 909.473206 -4361.750067
v 3972.304330 902.891663 -4361.750067
v 3955.430642 901.890564 -4352.691595
v 3967.628122 895.309082 -4352.691595
v 3955.430642 901.890564 -4337.396673
v 3967.628274 895.309265 -4337.396673
v 3960.106698 909.473206 -4328.338201
v 3972.304330 902.891663 -4328.338201
v 3968.848092 923.648560 -4340.523016
v 3966.496713 919.835999 -4336.002630
v 3978.694803 913.254700 -4336.002630
v 3981.045755 917.067322 -4340.523016
v 3968.848306 923.648560 -4349.565496
v 3981.045755 917.067322 -4349.565496
v 3966.496866 919.835999 -4354.085150
v 3978.694803 913.254700 -4354.085150
v 3961.793771 912.209412 -4354.085150
v 3973.991403 905.628052 -4354.085150
v 3959.442666 908.396912 -4349.565496
v 3971.640817 901.815613 -4349.565496
v 3959.442666 908.396912 -4340.523016
v 3971.640817 901.815613 -4340.523016
v 3961.793496 912.209412 -4336.002630
v 3973.991403 905.628052 -4336.002630
vt 0.687494 0.250000
vt 0.625000 0.187506
vt 0.625000 0.187506
vt 0.687494 0.250000
vt 0.812506 0.250000
vt 0.812506 0.250000
vt 0.875000 0.187506
vt 0.875000 0.187506
vt 0.875000 0.062494
vt 0.875000 0.062494
vt 0.812506 0.000000
vt 0.812506 0.000000
vt 0.687494 0.000000
vt 0.687494 0.000000
vt 0.625000 0.062494
vt 0.625000 0.062494
vt 0.687494 0.250000
vt 0.625000 0.187506
vt 0.625000 0.187506
vt 0.687494 0.250000
vt 0.812506 0.250000
vt 0.812506 0.250000
vt 0.875000 0.187506
vt 0.875000 0.187506
vt 0.875000 0.062494
vt 0.875000 0.062494
vt 0.812506 0.000000
vt 0.812506 0.000000
vt 0.687494 0.000000
vt 0.687494 0.000000
vt 0.625000 0.062494
vt 0.625000 0.062494
vn 0.141964 0.935474 0.323628
vn -0.123832 0.448840 0.884991
vn 0.445971 0.128527 0.885771
vn 0.716303 0.617760 0.324474
vn 0.141974 0.935471 -0.323631
vn 0.716292 0.617765 -0.324488
vn -0.123854 0.448849 -0.884983
vn 0.445971 0.128542 -0.885769
vn -0.445980 -0.128526 -0.885767
vn 0.123850 -0.448837 -0.884990
vn -0.716291 -0.617768 -0.324484
vn -0.141982 -0.935468 -0.323635
vn -0.716292 -0.617767 0.324483
vn -0.141975 -0.935468 0.323638
vn -0.445976 -0.128535 0.885767
vn 0.123841 -0.448837 0.884991
vn -0.851159 0.524908 0.000006
vn -0.851156 0.524912 0.000051
vn 0.851168 -0.524893 0.000004
vn 0.851151 -0.524922 0.000007
vn -0.851161 0.524905 0.000006
vn 0.851149 -0.524924 -0.000001
vn -0.851168 0.524893 0.000016
vn 0.851167 -0.524895 -0.000006
vn -0.851177 0.524878 -0.000009
vn 0.851174 -0.524883 -0.000004
vn -0.851179 0.524876 -0.000010
vn 0.851159 -0.524909 -0.000003
vn -0.851187 0.524863 0.000011
vn 0.851163 -0.524902 0.000001
vn -0.851175 0.524882 0.000047
vn 0.851178 -0.524877 0.000001
vn 0.851179 -0.524875 0.000000
vn 0.851179 -0.524875 0.000000
vn 0.851179 -0.524875 0.000000
vn 0.851179 -0.524875 0.000000
vn 0.851171 -0.524888 0.000028
vn 0.851171 -0.524888 0.000028
vn 0.851171 -0.524888 0.000028
vn 0.851171 -0.524888 0.000028
vn 0.851174 -0.524884 -0.000028
vn 0.851174 -0.524884 -0.000028
vn 0.851174 -0.524884 -0.000028
vn 0.851174 -0.524884 -0.000028
vn -0.851161 0.524904 -0.000012
vn -0.851161 0.524904 -0.000012
vn -0.851161 0.524904 -0.000012
vn -0.851161 0.524904 -0.000012
vn -0.851166 0.524897 -0.000044
vn -0.851166 0.524897 -0.000044
vn -0.851166 0.524897 -0.000044
vn -0.851166 0.524897 -0.000044
vn -0.851162 0.524903 0.000036
vn -0.851162 0.524903 0.000036
vn -0.851162 0.524903 0.000036
vn -0.851162 0.524903 0.000036
s 1
g pasted__pasted___polySurface65 house1
f 1/1/1 2/2/2 3/3/3 4/4/4
f 5/5/5 1/1/1 4/4/4 6/6/6
f 7/7/7 5/5/5 6/6/6 8/8/8
f 9/9/9 7/7/7 8/8/8 10/10/10
f 11/11/11 9/9/9 10/10/10 12/12/12
f 13/13/13 11/11/11 12/12/12 14/14/14
f 15/15/15 13/13/13 14/14/14 16/16/16
f 2/2/2 15/15/15 16/16/16 3/3/3
f 17/17/17 18/18/18 2/2/2 1/1/1
f 19/19/19 20/20/20 4/4/4 3/3/3
f 21/21/21 17/17/17 1/1/1 5/5/5
f 20/20/20 22/22/22 6/6/6 4/4/4
f 23/23/23 21/21/21 5/5/5 7/7/7
f 22/22/22 24/24/24 8/8/8 6/6/6
f 25/25/25 23/23/23 7/7/7 9/9/9
f 24/24/24 26/26/26 10/10/10 8/8/8
f 27/27/27 25/25/25 9/9/9 11/11/11
f 26/26/26 28/28/28 12/12/12 10/10/10
f 29/29/29 27/27/27 11/11/11 13/13/13
f 28/28/28 30/30/30 14/14/14 12/12/12
f 31/31/31 29/29/29 13/13/13 15/15/15
f 30/30/30 32/32/32 16/16/16 14/14/14
f 18/18/18 31/31/31 15/15/15 2/2/2
f 32/32/32 19/19/19 3/3/3 16/16/16
s off
f 22/22/33 20/20/34 30/30/35 28/28/36
f 19/19/37 32/32/38 30/30/39 20/20/40
f 22/22/41 28/28/42 26/26/43 24/24/44
f 17/17/45 21/21/46 27/27/47 29/29/48
f 17/17/49 29/29/50 31/31/51 18/18/52
f 23/23/53 25/25/54 27/27/55 21/21/56
g default
v 3874.588113 908.474915 -4340.537298
v 3874.588113 912.984253 -4336.028265
v 3892.626047 904.392700 -4340.537298
v 3892.626047 908.901978 -4336.028265
v 3874.588113 926.513489 -4340.537298
v 3874.588113 922.004456 -4336.028265
v 3892.626047 922.431519 -4340.537298
v 3892.626047 917.922119 -4336.028265
v 3874.588113 922.004456 -4354.066473
v 3874.588113 926.513489 -4349.557317
v 3892.626047 917.922119 -4354.066473
v 3892.626047 922.431519 -4349.557317
v 3874.588113 908.474915 -4349.557317
v 3874.588113 912.984253 -4354.066473
v 3892.626047 904.392700 -4349.557317
v 3892.626047 908.901978 -4354.066473
v 3945.476144 911.620361 -4340.092230
v 3948.138864 915.798340 -4335.138128
v 3945.476144 911.620361 -4350.002996
v 3948.138864 915.798340 -4354.956976
v 3953.463815 924.156128 -4354.956976
v 3956.126535 928.334106 -4350.002996
v 3956.126535 928.334106 -4340.092230
v 3953.463815 924.156128 -4335.138128
v 3976.944406 915.324341 -4335.138128
v 3976.944406 915.324341 -4354.956976
v 3979.606851 919.502319 -4350.002996
v 3979.606851 919.502319 -4340.092230
v 3968.955758 902.788391 -4340.092230
v 3971.619211 906.966736 -4335.138128
v 3968.955758 902.788391 -4350.002996
v 3971.619211 906.966736 -4354.956976
v 3953.463815 924.156128 -4354.956976
v 3956.126535 928.334106 -4350.002996
v 3956.126535 928.334106 -4340.092230
v 3953.463815 924.156128 -4335.138128
v 3945.476144 911.620361 -4340.092230
v 3948.138864 915.798340 -4335.138128
v 3945.476144 911.620361 -4350.002996
v 3948.138864 915.798340 -4354.956976
v 3965.642648 919.575012 -4335.138128
v 3968.305154 923.752930 -4340.092230
v 3968.305154 923.752930 -4350.002996
v 3965.642648 919.575012 -4354.956976
v 3960.316781 911.217468 -4354.956976
v 3957.654886 907.039429 -4350.002996
v 3957.654886 907.039429 -4340.092230
v 3960.316781 911.217468 -4335.138128
v 3983.142404 911.374512 -4335.138128
v 3983.142404 911.374512 -4354.956976
v 3985.805063 915.552307 -4350.002996
v 3985.805063 915.552307 -4340.092230
v 3975.155191 898.838623 -4340.092230
v 3977.817026 903.016785 -4335.138128
v 3975.155191 898.838623 -4350.002996
v 3977.817026 903.016785 -4354.956976
vt 0.375000 0.062494
vt 0.625000 0.062494
vt 0.625000 0.187506
vt 0.375000 0.187506
vt 0.375000 0.312494
vt 0.625000 0.312494
vt 0.625000 0.437506
vt 0.375000 0.437506
vt 0.375000 0.562494
vt 0.625000 0.562494
vt 0.625000 0.687506
vt 0.375000 0.687506
vt 0.375000 0.812494
vt 0.625000 0.812494
vt 0.625000 0.937506
vt 0.375000 0.937506
vt 0.125000 0.187506
vt 0.312506 0.250000
vt 0.187494 0.250000
vt 0.312506 0.000000
vt 0.687494 0.000000
vt 0.687494 0.000000
vt 0.625000 0.062494
vt 0.812506 0.000000
vt 0.812506 0.000000
vt 0.875000 0.062494
vt 0.875000 0.062494
vt 0.875000 0.187506
vt 0.875000 0.187506
vt 0.812506 0.250000
vt 0.812506 0.250000
vt 0.687494 0.250000
vt 0.687494 0.250000
vt 0.625000 0.187506
vt 0.625000 0.187506
vt 0.875000 0.187506
vt 0.812506 0.250000
vt 0.687494 0.250000
vt 0.625000 0.062494
vt 0.687494 0.000000
vt 0.812506 0.000000
vt 0.875000 0.062494
vt 0.125000 0.062494
vt 0.187494 0.000000
vt 0.875000 0.187506
vt 0.812506 0.250000
vt 0.812506 0.250000
vt 0.875000 0.187506
vt 0.687494 0.250000
vt 0.687494 0.250000
vt 0.625000 0.187506
vt 0.625000 0.187506
vt 0.625000 0.062494
vt 0.687494 0.000000
vt 0.687494 0.000000
vt 0.625000 0.062494
vt 0.812506 0.000000
vt 0.812506 0.000000
vt 0.875000 0.062494
vt 0.875000 0.062494
vt 0.812506 0.250000
vt 0.875000 0.187506
vt 0.687494 0.250000
vt 0.625000 0.187506
vt 0.687494 0.000000
vt 0.625000 0.062494
vt 0.812506 0.000000
vt 0.875000 0.062494
vn -0.614778 -0.214569 0.758952
vn 0.005130 -0.363717 0.931496
vn -0.020192 0.329100 0.944079
vn -0.575253 0.297490 0.761960
vn -0.152492 0.943888 0.292955
vn -0.026187 0.954550 0.296899
vn -0.026188 0.954550 -0.296897
vn -0.152496 0.943888 -0.292953
vn -0.575250 0.297498 -0.761960
vn -0.020195 0.329104 -0.944078
vn 0.005122 -0.363717 -0.931495
vn -0.614774 -0.214575 -0.758953
vn -0.485487 -0.823933 -0.292297
vn 0.043088 -0.959283 -0.279140
vn 0.043092 -0.959283 0.279141
vn -0.485485 -0.823933 0.292300
vn 0.121419 -0.935382 0.332142
vn 0.011463 -0.198388 0.980057
vn 0.121414 -0.935381 -0.332146
vn 0.011453 -0.198384 -0.980058
vn -0.062036 0.523669 -0.849660
vn -0.093746 0.969808 -0.225131
vn -0.093746 0.969808 0.225130
vn -0.062032 0.523667 0.849662
vn 0.831412 -0.363792 0.420012
vn 0.831411 -0.363795 -0.420010
vn 0.951721 0.205328 -0.228184
vn 0.951721 0.205330 0.228183
vn 0.680966 -0.599894 0.420015
vn 0.215874 -0.949379 0.228205
vn 0.215873 -0.949379 -0.228206
vn 0.680970 -0.599891 -0.420014
vn 0.098752 0.262523 -0.959859
vn 0.332746 0.884583 -0.326790
vn 0.334778 0.890050 -0.309410
vn 0.114075 0.303279 -0.946049
vn 0.332753 0.884582 0.326786
vn 0.334780 0.890051 0.309406
vn 0.098760 0.262528 0.959857
vn 0.114080 0.303284 0.946047
vn -0.129294 -0.343729 0.930126
vn -0.336727 -0.895207 0.291926
vn -0.334642 -0.889647 0.310713
vn -0.112936 -0.300255 0.947150
vn -0.336725 -0.895207 -0.291927
vn -0.334642 -0.889647 -0.310713
vn -0.129289 -0.343721 -0.930129
vn -0.112935 -0.300250 -0.947151
vn 0.145385 0.313762 -0.938305
vn 0.405749 0.862381 -0.302763
vn 0.405749 0.862383 0.302762
vn 0.145383 0.313769 0.938303
vn -0.125375 -0.264211 0.956281
vn -0.400110 -0.857156 0.324338
vn -0.400113 -0.857155 -0.324337
vn -0.125372 -0.264207 -0.956282
s 1
g house1 pasted__pasted___polySurface64
f 34/33/57 36/34/58 40/35/59 38/36/60
f 37/37/61 39/38/62 44/39/63 42/40/64
f 41/41/65 43/42/66 48/43/67 46/44/68
f 45/45/69 47/46/70 35/47/71 33/48/72
f 41/49/65 38/36/60 37/50/61 42/51/64
f 34/33/57 33/52/72 35/53/71 36/34/58
f 37/37/61 38/36/60 40/35/59 39/38/62
f 41/41/65 42/40/64 44/39/63 43/42/66
f 45/45/69 46/44/68 48/43/67 47/46/70
f 36/34/58 35/53/71 49/54/73 50/55/74
f 35/53/71 47/56/70 51/57/75 49/54/73
f 47/56/70 48/58/67 52/59/76 51/57/75
f 48/58/67 43/60/66 53/61/77 52/59/76
f 43/60/66 44/62/63 54/63/78 53/61/77
f 44/62/63 39/64/62 55/65/79 54/63/78
f 39/64/62 40/35/59 56/66/80 55/65/79
f 40/35/59 36/34/58 50/55/74 56/66/80
f 81/67/81 82/68/82 83/69/83 84/70/84
f 86/71/85 85/72/86 87/73/87 88/74/88
f 86/71/85 88/74/88 82/68/82 81/67/81
f 46/75/68 45/76/69 33/52/72 34/33/57
f 46/75/68 34/33/57 38/36/60 41/49/65
f 65/77/89 66/78/90 75/79/91 76/80/92
f 66/78/90 67/81/93 74/82/94 75/79/91
f 67/81/93 68/83/95 73/84/96 74/82/94
f 70/85/97 69/86/98 79/87/99 80/88/100
f 69/86/98 71/89/101 78/90/102 79/87/99
f 71/89/101 72/91/103 77/92/104 78/90/102
f 72/91/103 65/77/89 76/80/92 77/92/104
f 68/83/95 70/85/97 80/88/100 73/84/96
f 53/61/77 54/63/78 66/78/90 65/77/89
f 54/63/78 55/65/79 67/81/93 66/78/90
f 55/65/79 56/66/80 68/83/95 67/81/93
f 50/55/74 49/54/73 69/86/98 70/85/97
f 49/54/73 51/57/75 71/89/101 69/86/98
f 51/57/75 52/59/76 72/91/103 71/89/101
f 52/59/76 53/61/77 65/77/89 72/91/103
f 56/66/80 50/55/74 70/85/97 68/83/95
f 58/94/105 59/93/106 83/69/83 82/68/82
f 59/93/106 60/95/107 84/70/84 83/69/83
f 60/95/107 57/96/108 81/67/81 84/70/84
f 62/98/109 61/97/110 85/72/86 86/71/85
f 61/97/110 63/99/111 87/73/87 85/72/86
f 63/99/111 64/100/112 88/74/88 87/73/87
f 64/100/112 58/94/105 82/68/82 88/74/88
f 57/96/108 62/98/109 86/71/85 81/67/81
f 60/95/107 59/93/106 75/79/91 74/82/94
f 57/96/108 60/95/107 74/82/94 73/84/96
f 62/98/109 57/96/108 73/84/96 80/88/100
f 61/97/110 62/98/109 80/88/100 79/87/99
f 63/99/111 61/97/110 79/87/99 78/90/102
f 64/100/112 63/99/111 78/90/102 77/92/104
f 58/94/105 64/100/112 77/92/104 76/80/92
f 59/93/106 58/94/105 76/80/92 75/79/91
